<svg width="40" height="40" viewBox="0 0 40 40" fill="none" xmlns="http://www.w3.org/2000/svg">
<path fill-rule="evenodd" clip-rule="evenodd" d="M35.24 19.54H36.62C37.38 19.54 38 20.16 38 20.92C38 23.02 37.18 24.99 35.7 26.47C34.22 27.95 32.25 28.77 30.15 28.77H19.53V33.85C19.53 36.14 17.67 38 15.38 38H6.15C3.86 38 2 36.14 2 33.85V17.23C2 15.43 3.16 13.9 4.77 13.33V5.9C4.77 3.75 6.55 2 8.75 2H31.26C33.45 2 35.24 3.75 35.24 5.9V19.54ZM31.25 4.77H8.75C8.08 4.77 7.54 5.28 7.54 5.9V13.08H15.39C17.68 13.08 19.54 14.94 19.54 17.23V19.54H32.46V5.9C32.46 5.28 31.92 4.77 31.25 4.77ZM15.39 35.23C16.15 35.23 16.77 34.61 16.77 33.85H16.76V17.23C16.76 16.47 16.14 15.85 15.38 15.85H6.15C5.39 15.85 4.77 16.47 4.77 17.23V33.85C4.77 34.61 5.39 35.23 6.15 35.23H15.39ZM30.15 26C31.51 26 32.79 25.47 33.74 24.51C34.37 23.89 34.81 23.13 35.04 22.31H19.54V26H30.15ZM8.92004 30.6201H12.62C13.38 30.6201 13.99 31.2401 13.99 32.0001C13.99 32.7601 13.37 33.3801 12.61 33.3801H8.92004C8.16004 33.3801 7.54004 32.7601 7.54004 32.0001C7.54004 31.2401 8.16004 30.6201 8.92004 30.6201Z" fill="url(#paint0_linear)"/>
<defs>
<linearGradient id="paint0_linear" x1="4.59367e-06" y1="3.13488e-06" x2="40.1613" y2="0.162699" gradientUnits="userSpaceOnUse">
<stop stop-color="#F1991A"/>
<stop offset="1" stop-color="#F5B353"/>
</linearGradient>
</defs>
</svg>
