<svg width="320" height="170" viewBox="0 0 320 170" fill="none" xmlns="http://www.w3.org/2000/svg">
<g filter="url(#filter0_d)">
<rect x="30" y="30" width="240" height="90" rx="10" fill="url(#paint0_linear)"/>
</g>
<path d="M45.684 55L43.808 51.444V55H40.7V45.088H45.32C46.1227 45.088 46.8087 45.2327 47.378 45.522C47.9473 45.802 48.372 46.1893 48.652 46.684C48.9413 47.1693 49.086 47.72 49.086 48.336C49.086 48.9987 48.8993 49.5867 48.526 50.1C48.162 50.6133 47.6347 50.982 46.944 51.206L49.1 55H45.684ZM43.808 49.372H45.04C45.3387 49.372 45.5627 49.3067 45.712 49.176C45.8613 49.036 45.936 48.8213 45.936 48.532C45.936 48.2707 45.8567 48.0653 45.698 47.916C45.5487 47.7667 45.3293 47.692 45.04 47.692H43.808V49.372ZM57.8629 45.088V47.552H55.2309V55H52.1229V47.552H49.5189V45.088H57.8629ZM63.5359 44.92C64.4692 44.92 65.3232 45.1393 66.0979 45.578C66.8725 46.0073 67.4839 46.6093 67.9319 47.384C68.3892 48.1587 68.6179 49.0313 68.6179 50.002C68.6179 50.9727 68.3892 51.8453 67.9319 52.62C67.4839 53.3947 66.8679 54.0013 66.0839 54.44C65.3092 54.8787 64.4599 55.098 63.5359 55.098C62.6025 55.098 61.7439 54.8787 60.9599 54.44C60.1852 54.0013 59.5692 53.3947 59.1119 52.62C58.6545 51.8453 58.4259 50.9727 58.4259 50.002C58.4259 49.0313 58.6545 48.1587 59.1119 47.384C59.5692 46.6093 60.1852 46.0073 60.9599 45.578C61.7439 45.1393 62.6025 44.92 63.5359 44.92ZM63.5359 47.79C62.9105 47.79 62.4299 47.9907 62.0939 48.392C61.7579 48.784 61.5899 49.3207 61.5899 50.002C61.5899 50.674 61.7579 51.2107 62.0939 51.612C62.4299 52.004 62.9105 52.2 63.5359 52.2C64.1519 52.2 64.6279 52.004 64.9639 51.612C65.2999 51.2107 65.4679 50.674 65.4679 50.002C65.4679 49.3207 65.2999 48.784 64.9639 48.392C64.6279 47.9907 64.1519 47.79 63.5359 47.79ZM77.102 55L75.226 51.444V55H72.118V45.088H76.738C77.5406 45.088 78.2266 45.2327 78.796 45.522C79.3653 45.802 79.79 46.1893 80.07 46.684C80.3593 47.1693 80.504 47.72 80.504 48.336C80.504 48.9987 80.3173 49.5867 79.944 50.1C79.58 50.6133 79.0526 50.982 78.362 51.206L80.518 55H77.102ZM75.226 49.372H76.458C76.7566 49.372 76.9806 49.3067 77.13 49.176C77.2793 49.036 77.354 48.8213 77.354 48.532C77.354 48.2707 77.2746 48.0653 77.116 47.916C76.9666 47.7667 76.7473 47.692 76.458 47.692H75.226V49.372ZM89.1409 50.982C89.1409 51.178 89.1175 51.3833 89.0709 51.598H84.1009C84.1289 51.99 84.2175 52.2607 84.3669 52.41C84.5162 52.55 84.7122 52.62 84.9549 52.62C85.2909 52.62 85.5335 52.466 85.6829 52.158H88.9729C88.8609 52.718 88.6229 53.222 88.2589 53.67C87.9042 54.1087 87.4515 54.4587 86.9009 54.72C86.3595 54.972 85.7622 55.098 85.1089 55.098C84.3249 55.098 83.6249 54.9347 83.0089 54.608C82.4022 54.2813 81.9262 53.8147 81.5809 53.208C81.2449 52.592 81.0769 51.8733 81.0769 51.052C81.0769 50.2307 81.2449 49.5167 81.5809 48.91C81.9262 48.294 82.4022 47.8227 83.0089 47.496C83.6249 47.1693 84.3249 47.006 85.1089 47.006C85.8929 47.006 86.5882 47.1693 87.1949 47.496C87.8109 47.8133 88.2869 48.2707 88.6229 48.868C88.9682 49.4653 89.1409 50.17 89.1409 50.982ZM85.9909 50.324C85.9909 50.0253 85.9069 49.806 85.7389 49.666C85.5709 49.5167 85.3609 49.442 85.1089 49.442C84.5395 49.442 84.2129 49.736 84.1289 50.324H85.9909ZM92.9658 47.006C93.4792 47.006 93.9178 47.1133 94.2818 47.328C94.6552 47.5333 94.9398 47.818 95.1358 48.182V44.64H98.2438V55H95.1358V53.922C94.9398 54.286 94.6552 54.5753 94.2818 54.79C93.9178 54.9953 93.4792 55.098 92.9658 55.098C92.3498 55.098 91.7945 54.9393 91.2998 54.622C90.8052 54.2953 90.4132 53.8287 90.1238 53.222C89.8438 52.606 89.7038 51.8827 89.7038 51.052C89.7038 50.2213 89.8438 49.5027 90.1238 48.896C90.4132 48.28 90.8052 47.8133 91.2998 47.496C91.7945 47.1693 92.3498 47.006 92.9658 47.006ZM94.0018 49.722C93.6658 49.722 93.3905 49.8387 93.1758 50.072C92.9612 50.3053 92.8538 50.632 92.8538 51.052C92.8538 51.472 92.9612 51.7987 93.1758 52.032C93.3905 52.2653 93.6658 52.382 94.0018 52.382C94.3378 52.382 94.6132 52.2653 94.8278 52.032C95.0425 51.7987 95.1498 51.472 95.1498 51.052C95.1498 50.632 95.0425 50.3053 94.8278 50.072C94.6132 49.8387 94.3378 49.722 94.0018 49.722ZM107.997 47.104V55H104.889V53.796C104.647 54.1693 104.32 54.4727 103.909 54.706C103.508 54.9393 103.027 55.056 102.467 55.056C101.562 55.056 100.853 54.7527 100.339 54.146C99.8355 53.5393 99.5835 52.718 99.5835 51.682V47.104H102.677V51.29C102.677 51.6633 102.775 51.962 102.971 52.186C103.177 52.4007 103.447 52.508 103.783 52.508C104.129 52.508 104.399 52.4007 104.595 52.186C104.791 51.962 104.889 51.6633 104.889 51.29V47.104H107.997ZM113.013 47.006C114.04 47.006 114.903 47.2953 115.603 47.874C116.313 48.4527 116.761 49.2553 116.947 50.282H113.657C113.536 49.8713 113.298 49.666 112.943 49.666C112.691 49.666 112.491 49.7827 112.341 50.016C112.201 50.2493 112.131 50.5947 112.131 51.052C112.131 51.5093 112.201 51.8547 112.341 52.088C112.491 52.3213 112.691 52.438 112.943 52.438C113.298 52.438 113.536 52.2327 113.657 51.822H116.947C116.761 52.8487 116.313 53.6513 115.603 54.23C114.903 54.8087 114.04 55.098 113.013 55.098C112.229 55.098 111.529 54.9347 110.913 54.608C110.307 54.2813 109.831 53.8147 109.485 53.208C109.149 52.592 108.981 51.8733 108.981 51.052C108.981 50.2307 109.149 49.5167 109.485 48.91C109.831 48.294 110.307 47.8227 110.913 47.496C111.529 47.1693 112.229 47.006 113.013 47.006ZM122.846 52.354V55H121.67C119.505 55 118.422 53.922 118.422 51.766V49.694H117.442V47.104H118.422V45.2H121.53V47.104H122.818V49.694H121.53V51.822C121.53 52.0087 121.572 52.144 121.656 52.228C121.75 52.312 121.899 52.354 122.104 52.354H122.846ZM123.806 44.948C123.806 44.5 123.969 44.1313 124.296 43.842C124.623 43.5433 125.057 43.394 125.598 43.394C126.13 43.394 126.559 43.5433 126.886 43.842C127.213 44.1313 127.376 44.5 127.376 44.948C127.376 45.3867 127.213 45.7507 126.886 46.04C126.559 46.3293 126.13 46.474 125.598 46.474C125.057 46.474 124.623 46.3293 124.296 46.04C123.969 45.7507 123.806 45.3867 123.806 44.948ZM127.138 47.104V55H124.03V47.104H127.138ZM132.294 47.006C133.087 47.006 133.801 47.1693 134.436 47.496C135.07 47.8227 135.565 48.294 135.92 48.91C136.284 49.5167 136.466 50.2307 136.466 51.052C136.466 51.8733 136.284 52.592 135.92 53.208C135.565 53.8147 135.07 54.2813 134.436 54.608C133.801 54.9347 133.087 55.098 132.294 55.098C131.5 55.098 130.786 54.9347 130.152 54.608C129.517 54.2813 129.018 53.8147 128.654 53.208C128.299 52.592 128.122 51.8733 128.122 51.052C128.122 50.2307 128.299 49.5167 128.654 48.91C129.018 48.294 129.517 47.8227 130.152 47.496C130.786 47.1693 131.5 47.006 132.294 47.006ZM132.294 49.694C132.004 49.694 131.762 49.8107 131.566 50.044C131.37 50.268 131.272 50.604 131.272 51.052C131.272 51.5 131.365 51.8407 131.552 52.074C131.748 52.298 131.995 52.41 132.294 52.41C132.583 52.41 132.826 52.298 133.022 52.074C133.218 51.8407 133.316 51.5 133.316 51.052C133.316 50.604 133.218 50.268 133.022 50.044C132.826 49.8107 132.583 49.694 132.294 49.694ZM142.972 47.048C143.878 47.048 144.582 47.3513 145.086 47.958C145.6 48.5647 145.856 49.386 145.856 50.422V55H142.762V50.814C142.762 50.4407 142.66 50.1467 142.454 49.932C142.258 49.708 141.992 49.596 141.656 49.596C141.311 49.596 141.04 49.708 140.844 49.932C140.648 50.1467 140.55 50.4407 140.55 50.814V55H137.442V47.104H140.55V48.308C140.793 47.9347 141.115 47.6313 141.516 47.398C141.927 47.1647 142.412 47.048 142.972 47.048Z" fill="white"/>
<path d="M45.432 86.644C44.676 86.644 43.906 86.882 43.346 87.246C43.584 86.168 44.214 85.58 45.236 85.58C45.964 85.58 46.496 85.804 47.07 86.224L48.302 84.18C47.462 83.578 46.426 83.214 45.208 83.214C42.226 83.214 40.434 85.272 40.434 88.366C40.434 91.222 41.876 93.168 44.816 93.168C46.986 93.168 48.694 91.838 48.694 89.738C48.694 87.82 47.224 86.644 45.432 86.644ZM44.634 90.872C43.766 90.872 43.416 90.494 43.29 89.556C43.556 89.094 44.018 88.814 44.564 88.814C45.264 88.814 45.894 89.192 45.894 89.85C45.894 90.438 45.39 90.872 44.634 90.872ZM52.9395 93.168C55.1515 93.168 57.0415 92.216 57.0415 90.382C57.0415 89.346 56.4115 88.52 55.3055 88.03C56.2435 87.582 56.7895 86.882 56.7895 85.86C56.7895 84.166 54.9975 83.214 52.9395 83.214C50.9235 83.214 49.1035 84.124 49.1035 85.874C49.1035 86.952 49.7195 87.624 50.5735 88.03C49.5235 88.478 48.8515 89.29 48.8515 90.382C48.8515 92.202 50.7135 93.168 52.9395 93.168ZM52.9395 87.12C52.2955 87.078 51.7775 86.728 51.7775 86.252C51.7775 85.804 52.2115 85.44 52.9395 85.44C53.6675 85.44 54.1155 85.804 54.1155 86.252C54.1155 86.714 53.5835 87.078 52.9395 87.12ZM52.9395 90.928C52.1135 90.928 51.5955 90.578 51.5955 90.06C51.5955 89.57 52.2255 89.234 52.9395 89.192C53.6535 89.234 54.2975 89.57 54.2975 90.06C54.2975 90.578 53.7515 90.928 52.9395 90.928ZM59.6279 88.268C61.1259 88.268 62.1479 87.19 62.1479 85.776C62.1479 84.404 61.1679 83.284 59.6279 83.284C58.1019 83.284 57.1219 84.404 57.1219 85.776C57.1219 87.19 58.1299 88.268 59.6279 88.268ZM58.4379 93H60.2859L67.0479 83.382H65.1999L58.4379 93ZM59.6279 86.77C59.1799 86.77 58.8299 86.406 58.8299 85.776C58.8299 85.146 59.1659 84.796 59.6279 84.796C60.0899 84.796 60.4399 85.16 60.4399 85.776C60.4399 86.42 60.0899 86.77 59.6279 86.77ZM65.8439 93.154C67.3279 93.154 68.3499 92.062 68.3499 90.662C68.3499 89.276 67.3699 88.156 65.8439 88.156C64.3459 88.156 63.3239 89.248 63.3239 90.662C63.3239 92.034 64.3179 93.154 65.8439 93.154ZM65.8439 91.642C65.3819 91.642 65.0319 91.278 65.0319 90.662C65.0319 90.004 65.3679 89.668 65.8439 89.668C66.2919 89.668 66.6559 90.032 66.6559 90.662C66.6559 91.292 66.3059 91.642 65.8439 91.642Z" fill="#F09819"/>
<path d="M54.0016 160C53.8987 159.999 53.7974 159.974 53.7069 159.924C53.6164 159.875 53.5394 159.805 53.4828 159.719L34.1063 130.344C34.0379 130.242 34.001 130.123 34 130C34.0005 129.897 34.0263 129.797 34.075 129.706C34.1281 129.606 34.2074 129.523 34.3042 129.465C34.4011 129.406 34.512 129.375 34.625 129.375H45.876V120.625C45.876 120.459 45.9418 120.3 46.059 120.183C46.1762 120.066 46.3352 120 46.501 120H61.5022C61.668 120 61.827 120.066 61.9442 120.183C62.0614 120.3 62.1273 120.459 62.1273 120.625L62.1273 129.375H73.3782C73.4907 129.376 73.601 129.407 73.6975 129.465C73.7939 129.523 73.8728 129.606 73.926 129.705C73.9791 129.804 74.0045 129.916 73.9994 130.028C73.9943 130.141 73.9589 130.25 73.897 130.344L54.5204 159.719C54.4638 159.805 54.3868 159.875 54.2963 159.924C54.2058 159.974 54.1046 159.999 54.0016 160Z" fill="url(#paint1_linear)"/>
<rect x="105" y="96" width="48" height="8" rx="4" fill="white"/>
<rect x="105" y="81" width="150" height="8" rx="4" fill="white"/>
<rect x="105" y="81" width="93" height="8" rx="4" fill="#004B8D"/>
<g filter="url(#filter1_d)">
<circle cx="198" cy="85" r="8" fill="white"/>
</g>
<circle cx="198" cy="85" r="6.4" fill="url(#paint2_linear)"/>
<defs>
<filter id="filter0_d" x="0" y="0" width="320" height="170" filterUnits="userSpaceOnUse" color-interpolation-filters="sRGB">
<feFlood flood-opacity="0" result="BackgroundImageFix"/>
<feColorMatrix in="SourceAlpha" type="matrix" values="0 0 0 0 0 0 0 0 0 0 0 0 0 0 0 0 0 0 127 0" result="hardAlpha"/>
<feOffset dx="10" dy="10"/>
<feGaussianBlur stdDeviation="20"/>
<feComposite in2="hardAlpha" operator="out"/>
<feColorMatrix type="matrix" values="0 0 0 0 0.0745098 0 0 0 0 0.0901961 0 0 0 0 0.176471 0 0 0 0.4 0"/>
<feBlend mode="normal" in2="BackgroundImageFix" result="effect1_dropShadow"/>
<feBlend mode="normal" in="SourceGraphic" in2="effect1_dropShadow" result="shape"/>
</filter>
<filter id="filter1_d" x="182" y="67" width="36" height="36" filterUnits="userSpaceOnUse" color-interpolation-filters="sRGB">
<feFlood flood-opacity="0" result="BackgroundImageFix"/>
<feColorMatrix in="SourceAlpha" type="matrix" values="0 0 0 0 0 0 0 0 0 0 0 0 0 0 0 0 0 0 127 0" result="hardAlpha"/>
<feOffset dx="2"/>
<feGaussianBlur stdDeviation="5"/>
<feColorMatrix type="matrix" values="0 0 0 0 0 0 0 0 0 0.0156863 0 0 0 0 0.156863 0 0 0 0.25 0"/>
<feBlend mode="normal" in2="BackgroundImageFix" result="effect1_dropShadow"/>
<feBlend mode="normal" in="SourceGraphic" in2="effect1_dropShadow" result="shape"/>
</filter>
<linearGradient id="paint0_linear" x1="30" y1="30" x2="89.1781" y2="187.808" gradientUnits="userSpaceOnUse">
<stop stop-color="#000428"/>
<stop offset="1" stop-color="#004B8D"/>
</linearGradient>
<linearGradient id="paint1_linear" x1="34" y1="120" x2="74" y2="160" gradientUnits="userSpaceOnUse">
<stop stop-color="#EDCE4D"/>
<stop offset="1" stop-color="#F09819"/>
</linearGradient>
<linearGradient id="paint2_linear" x1="204.4" y1="91.4" x2="191.6" y2="78.6" gradientUnits="userSpaceOnUse">
<stop stop-color="#EDCE4D"/>
<stop offset="1" stop-color="#F09819"/>
</linearGradient>
</defs>
</svg>
