<svg width="274" height="52" viewBox="0 0 274 52" fill="none" xmlns="http://www.w3.org/2000/svg">
<rect x="0.5" y="0.5" width="169" height="51" rx="25.5" stroke="url(#paint0_linear)" stroke-dasharray="2 2"/>
<rect x="5" y="7" width="160" height="39" rx="19.5" fill="url(#paint1_linear)"/>
<path d="M22.8406 21.432C23.9206 21.432 24.8126 21.716 25.5166 22.284C26.2286 22.852 26.6886 23.62 26.8966 24.588H24.7246C24.5646 24.196 24.3166 23.888 23.9806 23.664C23.6526 23.44 23.2606 23.328 22.8046 23.328C22.2046 23.328 21.7206 23.548 21.3526 23.988C20.9846 24.428 20.8006 25.016 20.8006 25.752C20.8006 26.488 20.9846 27.076 21.3526 27.516C21.7206 27.948 22.2046 28.164 22.8046 28.164C23.2606 28.164 23.6526 28.052 23.9806 27.828C24.3166 27.604 24.5646 27.3 24.7246 26.916H26.8966C26.6886 27.876 26.2286 28.644 25.5166 29.22C24.8126 29.788 23.9206 30.072 22.8406 30.072C22.0166 30.072 21.2926 29.892 20.6686 29.532C20.0446 29.164 19.5606 28.652 19.2166 27.996C18.8806 27.34 18.7126 26.592 18.7126 25.752C18.7126 24.912 18.8806 24.164 19.2166 23.508C19.5606 22.852 20.0446 22.344 20.6686 21.984C21.2926 21.616 22.0166 21.432 22.8406 21.432ZM34.4666 23.304V30H32.4026V28.788C32.2106 29.18 31.9226 29.492 31.5386 29.724C31.1626 29.956 30.7226 30.072 30.2186 30.072C29.4506 30.072 28.8386 29.816 28.3826 29.304C27.9346 28.792 27.7106 28.088 27.7106 27.192V23.304H29.7506V26.94C29.7506 27.396 29.8666 27.752 30.0986 28.008C30.3386 28.256 30.6586 28.38 31.0586 28.38C31.4746 28.38 31.8026 28.248 32.0426 27.984C32.2826 27.72 32.4026 27.344 32.4026 26.856V23.304H34.4666ZM38.0768 23.22C38.9248 23.22 39.6008 23.432 40.1048 23.856C40.6168 24.28 40.9368 24.84 41.0648 25.536H39.1448C39.0888 25.264 38.9608 25.052 38.7608 24.9C38.5688 24.74 38.3248 24.66 38.0288 24.66C37.7968 24.66 37.6208 24.712 37.5008 24.816C37.3808 24.912 37.3208 25.052 37.3208 25.236C37.3208 25.444 37.4288 25.6 37.6448 25.704C37.8688 25.808 38.2168 25.912 38.6888 26.016C39.2008 26.136 39.6208 26.26 39.9488 26.388C40.2768 26.508 40.5608 26.708 40.8008 26.988C41.0408 27.268 41.1608 27.644 41.1608 28.116C41.1608 28.5 41.0568 28.84 40.8488 29.136C40.6408 29.432 40.3408 29.664 39.9488 29.832C39.5568 30 39.0928 30.084 38.5568 30.084C37.6528 30.084 36.9288 29.884 36.3848 29.484C35.8408 29.084 35.5088 28.512 35.3888 27.768H37.3688C37.4008 28.056 37.5208 28.276 37.7288 28.428C37.9448 28.58 38.2208 28.656 38.5568 28.656C38.7888 28.656 38.9648 28.604 39.0848 28.5C39.2048 28.388 39.2648 28.244 39.2648 28.068C39.2648 27.836 39.1528 27.672 38.9288 27.576C38.7128 27.472 38.3568 27.364 37.8608 27.252C37.3648 27.148 36.9568 27.036 36.6368 26.916C36.3168 26.796 36.0408 26.604 35.8088 26.34C35.5768 26.068 35.4608 25.7 35.4608 25.236C35.4608 24.636 35.6888 24.152 36.1448 23.784C36.6008 23.408 37.2448 23.22 38.0768 23.22ZM45.8491 28.236V30H44.9251C44.1411 30 43.5291 29.808 43.0891 29.424C42.6571 29.032 42.4411 28.388 42.4411 27.492V25.032H41.5411V23.304H42.4411V21.66H44.4931V23.304H45.8371V25.032H44.4931V27.528C44.4931 27.792 44.5451 27.976 44.6491 28.08C44.7611 28.184 44.9451 28.236 45.2011 28.236H45.8491ZM49.8944 23.22C50.5584 23.22 51.1504 23.36 51.6704 23.64C52.1984 23.912 52.6104 24.308 52.9064 24.828C53.2104 25.348 53.3624 25.956 53.3624 26.652C53.3624 27.348 53.2104 27.956 52.9064 28.476C52.6104 28.996 52.1984 29.396 51.6704 29.676C51.1504 29.948 50.5584 30.084 49.8944 30.084C49.2304 30.084 48.6344 29.948 48.1064 29.676C47.5784 29.396 47.1624 28.996 46.8584 28.476C46.5624 27.956 46.4144 27.348 46.4144 26.652C46.4144 25.956 46.5624 25.348 46.8584 24.828C47.1624 24.308 47.5784 23.912 48.1064 23.64C48.6344 23.36 49.2304 23.22 49.8944 23.22ZM49.8944 24.996C49.5024 24.996 49.1704 25.14 48.8984 25.428C48.6344 25.708 48.5024 26.116 48.5024 26.652C48.5024 27.188 48.6344 27.596 48.8984 27.876C49.1704 28.156 49.5024 28.296 49.8944 28.296C50.2864 28.296 50.6144 28.156 50.8784 27.876C51.1424 27.596 51.2744 27.188 51.2744 26.652C51.2744 26.116 51.1424 25.708 50.8784 25.428C50.6144 25.14 50.2864 24.996 49.8944 24.996ZM62.8624 23.232C63.6864 23.232 64.3344 23.488 64.8064 24C65.2784 24.504 65.5144 25.208 65.5144 26.112V30H63.4744V26.352C63.4744 25.928 63.3584 25.6 63.1264 25.368C62.9024 25.128 62.5944 25.008 62.2024 25.008C61.7944 25.008 61.4704 25.136 61.2304 25.392C60.9984 25.64 60.8824 25.992 60.8824 26.448V30H58.8304V26.352C58.8304 25.928 58.7184 25.6 58.4944 25.368C58.2704 25.128 57.9624 25.008 57.5704 25.008C57.1624 25.008 56.8384 25.132 56.5984 25.38C56.3584 25.628 56.2384 25.984 56.2384 26.448V30H54.1864V23.304H56.2384V24.444C56.4144 24.068 56.6824 23.772 57.0424 23.556C57.4104 23.34 57.8384 23.232 58.3264 23.232C58.8384 23.232 59.2904 23.352 59.6824 23.592C60.0744 23.824 60.3704 24.16 60.5704 24.6C60.8024 24.184 61.1184 23.852 61.5184 23.604C61.9264 23.356 62.3744 23.232 62.8624 23.232ZM72.9978 26.472C72.9978 26.64 72.9778 26.824 72.9378 27.024H68.2938C68.3178 27.528 68.4458 27.892 68.6778 28.116C68.9098 28.332 69.2058 28.44 69.5658 28.44C69.8698 28.44 70.1218 28.364 70.3218 28.212C70.5218 28.06 70.6538 27.864 70.7178 27.624H72.8898C72.8018 28.096 72.6098 28.52 72.3138 28.896C72.0178 29.264 71.6418 29.556 71.1858 29.772C70.7298 29.98 70.2218 30.084 69.6618 30.084C69.0058 30.084 68.4218 29.948 67.9098 29.676C67.4058 29.396 67.0098 28.996 66.7218 28.476C66.4338 27.956 66.2898 27.348 66.2898 26.652C66.2898 25.948 66.4298 25.34 66.7098 24.828C66.9978 24.308 67.3978 23.912 67.9098 23.64C68.4218 23.36 69.0058 23.22 69.6618 23.22C70.3258 23.22 70.9098 23.356 71.4138 23.628C71.9178 23.9 72.3058 24.284 72.5778 24.78C72.8578 25.268 72.9978 25.832 72.9978 26.472ZM70.9218 26.16C70.9298 25.72 70.8098 25.392 70.5618 25.176C70.3218 24.952 70.0218 24.84 69.6618 24.84C69.2858 24.84 68.9738 24.952 68.7258 25.176C68.4778 25.4 68.3378 25.728 68.3058 26.16H70.9218ZM75.8795 24.564C76.1355 24.156 76.4635 23.832 76.8635 23.592C77.2715 23.352 77.7115 23.232 78.1835 23.232V25.428H77.5955C77.0515 25.428 76.6275 25.544 76.3235 25.776C76.0275 26.008 75.8795 26.4 75.8795 26.952V30H73.8275V23.304H75.8795V24.564ZM83.0167 21.516V30H80.9647V21.516H83.0167ZM88.4415 23.232C89.2095 23.232 89.8175 23.488 90.2655 24C90.7215 24.512 90.9495 25.216 90.9495 26.112V30H88.8975V26.352C88.8975 25.904 88.7775 25.556 88.5375 25.308C88.3055 25.052 87.9935 24.924 87.6015 24.924C87.1855 24.924 86.8535 25.056 86.6055 25.32C86.3655 25.584 86.2455 25.96 86.2455 26.448V30H84.1935V23.304H86.2455V24.528C86.4375 24.128 86.7215 23.812 87.0975 23.58C87.4815 23.348 87.9295 23.232 88.4415 23.232ZM95.3508 22.392C95.0148 22.392 94.7708 22.464 94.6188 22.608C94.4668 22.752 94.3828 22.984 94.3668 23.304H95.5788V25.032H94.3668V30H92.3148V25.032H91.5108V23.304H92.3148V23.232C92.3148 22.4 92.5548 21.76 93.0348 21.312C93.5228 20.856 94.2268 20.628 95.1468 20.628C95.3388 20.628 95.4828 20.632 95.5788 20.64V22.404L95.3508 22.392ZM99.3728 23.22C100.037 23.22 100.629 23.36 101.149 23.64C101.677 23.912 102.089 24.308 102.385 24.828C102.689 25.348 102.841 25.956 102.841 26.652C102.841 27.348 102.689 27.956 102.385 28.476C102.089 28.996 101.677 29.396 101.149 29.676C100.629 29.948 100.037 30.084 99.3728 30.084C98.7088 30.084 98.1128 29.948 97.5848 29.676C97.0568 29.396 96.6408 28.996 96.3368 28.476C96.0408 27.956 95.8928 27.348 95.8928 26.652C95.8928 25.956 96.0408 25.348 96.3368 24.828C96.6408 24.308 97.0568 23.912 97.5848 23.64C98.1128 23.36 98.7088 23.22 99.3728 23.22ZM99.3728 24.996C98.9808 24.996 98.6488 25.14 98.3768 25.428C98.1128 25.708 97.9808 26.116 97.9808 26.652C97.9808 27.188 98.1128 27.596 98.3768 27.876C98.6488 28.156 98.9808 28.296 99.3728 28.296C99.7648 28.296 100.093 28.156 100.357 27.876C100.621 27.596 100.753 27.188 100.753 26.652C100.753 26.116 100.621 25.708 100.357 25.428C100.093 25.14 99.7648 24.996 99.3728 24.996ZM105.717 24.564C105.973 24.156 106.301 23.832 106.701 23.592C107.109 23.352 107.549 23.232 108.021 23.232V25.428H107.433C106.889 25.428 106.465 25.544 106.161 25.776C105.865 26.008 105.717 26.4 105.717 26.952V30H103.665V23.304H105.717V24.564ZM117.316 23.232C118.14 23.232 118.788 23.488 119.26 24C119.732 24.504 119.968 25.208 119.968 26.112V30H117.928V26.352C117.928 25.928 117.812 25.6 117.58 25.368C117.356 25.128 117.048 25.008 116.656 25.008C116.248 25.008 115.924 25.136 115.684 25.392C115.452 25.64 115.336 25.992 115.336 26.448V30H113.284V26.352C113.284 25.928 113.172 25.6 112.948 25.368C112.724 25.128 112.416 25.008 112.024 25.008C111.616 25.008 111.292 25.132 111.052 25.38C110.812 25.628 110.692 25.984 110.692 26.448V30H108.64V23.304H110.692V24.444C110.868 24.068 111.136 23.772 111.496 23.556C111.864 23.34 112.292 23.232 112.78 23.232C113.292 23.232 113.744 23.352 114.136 23.592C114.528 23.824 114.824 24.16 115.024 24.6C115.256 24.184 115.572 23.852 115.972 23.604C116.38 23.356 116.828 23.232 117.316 23.232ZM123.635 23.22C124.147 23.22 124.587 23.336 124.955 23.568C125.323 23.8 125.595 24.116 125.771 24.516V23.304H127.811V30H125.771V28.788C125.595 29.188 125.323 29.504 124.955 29.736C124.587 29.968 124.147 30.084 123.635 30.084C123.083 30.084 122.587 29.948 122.147 29.676C121.715 29.396 121.371 28.996 121.115 28.476C120.867 27.956 120.743 27.348 120.743 26.652C120.743 25.948 120.867 25.34 121.115 24.828C121.371 24.308 121.715 23.912 122.147 23.64C122.587 23.36 123.083 23.22 123.635 23.22ZM124.295 25.02C123.855 25.02 123.499 25.164 123.227 25.452C122.963 25.74 122.831 26.14 122.831 26.652C122.831 27.164 122.963 27.564 123.227 27.852C123.499 28.14 123.855 28.284 124.295 28.284C124.727 28.284 125.079 28.136 125.351 27.84C125.631 27.544 125.771 27.148 125.771 26.652C125.771 26.148 125.631 25.752 125.351 25.464C125.079 25.168 124.727 25.02 124.295 25.02ZM132.776 28.236V30H131.852C131.068 30 130.456 29.808 130.016 29.424C129.584 29.032 129.368 28.388 129.368 27.492V25.032H128.468V23.304H129.368V21.66H131.42V23.304H132.764V25.032H131.42V27.528C131.42 27.792 131.472 27.976 131.576 28.08C131.688 28.184 131.872 28.236 132.128 28.236H132.776ZM133.497 21.42C133.497 21.108 133.609 20.852 133.833 20.652C134.057 20.444 134.353 20.34 134.721 20.34C135.089 20.34 135.385 20.444 135.609 20.652C135.833 20.852 135.945 21.108 135.945 21.42C135.945 21.724 135.833 21.98 135.609 22.188C135.385 22.388 135.089 22.488 134.721 22.488C134.353 22.488 134.057 22.388 133.833 22.188C133.609 21.98 133.497 21.724 133.497 21.42ZM135.741 23.304V30H133.689V23.304H135.741ZM140.05 23.22C140.714 23.22 141.306 23.36 141.826 23.64C142.354 23.912 142.766 24.308 143.062 24.828C143.366 25.348 143.518 25.956 143.518 26.652C143.518 27.348 143.366 27.956 143.062 28.476C142.766 28.996 142.354 29.396 141.826 29.676C141.306 29.948 140.714 30.084 140.05 30.084C139.386 30.084 138.79 29.948 138.262 29.676C137.734 29.396 137.318 28.996 137.014 28.476C136.718 27.956 136.57 27.348 136.57 26.652C136.57 25.956 136.718 25.348 137.014 24.828C137.318 24.308 137.734 23.912 138.262 23.64C138.79 23.36 139.386 23.22 140.05 23.22ZM140.05 24.996C139.658 24.996 139.326 25.14 139.054 25.428C138.79 25.708 138.658 26.116 138.658 26.652C138.658 27.188 138.79 27.596 139.054 27.876C139.326 28.156 139.658 28.296 140.05 28.296C140.442 28.296 140.77 28.156 141.034 27.876C141.298 27.596 141.43 27.188 141.43 26.652C141.43 26.116 141.298 25.708 141.034 25.428C140.77 25.14 140.442 24.996 140.05 24.996ZM148.59 23.232C149.358 23.232 149.966 23.488 150.414 24C150.87 24.512 151.098 25.216 151.098 26.112V30H149.046V26.352C149.046 25.904 148.926 25.556 148.686 25.308C148.454 25.052 148.142 24.924 147.75 24.924C147.334 24.924 147.002 25.056 146.754 25.32C146.514 25.584 146.394 25.96 146.394 26.448V30H144.342V23.304H146.394V24.528C146.586 24.128 146.87 23.812 147.246 23.58C147.63 23.348 148.078 23.232 148.59 23.232Z" fill="#13172D"/>
<line x1="173.5" y1="25.5" x2="252.5" y2="25.5" stroke="url(#paint2_linear)" stroke-linecap="round"/>
<g filter="url(#filter0_d)">
<circle cx="169" cy="26" r="5" fill="white"/>
</g>
<circle cx="169" cy="26" r="4" fill="url(#paint3_linear)"/>
<g filter="url(#filter1_d)">
<circle cx="257" cy="26" r="5" fill="white"/>
</g>
<circle cx="257" cy="26" r="4" fill="url(#paint4_linear)"/>
<defs>
<filter id="filter0_d" x="156" y="11" width="30" height="30" filterUnits="userSpaceOnUse" color-interpolation-filters="sRGB">
<feFlood flood-opacity="0" result="BackgroundImageFix"/>
<feColorMatrix in="SourceAlpha" type="matrix" values="0 0 0 0 0 0 0 0 0 0 0 0 0 0 0 0 0 0 127 0" result="hardAlpha"/>
<feOffset dx="2"/>
<feGaussianBlur stdDeviation="5"/>
<feColorMatrix type="matrix" values="0 0 0 0 0 0 0 0 0 0.0156863 0 0 0 0 0.156863 0 0 0 0.25 0"/>
<feBlend mode="normal" in2="BackgroundImageFix" result="effect1_dropShadow"/>
<feBlend mode="normal" in="SourceGraphic" in2="effect1_dropShadow" result="shape"/>
</filter>
<filter id="filter1_d" x="244" y="11" width="30" height="30" filterUnits="userSpaceOnUse" color-interpolation-filters="sRGB">
<feFlood flood-opacity="0" result="BackgroundImageFix"/>
<feColorMatrix in="SourceAlpha" type="matrix" values="0 0 0 0 0 0 0 0 0 0 0 0 0 0 0 0 0 0 127 0" result="hardAlpha"/>
<feOffset dx="2"/>
<feGaussianBlur stdDeviation="5"/>
<feColorMatrix type="matrix" values="0 0 0 0 0 0 0 0 0 0.0156863 0 0 0 0 0.156863 0 0 0 0.25 0"/>
<feBlend mode="normal" in2="BackgroundImageFix" result="effect1_dropShadow"/>
<feBlend mode="normal" in="SourceGraphic" in2="effect1_dropShadow" result="shape"/>
</filter>
<linearGradient id="paint0_linear" x1="170" y1="52" x2="140.91" y2="-43.1019" gradientUnits="userSpaceOnUse">
<stop stop-color="#EDCE4D"/>
<stop offset="1" stop-color="#F09819"/>
</linearGradient>
<linearGradient id="paint1_linear" x1="165" y1="46" x2="147.054" y2="-27.6256" gradientUnits="userSpaceOnUse">
<stop stop-color="#EDCE4D"/>
<stop offset="1" stop-color="#F09819"/>
</linearGradient>
<linearGradient id="paint2_linear" x1="253" y1="27" x2="252.975" y2="25.0003" gradientUnits="userSpaceOnUse">
<stop stop-color="#EDCE4D"/>
<stop offset="1" stop-color="#F09819"/>
</linearGradient>
<linearGradient id="paint3_linear" x1="173" y1="30" x2="165" y2="22" gradientUnits="userSpaceOnUse">
<stop stop-color="#EDCE4D"/>
<stop offset="1" stop-color="#F09819"/>
</linearGradient>
<linearGradient id="paint4_linear" x1="261" y1="30" x2="253" y2="22" gradientUnits="userSpaceOnUse">
<stop stop-color="#EDCE4D"/>
<stop offset="1" stop-color="#F09819"/>
</linearGradient>
</defs>
</svg>
