<svg width="44" height="46" viewBox="0 0 44 46" fill="none" xmlns="http://www.w3.org/2000/svg">
<path d="M31.2726 14.047C31.2726 13.6622 31.2396 13.2775 31.1956 12.9038L33.5716 11.1012C33.6486 11.0462 33.6816 10.9473 33.6486 10.8593C33.3846 9.90307 32.9996 8.94678 32.4826 8.04546C32.0866 7.36397 31.6466 6.74844 31.1516 6.17686C31.0856 6.09992 30.9866 6.07794 30.8986 6.12191L28.2586 7.23207C27.4666 6.50662 26.5646 5.92405 25.5636 5.50637L25.1896 2.58256C25.1786 2.49463 25.1126 2.41769 25.0246 2.3957C24.0566 2.14289 23.0446 2 21.9996 2C21.2186 2 20.4486 2.07694 19.7116 2.21983C19.6126 2.24182 19.5466 2.31876 19.5356 2.41769L19.1836 5.24257C18.1496 5.57232 17.2036 6.08893 16.3566 6.73744L13.6286 5.57232C13.5406 5.53934 13.4416 5.56133 13.3756 5.62728C12.6716 6.33075 12.0446 7.14414 11.5166 8.04546C11.1316 8.72695 10.8126 9.41943 10.5596 10.1339C10.5266 10.2218 10.5596 10.3317 10.6366 10.3867L12.9356 12.1344C12.8036 12.7499 12.7376 13.3875 12.7376 14.047C12.7376 14.4646 12.7706 14.8603 12.8256 15.267L10.4276 17.0807C10.3506 17.1356 10.3176 17.2346 10.3506 17.3225C10.6146 18.2788 10.9996 19.2351 11.5166 20.1364C11.9126 20.8179 12.3526 21.4334 12.8476 22.005C12.9136 22.0819 13.0126 22.1039 13.1006 22.0599L15.8176 20.9168C16.5876 21.5983 17.4566 22.1699 18.4136 22.5766L18.7876 25.5883C18.7986 25.6762 18.8646 25.7532 18.9526 25.7751C19.9206 26.028 20.9326 26.1709 21.9776 26.1709C22.7586 26.1709 23.5286 26.0939 24.2656 25.951C24.3646 25.929 24.4306 25.8521 24.4416 25.7532L24.8046 22.8404C25.8056 22.5216 26.7186 22.027 27.5436 21.4114L30.3486 22.5875C30.4366 22.6205 30.5356 22.6095 30.5906 22.5436C31.2946 21.8291 31.9216 21.0267 32.4496 20.1254C32.8456 19.4439 33.1536 18.7514 33.4066 18.037C33.4396 17.949 33.4066 17.8391 33.3296 17.7841L31.0196 16.0365C31.1846 15.3989 31.2726 14.7284 31.2726 14.047Z" stroke="#F09819" stroke-width="3" stroke-miterlimit="10" stroke-linecap="round"/>
<path d="M18.6992 42.7023C18.6992 40.8777 20.1732 39.4048 21.9992 39.4048C23.8252 39.4048 25.2992 40.8777 25.2992 42.7023C25.2992 44.5269 23.8252 45.9998 21.9992 45.9998C20.1732 45.9998 18.6992 44.5159 18.6992 42.7023Z" fill="#F09819"/>
<path d="M6.59961 42.7023C6.59961 40.8777 8.07361 39.4048 9.89961 39.4048C11.7256 39.4048 13.1996 40.8777 13.1996 42.7023C13.1996 44.5269 11.7256 45.9998 9.89961 45.9998C8.07361 45.9888 6.59961 44.5159 6.59961 42.7023Z" fill="#F09819"/>
<path d="M30.7988 42.7023C30.7988 40.8777 32.2728 39.4048 34.0988 39.4048C35.9248 39.4048 37.3988 40.8777 37.3988 42.7023C37.3988 44.5269 35.9248 45.9998 34.0988 45.9998C32.2728 45.9888 30.7988 44.5159 30.7988 42.7023Z" fill="#F09819"/>
<path d="M22 30.2046V42.6912" stroke="#F09819" stroke-width="3" stroke-miterlimit="10" stroke-linejoin="round"/>
<path d="M9.90039 42.6917V34.7117H34.1004V42.6917" stroke="#F09819" stroke-width="3" stroke-miterlimit="10" stroke-linejoin="round"/>
<path d="M22.0095 18.3228C24.3727 18.3228 26.2885 16.4085 26.2885 14.047C26.2885 11.6856 24.3727 9.77124 22.0095 9.77124C19.6462 9.77124 17.7305 11.6856 17.7305 14.047C17.7305 16.4085 19.6462 18.3228 22.0095 18.3228Z" fill="#F09819"/>
</svg>
