<svg width="226" height="96" viewBox="0 0 226 96" fill="none" xmlns="http://www.w3.org/2000/svg">
<rect x="116.5" y="0.5" width="109" height="39" rx="19.5" stroke="#25D366" stroke-dasharray="2 2"/>
<rect x="121" y="5" width="100" height="30" rx="15" fill="#25D366"/>
<path d="M138.172 24L136.336 20.796H135.868V24H133.816V15.516H137.32C137.992 15.516 138.56 15.632 139.024 15.864C139.488 16.096 139.836 16.416 140.068 16.824C140.3 17.224 140.416 17.684 140.416 18.204C140.416 18.82 140.244 19.344 139.9 19.776C139.564 20.208 139.072 20.504 138.424 20.664L140.44 24H138.172ZM135.868 19.392H137.14C137.548 19.392 137.848 19.304 138.04 19.128C138.232 18.944 138.328 18.676 138.328 18.324C138.328 17.988 138.228 17.724 138.028 17.532C137.836 17.34 137.54 17.244 137.14 17.244H135.868V19.392ZM147.565 20.472C147.565 20.64 147.545 20.824 147.505 21.024H142.861C142.885 21.528 143.013 21.892 143.245 22.116C143.477 22.332 143.773 22.44 144.133 22.44C144.437 22.44 144.689 22.364 144.889 22.212C145.089 22.06 145.221 21.864 145.285 21.624H147.457C147.369 22.096 147.177 22.52 146.881 22.896C146.585 23.264 146.209 23.556 145.753 23.772C145.297 23.98 144.789 24.084 144.229 24.084C143.573 24.084 142.989 23.948 142.477 23.676C141.973 23.396 141.577 22.996 141.289 22.476C141.001 21.956 140.857 21.348 140.857 20.652C140.857 19.948 140.997 19.34 141.277 18.828C141.565 18.308 141.965 17.912 142.477 17.64C142.989 17.36 143.573 17.22 144.229 17.22C144.893 17.22 145.477 17.356 145.981 17.628C146.485 17.9 146.873 18.284 147.145 18.78C147.425 19.268 147.565 19.832 147.565 20.472ZM145.489 20.16C145.497 19.72 145.377 19.392 145.129 19.176C144.889 18.952 144.589 18.84 144.229 18.84C143.853 18.84 143.541 18.952 143.293 19.176C143.045 19.4 142.905 19.728 142.873 20.16H145.489ZM150.939 17.22C151.451 17.22 151.891 17.336 152.259 17.568C152.627 17.8 152.895 18.116 153.063 18.516V15.12H155.115V24H153.063V22.788C152.895 23.188 152.627 23.504 152.259 23.736C151.891 23.968 151.451 24.084 150.939 24.084C150.387 24.084 149.891 23.948 149.451 23.676C149.019 23.396 148.675 22.996 148.419 22.476C148.171 21.956 148.047 21.348 148.047 20.652C148.047 19.948 148.171 19.34 148.419 18.828C148.675 18.308 149.019 17.912 149.451 17.64C149.891 17.36 150.387 17.22 150.939 17.22ZM151.599 19.02C151.159 19.02 150.803 19.164 150.531 19.452C150.267 19.74 150.135 20.14 150.135 20.652C150.135 21.164 150.267 21.564 150.531 21.852C150.803 22.14 151.159 22.284 151.599 22.284C152.031 22.284 152.383 22.136 152.655 21.84C152.935 21.544 153.075 21.148 153.075 20.652C153.075 20.148 152.935 19.752 152.655 19.464C152.383 19.168 152.031 19.02 151.599 19.02ZM162.948 17.304V24H160.884V22.788C160.692 23.18 160.404 23.492 160.02 23.724C159.644 23.956 159.204 24.072 158.7 24.072C157.932 24.072 157.32 23.816 156.864 23.304C156.416 22.792 156.192 22.088 156.192 21.192V17.304H158.232V20.94C158.232 21.396 158.348 21.752 158.58 22.008C158.82 22.256 159.14 22.38 159.54 22.38C159.956 22.38 160.284 22.248 160.524 21.984C160.764 21.72 160.884 21.344 160.884 20.856V17.304H162.948ZM167.146 17.22C168.01 17.22 168.734 17.46 169.318 17.94C169.902 18.412 170.27 19.064 170.422 19.896H168.25C168.186 19.608 168.054 19.384 167.854 19.224C167.654 19.064 167.402 18.984 167.098 18.984C166.738 18.984 166.442 19.128 166.21 19.416C165.978 19.696 165.862 20.108 165.862 20.652C165.862 21.196 165.978 21.612 166.21 21.9C166.442 22.18 166.738 22.32 167.098 22.32C167.402 22.32 167.654 22.24 167.854 22.08C168.054 21.92 168.186 21.696 168.25 21.408H170.422C170.27 22.24 169.902 22.896 169.318 23.376C168.734 23.848 168.01 24.084 167.146 24.084C166.49 24.084 165.906 23.948 165.394 23.676C164.89 23.396 164.494 22.996 164.206 22.476C163.918 21.956 163.774 21.348 163.774 20.652C163.774 19.948 163.914 19.34 164.194 18.828C164.482 18.308 164.882 17.912 165.394 17.64C165.906 17.36 166.49 17.22 167.146 17.22ZM177.613 20.472C177.613 20.64 177.593 20.824 177.553 21.024H172.909C172.933 21.528 173.061 21.892 173.293 22.116C173.525 22.332 173.821 22.44 174.181 22.44C174.485 22.44 174.737 22.364 174.937 22.212C175.137 22.06 175.269 21.864 175.333 21.624H177.505C177.417 22.096 177.225 22.52 176.929 22.896C176.633 23.264 176.257 23.556 175.801 23.772C175.345 23.98 174.837 24.084 174.277 24.084C173.621 24.084 173.037 23.948 172.525 23.676C172.021 23.396 171.625 22.996 171.337 22.476C171.049 21.956 170.905 21.348 170.905 20.652C170.905 19.948 171.045 19.34 171.325 18.828C171.613 18.308 172.013 17.912 172.525 17.64C173.037 17.36 173.621 17.22 174.277 17.22C174.941 17.22 175.525 17.356 176.029 17.628C176.533 17.9 176.921 18.284 177.193 18.78C177.473 19.268 177.613 19.832 177.613 20.472ZM175.537 20.16C175.545 19.72 175.425 19.392 175.177 19.176C174.937 18.952 174.637 18.84 174.277 18.84C173.901 18.84 173.589 18.952 173.341 19.176C173.093 19.4 172.953 19.728 172.921 20.16H175.537ZM180.879 17.22C181.727 17.22 182.403 17.432 182.907 17.856C183.419 18.28 183.739 18.84 183.867 19.536H181.947C181.891 19.264 181.763 19.052 181.563 18.9C181.371 18.74 181.127 18.66 180.831 18.66C180.599 18.66 180.423 18.712 180.303 18.816C180.183 18.912 180.123 19.052 180.123 19.236C180.123 19.444 180.231 19.6 180.447 19.704C180.671 19.808 181.019 19.912 181.491 20.016C182.003 20.136 182.423 20.26 182.751 20.388C183.079 20.508 183.363 20.708 183.603 20.988C183.843 21.268 183.963 21.644 183.963 22.116C183.963 22.5 183.859 22.84 183.651 23.136C183.443 23.432 183.143 23.664 182.751 23.832C182.359 24 181.895 24.084 181.359 24.084C180.455 24.084 179.731 23.884 179.187 23.484C178.643 23.084 178.311 22.512 178.191 21.768H180.171C180.203 22.056 180.323 22.276 180.531 22.428C180.747 22.58 181.023 22.656 181.359 22.656C181.591 22.656 181.767 22.604 181.887 22.5C182.007 22.388 182.067 22.244 182.067 22.068C182.067 21.836 181.955 21.672 181.731 21.576C181.515 21.472 181.159 21.364 180.663 21.252C180.167 21.148 179.759 21.036 179.439 20.916C179.119 20.796 178.843 20.604 178.611 20.34C178.379 20.068 178.263 19.7 178.263 19.236C178.263 18.636 178.491 18.152 178.947 17.784C179.403 17.408 180.047 17.22 180.879 17.22ZM191.377 24L189.541 20.796H189.073V24H187.021V15.516H190.525C191.197 15.516 191.765 15.632 192.229 15.864C192.693 16.096 193.041 16.416 193.273 16.824C193.505 17.224 193.621 17.684 193.621 18.204C193.621 18.82 193.449 19.344 193.105 19.776C192.769 20.208 192.277 20.504 191.629 20.664L193.645 24H191.377ZM189.073 19.392H190.345C190.753 19.392 191.053 19.304 191.245 19.128C191.437 18.944 191.533 18.676 191.533 18.324C191.533 17.988 191.433 17.724 191.233 17.532C191.041 17.34 190.745 17.244 190.345 17.244H189.073V19.392ZM200.506 15.516V17.148H198.202V24H196.138V17.148H193.858V15.516H200.506ZM205.163 15.384C205.963 15.384 206.687 15.572 207.335 15.948C207.991 16.316 208.507 16.832 208.883 17.496C209.259 18.152 209.447 18.896 209.447 19.728C209.447 20.56 209.255 21.308 208.871 21.972C208.495 22.636 207.979 23.156 207.323 23.532C206.675 23.9 205.955 24.084 205.163 24.084C204.371 24.084 203.647 23.9 202.991 23.532C202.343 23.156 201.827 22.636 201.443 21.972C201.067 21.308 200.879 20.56 200.879 19.728C200.879 18.896 201.067 18.152 201.443 17.496C201.827 16.832 202.343 16.316 202.991 15.948C203.647 15.572 204.371 15.384 205.163 15.384ZM205.163 17.292C204.491 17.292 203.955 17.512 203.555 17.952C203.163 18.384 202.967 18.976 202.967 19.728C202.967 20.472 203.163 21.064 203.555 21.504C203.955 21.944 204.491 22.164 205.163 22.164C205.827 22.164 206.359 21.944 206.759 21.504C207.159 21.064 207.359 20.472 207.359 19.728C207.359 18.984 207.159 18.392 206.759 17.952C206.367 17.512 205.835 17.292 205.163 17.292Z" fill="#13172D"/>
<line x1="17.5" y1="80.5" x2="137.5" y2="80.5" stroke="#25D366" stroke-linecap="round"/>
<line x1="137.5" y1="79.5" x2="137.5" y2="40.5" stroke="#25D366" stroke-linecap="round"/>
<g filter="url(#filter0_d)">
<circle cx="13" cy="81" r="5" fill="white"/>
</g>
<circle cx="13" cy="81" r="4" fill="#25D366"/>
<g filter="url(#filter1_d)">
<circle cx="138" cy="38" r="5" fill="white"/>
</g>
<circle cx="138" cy="38" r="4" fill="#25D366"/>
<defs>
<filter id="filter0_d" x="0" y="66" width="30" height="30" filterUnits="userSpaceOnUse" color-interpolation-filters="sRGB">
<feFlood flood-opacity="0" result="BackgroundImageFix"/>
<feColorMatrix in="SourceAlpha" type="matrix" values="0 0 0 0 0 0 0 0 0 0 0 0 0 0 0 0 0 0 127 0" result="hardAlpha"/>
<feOffset dx="2"/>
<feGaussianBlur stdDeviation="5"/>
<feColorMatrix type="matrix" values="0 0 0 0 0 0 0 0 0 0.0156863 0 0 0 0 0.156863 0 0 0 0.25 0"/>
<feBlend mode="normal" in2="BackgroundImageFix" result="effect1_dropShadow"/>
<feBlend mode="normal" in="SourceGraphic" in2="effect1_dropShadow" result="shape"/>
</filter>
<filter id="filter1_d" x="125" y="23" width="30" height="30" filterUnits="userSpaceOnUse" color-interpolation-filters="sRGB">
<feFlood flood-opacity="0" result="BackgroundImageFix"/>
<feColorMatrix in="SourceAlpha" type="matrix" values="0 0 0 0 0 0 0 0 0 0 0 0 0 0 0 0 0 0 127 0" result="hardAlpha"/>
<feOffset dx="2"/>
<feGaussianBlur stdDeviation="5"/>
<feColorMatrix type="matrix" values="0 0 0 0 0 0 0 0 0 0.0156863 0 0 0 0 0.156863 0 0 0 0.25 0"/>
<feBlend mode="normal" in2="BackgroundImageFix" result="effect1_dropShadow"/>
<feBlend mode="normal" in="SourceGraphic" in2="effect1_dropShadow" result="shape"/>
</filter>
</defs>
</svg>
