<svg width="278" height="94" viewBox="0 0 278 94" fill="none" xmlns="http://www.w3.org/2000/svg">
<rect x="0.5" y="0.5" width="189" height="39" rx="19.5" stroke="#7785FF" stroke-dasharray="2 2"/>
<rect x="5" y="5" width="180" height="30" rx="15" fill="#7785FF"/>
<path d="M23.3744 15.432C24.4544 15.432 25.3464 15.716 26.0504 16.284C26.7624 16.852 27.2224 17.62 27.4304 18.588H25.2584C25.0984 18.196 24.8504 17.888 24.5144 17.664C24.1864 17.44 23.7944 17.328 23.3384 17.328C22.7384 17.328 22.2544 17.548 21.8864 17.988C21.5184 18.428 21.3344 19.016 21.3344 19.752C21.3344 20.488 21.5184 21.076 21.8864 21.516C22.2544 21.948 22.7384 22.164 23.3384 22.164C23.7944 22.164 24.1864 22.052 24.5144 21.828C24.8504 21.604 25.0984 21.3 25.2584 20.916H27.4304C27.2224 21.876 26.7624 22.644 26.0504 23.22C25.3464 23.788 24.4544 24.072 23.3744 24.072C22.5504 24.072 21.8264 23.892 21.2024 23.532C20.5784 23.164 20.0944 22.652 19.7504 21.996C19.4144 21.34 19.2464 20.592 19.2464 19.752C19.2464 18.912 19.4144 18.164 19.7504 17.508C20.0944 16.852 20.5784 16.344 21.2024 15.984C21.8264 15.616 22.5504 15.432 23.3744 15.432ZM35.0004 17.304V24H32.9364V22.788C32.7444 23.18 32.4564 23.492 32.0724 23.724C31.6964 23.956 31.2564 24.072 30.7524 24.072C29.9844 24.072 29.3724 23.816 28.9164 23.304C28.4684 22.792 28.2444 22.088 28.2444 21.192V17.304H30.2844V20.94C30.2844 21.396 30.4004 21.752 30.6324 22.008C30.8724 22.256 31.1924 22.38 31.5924 22.38C32.0084 22.38 32.3364 22.248 32.5764 21.984C32.8164 21.72 32.9364 21.344 32.9364 20.856V17.304H35.0004ZM38.6106 17.22C39.4586 17.22 40.1346 17.432 40.6386 17.856C41.1506 18.28 41.4706 18.84 41.5986 19.536H39.6786C39.6226 19.264 39.4946 19.052 39.2946 18.9C39.1026 18.74 38.8586 18.66 38.5626 18.66C38.3306 18.66 38.1546 18.712 38.0346 18.816C37.9146 18.912 37.8546 19.052 37.8546 19.236C37.8546 19.444 37.9626 19.6 38.1786 19.704C38.4026 19.808 38.7506 19.912 39.2226 20.016C39.7346 20.136 40.1546 20.26 40.4826 20.388C40.8106 20.508 41.0946 20.708 41.3346 20.988C41.5746 21.268 41.6946 21.644 41.6946 22.116C41.6946 22.5 41.5906 22.84 41.3826 23.136C41.1746 23.432 40.8746 23.664 40.4826 23.832C40.0906 24 39.6266 24.084 39.0906 24.084C38.1866 24.084 37.4626 23.884 36.9186 23.484C36.3746 23.084 36.0426 22.512 35.9226 21.768H37.9026C37.9346 22.056 38.0546 22.276 38.2626 22.428C38.4786 22.58 38.7546 22.656 39.0906 22.656C39.3226 22.656 39.4986 22.604 39.6186 22.5C39.7386 22.388 39.7986 22.244 39.7986 22.068C39.7986 21.836 39.6866 21.672 39.4626 21.576C39.2466 21.472 38.8906 21.364 38.3946 21.252C37.8986 21.148 37.4906 21.036 37.1706 20.916C36.8506 20.796 36.5746 20.604 36.3426 20.34C36.1106 20.068 35.9946 19.7 35.9946 19.236C35.9946 18.636 36.2226 18.152 36.6786 17.784C37.1346 17.408 37.7786 17.22 38.6106 17.22ZM46.3829 22.236V24H45.4589C44.6749 24 44.0629 23.808 43.6229 23.424C43.1909 23.032 42.9749 22.388 42.9749 21.492V19.032H42.0749V17.304H42.9749V15.66H45.0269V17.304H46.3709V19.032H45.0269V21.528C45.0269 21.792 45.0789 21.976 45.1829 22.08C45.2949 22.184 45.4789 22.236 45.7349 22.236H46.3829ZM50.4282 17.22C51.0922 17.22 51.6842 17.36 52.2042 17.64C52.7322 17.912 53.1442 18.308 53.4402 18.828C53.7442 19.348 53.8962 19.956 53.8962 20.652C53.8962 21.348 53.7442 21.956 53.4402 22.476C53.1442 22.996 52.7322 23.396 52.2042 23.676C51.6842 23.948 51.0922 24.084 50.4282 24.084C49.7642 24.084 49.1682 23.948 48.6402 23.676C48.1122 23.396 47.6962 22.996 47.3922 22.476C47.0962 21.956 46.9482 21.348 46.9482 20.652C46.9482 19.956 47.0962 19.348 47.3922 18.828C47.6962 18.308 48.1122 17.912 48.6402 17.64C49.1682 17.36 49.7642 17.22 50.4282 17.22ZM50.4282 18.996C50.0362 18.996 49.7042 19.14 49.4322 19.428C49.1682 19.708 49.0362 20.116 49.0362 20.652C49.0362 21.188 49.1682 21.596 49.4322 21.876C49.7042 22.156 50.0362 22.296 50.4282 22.296C50.8202 22.296 51.1482 22.156 51.4122 21.876C51.6762 21.596 51.8082 21.188 51.8082 20.652C51.8082 20.116 51.6762 19.708 51.4122 19.428C51.1482 19.14 50.8202 18.996 50.4282 18.996ZM63.3963 17.232C64.2203 17.232 64.8683 17.488 65.3403 18C65.8123 18.504 66.0483 19.208 66.0483 20.112V24H64.0083V20.352C64.0083 19.928 63.8923 19.6 63.6603 19.368C63.4363 19.128 63.1283 19.008 62.7363 19.008C62.3283 19.008 62.0043 19.136 61.7643 19.392C61.5323 19.64 61.4163 19.992 61.4163 20.448V24H59.3643V20.352C59.3643 19.928 59.2523 19.6 59.0283 19.368C58.8043 19.128 58.4963 19.008 58.1043 19.008C57.6963 19.008 57.3723 19.132 57.1323 19.38C56.8923 19.628 56.7723 19.984 56.7723 20.448V24H54.7203V17.304H56.7723V18.444C56.9483 18.068 57.2163 17.772 57.5763 17.556C57.9443 17.34 58.3723 17.232 58.8603 17.232C59.3723 17.232 59.8243 17.352 60.2163 17.592C60.6083 17.824 60.9043 18.16 61.1043 18.6C61.3363 18.184 61.6523 17.852 62.0523 17.604C62.4603 17.356 62.9083 17.232 63.3963 17.232ZM73.5317 20.472C73.5317 20.64 73.5117 20.824 73.4717 21.024H68.8277C68.8517 21.528 68.9797 21.892 69.2117 22.116C69.4437 22.332 69.7397 22.44 70.0997 22.44C70.4037 22.44 70.6557 22.364 70.8557 22.212C71.0557 22.06 71.1877 21.864 71.2517 21.624H73.4237C73.3357 22.096 73.1437 22.52 72.8477 22.896C72.5517 23.264 72.1757 23.556 71.7197 23.772C71.2637 23.98 70.7557 24.084 70.1957 24.084C69.5397 24.084 68.9557 23.948 68.4437 23.676C67.9397 23.396 67.5437 22.996 67.2557 22.476C66.9677 21.956 66.8237 21.348 66.8237 20.652C66.8237 19.948 66.9637 19.34 67.2437 18.828C67.5317 18.308 67.9317 17.912 68.4437 17.64C68.9557 17.36 69.5397 17.22 70.1957 17.22C70.8597 17.22 71.4437 17.356 71.9477 17.628C72.4517 17.9 72.8397 18.284 73.1117 18.78C73.3917 19.268 73.5317 19.832 73.5317 20.472ZM71.4557 20.16C71.4637 19.72 71.3437 19.392 71.0957 19.176C70.8557 18.952 70.5557 18.84 70.1957 18.84C69.8197 18.84 69.5077 18.952 69.2597 19.176C69.0117 19.4 68.8717 19.728 68.8397 20.16H71.4557ZM76.4134 18.564C76.6694 18.156 76.9974 17.832 77.3974 17.592C77.8054 17.352 78.2454 17.232 78.7174 17.232V19.428H78.1294C77.5854 19.428 77.1614 19.544 76.8574 19.776C76.5614 20.008 76.4134 20.4 76.4134 20.952V24H74.3614V17.304H76.4134V18.564ZM86.7545 22.452H83.5745L83.0465 24H80.8865L83.9945 15.576H86.3585L89.4665 24H87.2825L86.7545 22.452ZM86.2265 20.892L85.1705 17.772L84.1025 20.892H86.2265ZM96.6842 17.304V24H94.6202V22.788C94.4282 23.18 94.1402 23.492 93.7562 23.724C93.3802 23.956 92.9402 24.072 92.4362 24.072C91.6682 24.072 91.0562 23.816 90.6002 23.304C90.1522 22.792 89.9282 22.088 89.9282 21.192V17.304H91.9682V20.94C91.9682 21.396 92.0842 21.752 92.3162 22.008C92.5562 22.256 92.8762 22.38 93.2762 22.38C93.6922 22.38 94.0202 22.248 94.2602 21.984C94.5002 21.72 94.6202 21.344 94.6202 20.856V17.304H96.6842ZM101.65 22.236V24H100.726C99.9424 24 99.3304 23.808 98.8904 23.424C98.4584 23.032 98.2424 22.388 98.2424 21.492V19.032H97.3424V17.304H98.2424V15.66H100.294V17.304H101.638V19.032H100.294V21.528C100.294 21.792 100.346 21.976 100.45 22.08C100.562 22.184 100.746 22.236 101.002 22.236H101.65ZM106.812 17.232C107.58 17.232 108.188 17.488 108.636 18C109.092 18.512 109.32 19.216 109.32 20.112V24H107.268V20.352C107.268 19.904 107.148 19.556 106.908 19.308C106.676 19.052 106.364 18.924 105.972 18.924C105.556 18.924 105.224 19.056 104.976 19.32C104.736 19.584 104.616 19.96 104.616 20.448V24H102.564V15.12H104.616V18.528C104.808 18.128 105.092 17.812 105.468 17.58C105.852 17.348 106.3 17.232 106.812 17.232ZM116.793 20.472C116.793 20.64 116.773 20.824 116.733 21.024H112.089C112.113 21.528 112.241 21.892 112.473 22.116C112.705 22.332 113.001 22.44 113.361 22.44C113.665 22.44 113.917 22.364 114.117 22.212C114.317 22.06 114.449 21.864 114.513 21.624H116.685C116.597 22.096 116.405 22.52 116.109 22.896C115.813 23.264 115.437 23.556 114.981 23.772C114.525 23.98 114.017 24.084 113.457 24.084C112.801 24.084 112.217 23.948 111.705 23.676C111.201 23.396 110.805 22.996 110.517 22.476C110.229 21.956 110.085 21.348 110.085 20.652C110.085 19.948 110.225 19.34 110.505 18.828C110.793 18.308 111.193 17.912 111.705 17.64C112.217 17.36 112.801 17.22 113.457 17.22C114.121 17.22 114.705 17.356 115.209 17.628C115.713 17.9 116.101 18.284 116.373 18.78C116.653 19.268 116.793 19.832 116.793 20.472ZM114.717 20.16C114.725 19.72 114.605 19.392 114.357 19.176C114.117 18.952 113.817 18.84 113.457 18.84C113.081 18.84 112.769 18.952 112.521 19.176C112.273 19.4 112.133 19.728 112.101 20.16H114.717ZM121.871 17.232C122.639 17.232 123.247 17.488 123.695 18C124.151 18.512 124.379 19.216 124.379 20.112V24H122.327V20.352C122.327 19.904 122.207 19.556 121.967 19.308C121.735 19.052 121.423 18.924 121.031 18.924C120.615 18.924 120.283 19.056 120.035 19.32C119.795 19.584 119.675 19.96 119.675 20.448V24H117.623V17.304H119.675V18.528C119.867 18.128 120.151 17.812 120.527 17.58C120.911 17.348 121.359 17.232 121.871 17.232ZM129.284 22.236V24H128.36C127.576 24 126.964 23.808 126.524 23.424C126.092 23.032 125.876 22.388 125.876 21.492V19.032H124.976V17.304H125.876V15.66H127.928V17.304H129.272V19.032H127.928V21.528C127.928 21.792 127.98 21.976 128.084 22.08C128.196 22.184 128.38 22.236 128.636 22.236H129.284ZM130.005 15.42C130.005 15.108 130.117 14.852 130.341 14.652C130.565 14.444 130.861 14.34 131.229 14.34C131.597 14.34 131.893 14.444 132.117 14.652C132.341 14.852 132.453 15.108 132.453 15.42C132.453 15.724 132.341 15.98 132.117 16.188C131.893 16.388 131.597 16.488 131.229 16.488C130.861 16.488 130.565 16.388 130.341 16.188C130.117 15.98 130.005 15.724 130.005 15.42ZM132.249 17.304V24H130.197V17.304H132.249ZM136.45 17.22C137.314 17.22 138.038 17.46 138.622 17.94C139.206 18.412 139.574 19.064 139.726 19.896H137.554C137.49 19.608 137.358 19.384 137.158 19.224C136.958 19.064 136.706 18.984 136.402 18.984C136.042 18.984 135.746 19.128 135.514 19.416C135.282 19.696 135.166 20.108 135.166 20.652C135.166 21.196 135.282 21.612 135.514 21.9C135.746 22.18 136.042 22.32 136.402 22.32C136.706 22.32 136.958 22.24 137.158 22.08C137.358 21.92 137.49 21.696 137.554 21.408H139.726C139.574 22.24 139.206 22.896 138.622 23.376C138.038 23.848 137.314 24.084 136.45 24.084C135.794 24.084 135.21 23.948 134.698 23.676C134.194 23.396 133.798 22.996 133.51 22.476C133.222 21.956 133.078 21.348 133.078 20.652C133.078 19.948 133.218 19.34 133.498 18.828C133.786 18.308 134.186 17.912 134.698 17.64C135.21 17.36 135.794 17.22 136.45 17.22ZM143.101 17.22C143.613 17.22 144.053 17.336 144.421 17.568C144.789 17.8 145.061 18.116 145.237 18.516V17.304H147.277V24H145.237V22.788C145.061 23.188 144.789 23.504 144.421 23.736C144.053 23.968 143.613 24.084 143.101 24.084C142.549 24.084 142.053 23.948 141.613 23.676C141.181 23.396 140.837 22.996 140.581 22.476C140.333 21.956 140.209 21.348 140.209 20.652C140.209 19.948 140.333 19.34 140.581 18.828C140.837 18.308 141.181 17.912 141.613 17.64C142.053 17.36 142.549 17.22 143.101 17.22ZM143.761 19.02C143.321 19.02 142.965 19.164 142.693 19.452C142.429 19.74 142.297 20.14 142.297 20.652C142.297 21.164 142.429 21.564 142.693 21.852C142.965 22.14 143.321 22.284 143.761 22.284C144.193 22.284 144.545 22.136 144.817 21.84C145.097 21.544 145.237 21.148 145.237 20.652C145.237 20.148 145.097 19.752 144.817 19.464C144.545 19.168 144.193 19.02 143.761 19.02ZM152.242 22.236V24H151.318C150.534 24 149.922 23.808 149.482 23.424C149.05 23.032 148.834 22.388 148.834 21.492V19.032H147.934V17.304H148.834V15.66H150.886V17.304H152.23V19.032H150.886V21.528C150.886 21.792 150.938 21.976 151.042 22.08C151.154 22.184 151.338 22.236 151.594 22.236H152.242ZM152.963 15.42C152.963 15.108 153.075 14.852 153.299 14.652C153.523 14.444 153.819 14.34 154.187 14.34C154.555 14.34 154.851 14.444 155.075 14.652C155.299 14.852 155.411 15.108 155.411 15.42C155.411 15.724 155.299 15.98 155.075 16.188C154.851 16.388 154.555 16.488 154.187 16.488C153.819 16.488 153.523 16.388 153.299 16.188C153.075 15.98 152.963 15.724 152.963 15.42ZM155.207 17.304V24H153.155V17.304H155.207ZM159.516 17.22C160.18 17.22 160.772 17.36 161.292 17.64C161.82 17.912 162.232 18.308 162.528 18.828C162.832 19.348 162.984 19.956 162.984 20.652C162.984 21.348 162.832 21.956 162.528 22.476C162.232 22.996 161.82 23.396 161.292 23.676C160.772 23.948 160.18 24.084 159.516 24.084C158.852 24.084 158.256 23.948 157.728 23.676C157.2 23.396 156.784 22.996 156.48 22.476C156.184 21.956 156.036 21.348 156.036 20.652C156.036 19.956 156.184 19.348 156.48 18.828C156.784 18.308 157.2 17.912 157.728 17.64C158.256 17.36 158.852 17.22 159.516 17.22ZM159.516 18.996C159.124 18.996 158.792 19.14 158.52 19.428C158.256 19.708 158.124 20.116 158.124 20.652C158.124 21.188 158.256 21.596 158.52 21.876C158.792 22.156 159.124 22.296 159.516 22.296C159.908 22.296 160.236 22.156 160.5 21.876C160.764 21.596 160.896 21.188 160.896 20.652C160.896 20.116 160.764 19.708 160.5 19.428C160.236 19.14 159.908 18.996 159.516 18.996ZM168.056 17.232C168.824 17.232 169.432 17.488 169.88 18C170.336 18.512 170.564 19.216 170.564 20.112V24H168.512V20.352C168.512 19.904 168.392 19.556 168.152 19.308C167.92 19.052 167.608 18.924 167.216 18.924C166.8 18.924 166.468 19.056 166.22 19.32C165.98 19.584 165.86 19.96 165.86 20.448V24H163.808V17.304H165.86V18.528C166.052 18.128 166.336 17.812 166.712 17.58C167.096 17.348 167.544 17.232 168.056 17.232Z" fill="#13172D"/>
<line x1="0.5" y1="-0.5" x2="120.5" y2="-0.5" transform="matrix(-1 0 0 1 257 79)" stroke="#7785FF" stroke-linecap="round"/>
<line x1="0.5" y1="-0.5" x2="39.5" y2="-0.5" transform="matrix(0 -1 -1 0 136 78)" stroke="#7785FF" stroke-linecap="round"/>
<g filter="url(#filter0_d)">
<circle r="5" transform="matrix(-1 0 0 1 136 36)" fill="white"/>
</g>
<circle r="4" transform="matrix(-1 0 0 1 136 36)" fill="#7785FF"/>
<g filter="url(#filter1_d)">
<circle r="5" transform="matrix(-1 0 0 1 261 79)" fill="white"/>
</g>
<circle r="4" transform="matrix(-1 0 0 1 261 79)" fill="#7785FF"/>
<defs>
<filter id="filter0_d" x="123" y="21" width="30" height="30" filterUnits="userSpaceOnUse" color-interpolation-filters="sRGB">
<feFlood flood-opacity="0" result="BackgroundImageFix"/>
<feColorMatrix in="SourceAlpha" type="matrix" values="0 0 0 0 0 0 0 0 0 0 0 0 0 0 0 0 0 0 127 0" result="hardAlpha"/>
<feOffset dx="2"/>
<feGaussianBlur stdDeviation="5"/>
<feColorMatrix type="matrix" values="0 0 0 0 0 0 0 0 0 0.0156863 0 0 0 0 0.156863 0 0 0 0.25 0"/>
<feBlend mode="normal" in2="BackgroundImageFix" result="effect1_dropShadow"/>
<feBlend mode="normal" in="SourceGraphic" in2="effect1_dropShadow" result="shape"/>
</filter>
<filter id="filter1_d" x="248" y="64" width="30" height="30" filterUnits="userSpaceOnUse" color-interpolation-filters="sRGB">
<feFlood flood-opacity="0" result="BackgroundImageFix"/>
<feColorMatrix in="SourceAlpha" type="matrix" values="0 0 0 0 0 0 0 0 0 0 0 0 0 0 0 0 0 0 127 0" result="hardAlpha"/>
<feOffset dx="2"/>
<feGaussianBlur stdDeviation="5"/>
<feColorMatrix type="matrix" values="0 0 0 0 0 0 0 0 0 0.0156863 0 0 0 0 0.156863 0 0 0 0.25 0"/>
<feBlend mode="normal" in2="BackgroundImageFix" result="effect1_dropShadow"/>
<feBlend mode="normal" in="SourceGraphic" in2="effect1_dropShadow" result="shape"/>
</filter>
</defs>
</svg>
