<svg width="297" height="156" viewBox="0 0 297 156" fill="none" xmlns="http://www.w3.org/2000/svg">
<rect x="97.5" y="53.5" width="199" height="39" rx="19.5" stroke="#FFD216" stroke-dasharray="2 2"/>
<rect x="97.5" y="53.5" width="199" height="39" rx="19.5" stroke="url(#paint0_linear)" stroke-dasharray="2 2"/>
<rect x="102" y="58" width="190" height="30" rx="15" fill="url(#paint1_linear)"/>
<path d="M120.269 68.432C121.349 68.432 122.241 68.716 122.945 69.284C123.657 69.852 124.117 70.62 124.325 71.588H122.153C121.993 71.196 121.745 70.888 121.409 70.664C121.081 70.44 120.689 70.328 120.233 70.328C119.633 70.328 119.149 70.548 118.781 70.988C118.413 71.428 118.229 72.016 118.229 72.752C118.229 73.488 118.413 74.076 118.781 74.516C119.149 74.948 119.633 75.164 120.233 75.164C120.689 75.164 121.081 75.052 121.409 74.828C121.745 74.604 121.993 74.3 122.153 73.916H124.325C124.117 74.876 123.657 75.644 122.945 76.22C122.241 76.788 121.349 77.072 120.269 77.072C119.445 77.072 118.721 76.892 118.097 76.532C117.473 76.164 116.989 75.652 116.645 74.996C116.309 74.34 116.141 73.592 116.141 72.752C116.141 71.912 116.309 71.164 116.645 70.508C116.989 69.852 117.473 69.344 118.097 68.984C118.721 68.616 119.445 68.432 120.269 68.432ZM131.895 70.304V77H129.831V75.788C129.639 76.18 129.351 76.492 128.967 76.724C128.591 76.956 128.151 77.072 127.647 77.072C126.879 77.072 126.267 76.816 125.811 76.304C125.363 75.792 125.139 75.088 125.139 74.192V70.304H127.179V73.94C127.179 74.396 127.295 74.752 127.527 75.008C127.767 75.256 128.087 75.38 128.487 75.38C128.903 75.38 129.231 75.248 129.471 74.984C129.711 74.72 129.831 74.344 129.831 73.856V70.304H131.895ZM135.505 70.22C136.353 70.22 137.029 70.432 137.533 70.856C138.045 71.28 138.365 71.84 138.493 72.536H136.573C136.517 72.264 136.389 72.052 136.189 71.9C135.997 71.74 135.753 71.66 135.457 71.66C135.225 71.66 135.049 71.712 134.929 71.816C134.809 71.912 134.749 72.052 134.749 72.236C134.749 72.444 134.857 72.6 135.073 72.704C135.297 72.808 135.645 72.912 136.117 73.016C136.629 73.136 137.049 73.26 137.377 73.388C137.705 73.508 137.989 73.708 138.229 73.988C138.469 74.268 138.589 74.644 138.589 75.116C138.589 75.5 138.485 75.84 138.277 76.136C138.069 76.432 137.769 76.664 137.377 76.832C136.985 77 136.521 77.084 135.985 77.084C135.081 77.084 134.357 76.884 133.813 76.484C133.269 76.084 132.937 75.512 132.817 74.768H134.797C134.829 75.056 134.949 75.276 135.157 75.428C135.373 75.58 135.649 75.656 135.985 75.656C136.217 75.656 136.393 75.604 136.513 75.5C136.633 75.388 136.693 75.244 136.693 75.068C136.693 74.836 136.581 74.672 136.357 74.576C136.141 74.472 135.785 74.364 135.289 74.252C134.793 74.148 134.385 74.036 134.065 73.916C133.745 73.796 133.469 73.604 133.237 73.34C133.005 73.068 132.889 72.7 132.889 72.236C132.889 71.636 133.117 71.152 133.573 70.784C134.029 70.408 134.673 70.22 135.505 70.22ZM143.277 75.236V77H142.353C141.569 77 140.957 76.808 140.517 76.424C140.085 76.032 139.869 75.388 139.869 74.492V72.032H138.969V70.304H139.869V68.66H141.921V70.304H143.265V72.032H141.921V74.528C141.921 74.792 141.973 74.976 142.077 75.08C142.189 75.184 142.373 75.236 142.629 75.236H143.277ZM147.322 70.22C147.986 70.22 148.578 70.36 149.098 70.64C149.626 70.912 150.038 71.308 150.334 71.828C150.638 72.348 150.79 72.956 150.79 73.652C150.79 74.348 150.638 74.956 150.334 75.476C150.038 75.996 149.626 76.396 149.098 76.676C148.578 76.948 147.986 77.084 147.322 77.084C146.658 77.084 146.062 76.948 145.534 76.676C145.006 76.396 144.59 75.996 144.286 75.476C143.99 74.956 143.842 74.348 143.842 73.652C143.842 72.956 143.99 72.348 144.286 71.828C144.59 71.308 145.006 70.912 145.534 70.64C146.062 70.36 146.658 70.22 147.322 70.22ZM147.322 71.996C146.93 71.996 146.598 72.14 146.326 72.428C146.062 72.708 145.93 73.116 145.93 73.652C145.93 74.188 146.062 74.596 146.326 74.876C146.598 75.156 146.93 75.296 147.322 75.296C147.714 75.296 148.042 75.156 148.306 74.876C148.57 74.596 148.702 74.188 148.702 73.652C148.702 73.116 148.57 72.708 148.306 72.428C148.042 72.14 147.714 71.996 147.322 71.996ZM160.291 70.232C161.115 70.232 161.763 70.488 162.235 71C162.707 71.504 162.943 72.208 162.943 73.112V77H160.903V73.352C160.903 72.928 160.787 72.6 160.555 72.368C160.331 72.128 160.023 72.008 159.631 72.008C159.223 72.008 158.899 72.136 158.659 72.392C158.427 72.64 158.311 72.992 158.311 73.448V77H156.259V73.352C156.259 72.928 156.147 72.6 155.923 72.368C155.699 72.128 155.391 72.008 154.999 72.008C154.591 72.008 154.267 72.132 154.027 72.38C153.787 72.628 153.667 72.984 153.667 73.448V77H151.615V70.304H153.667V71.444C153.843 71.068 154.111 70.772 154.471 70.556C154.839 70.34 155.267 70.232 155.755 70.232C156.267 70.232 156.719 70.352 157.111 70.592C157.503 70.824 157.799 71.16 157.999 71.6C158.231 71.184 158.547 70.852 158.947 70.604C159.355 70.356 159.803 70.232 160.291 70.232ZM170.426 73.472C170.426 73.64 170.406 73.824 170.366 74.024H165.722C165.746 74.528 165.874 74.892 166.106 75.116C166.338 75.332 166.634 75.44 166.994 75.44C167.298 75.44 167.55 75.364 167.75 75.212C167.95 75.06 168.082 74.864 168.146 74.624H170.318C170.23 75.096 170.038 75.52 169.742 75.896C169.446 76.264 169.07 76.556 168.614 76.772C168.158 76.98 167.65 77.084 167.09 77.084C166.434 77.084 165.85 76.948 165.338 76.676C164.834 76.396 164.438 75.996 164.15 75.476C163.862 74.956 163.718 74.348 163.718 73.652C163.718 72.948 163.858 72.34 164.138 71.828C164.426 71.308 164.826 70.912 165.338 70.64C165.85 70.36 166.434 70.22 167.09 70.22C167.754 70.22 168.338 70.356 168.842 70.628C169.346 70.9 169.734 71.284 170.006 71.78C170.286 72.268 170.426 72.832 170.426 73.472ZM168.35 73.16C168.358 72.72 168.238 72.392 167.99 72.176C167.75 71.952 167.45 71.84 167.09 71.84C166.714 71.84 166.402 71.952 166.154 72.176C165.906 72.4 165.766 72.728 165.734 73.16H168.35ZM173.308 71.564C173.564 71.156 173.892 70.832 174.292 70.592C174.7 70.352 175.14 70.232 175.612 70.232V72.428H175.024C174.48 72.428 174.056 72.544 173.752 72.776C173.456 73.008 173.308 73.4 173.308 73.952V77H171.256V70.304H173.308V71.564ZM183.481 72.632C183.993 72.752 184.397 73 184.693 73.376C184.997 73.752 185.149 74.188 185.149 74.684C185.149 75.412 184.905 75.98 184.417 76.388C183.937 76.796 183.245 77 182.341 77H178.393V68.516H182.245C183.109 68.516 183.777 68.704 184.249 69.08C184.721 69.456 184.957 69.992 184.957 70.688C184.957 71.2 184.821 71.628 184.549 71.972C184.277 72.308 183.921 72.528 183.481 72.632ZM180.445 71.984H181.789C182.501 71.984 182.857 71.68 182.857 71.072C182.857 70.464 182.493 70.16 181.765 70.16H180.445V71.984ZM181.909 75.332C182.669 75.332 183.049 75.02 183.049 74.396C183.049 74.092 182.949 73.856 182.749 73.688C182.549 73.512 182.265 73.424 181.897 73.424H180.445V75.332H181.909ZM188.045 71.564C188.301 71.156 188.629 70.832 189.029 70.592C189.437 70.352 189.877 70.232 190.349 70.232V72.428H189.761C189.217 72.428 188.793 72.544 188.489 72.776C188.193 73.008 188.045 73.4 188.045 73.952V77H185.993V70.304H188.045V71.564ZM194.1 70.22C194.764 70.22 195.356 70.36 195.876 70.64C196.404 70.912 196.816 71.308 197.112 71.828C197.416 72.348 197.568 72.956 197.568 73.652C197.568 74.348 197.416 74.956 197.112 75.476C196.816 75.996 196.404 76.396 195.876 76.676C195.356 76.948 194.764 77.084 194.1 77.084C193.436 77.084 192.84 76.948 192.312 76.676C191.784 76.396 191.368 75.996 191.064 75.476C190.768 74.956 190.62 74.348 190.62 73.652C190.62 72.956 190.768 72.348 191.064 71.828C191.368 71.308 191.784 70.912 192.312 70.64C192.84 70.36 193.436 70.22 194.1 70.22ZM194.1 71.996C193.708 71.996 193.376 72.14 193.104 72.428C192.84 72.708 192.708 73.116 192.708 73.652C192.708 74.188 192.84 74.596 193.104 74.876C193.376 75.156 193.708 75.296 194.1 75.296C194.492 75.296 194.82 75.156 195.084 74.876C195.348 74.596 195.48 74.188 195.48 73.652C195.48 73.116 195.348 72.708 195.084 72.428C194.82 72.14 194.492 71.996 194.1 71.996ZM208.184 70.304L206.468 77H204.176L202.964 72.512L201.74 77H199.448L197.732 70.304H199.784L200.672 75.128L201.92 70.304H204.104L205.388 75.14L206.276 70.304H208.184ZM211.123 70.22C211.971 70.22 212.647 70.432 213.151 70.856C213.663 71.28 213.983 71.84 214.111 72.536H212.191C212.135 72.264 212.007 72.052 211.807 71.9C211.615 71.74 211.371 71.66 211.075 71.66C210.843 71.66 210.667 71.712 210.547 71.816C210.427 71.912 210.367 72.052 210.367 72.236C210.367 72.444 210.475 72.6 210.691 72.704C210.915 72.808 211.263 72.912 211.735 73.016C212.247 73.136 212.667 73.26 212.995 73.388C213.323 73.508 213.607 73.708 213.847 73.988C214.087 74.268 214.207 74.644 214.207 75.116C214.207 75.5 214.103 75.84 213.895 76.136C213.687 76.432 213.387 76.664 212.995 76.832C212.603 77 212.139 77.084 211.603 77.084C210.699 77.084 209.975 76.884 209.431 76.484C208.887 76.084 208.555 75.512 208.435 74.768H210.415C210.447 75.056 210.567 75.276 210.775 75.428C210.991 75.58 211.267 75.656 211.603 75.656C211.835 75.656 212.011 75.604 212.131 75.5C212.251 75.388 212.311 75.244 212.311 75.068C212.311 74.836 212.199 74.672 211.975 74.576C211.759 74.472 211.403 74.364 210.907 74.252C210.411 74.148 210.003 74.036 209.683 73.916C209.363 73.796 209.087 73.604 208.855 73.34C208.623 73.068 208.507 72.7 208.507 72.236C208.507 71.636 208.735 71.152 209.191 70.784C209.647 70.408 210.291 70.22 211.123 70.22ZM214.911 68.42C214.911 68.108 215.023 67.852 215.247 67.652C215.471 67.444 215.767 67.34 216.135 67.34C216.503 67.34 216.799 67.444 217.023 67.652C217.247 67.852 217.359 68.108 217.359 68.42C217.359 68.724 217.247 68.98 217.023 69.188C216.799 69.388 216.503 69.488 216.135 69.488C215.767 69.488 215.471 69.388 215.247 69.188C215.023 68.98 214.911 68.724 214.911 68.42ZM217.155 70.304V77H215.103V70.304H217.155ZM222.58 70.232C223.348 70.232 223.956 70.488 224.404 71C224.86 71.512 225.088 72.216 225.088 73.112V77H223.036V73.352C223.036 72.904 222.916 72.556 222.676 72.308C222.444 72.052 222.132 71.924 221.74 71.924C221.324 71.924 220.992 72.056 220.744 72.32C220.504 72.584 220.384 72.96 220.384 73.448V77H218.332V70.304H220.384V71.528C220.576 71.128 220.86 70.812 221.236 70.58C221.62 70.348 222.068 70.232 222.58 70.232ZM228.745 70.22C229.257 70.22 229.697 70.336 230.065 70.568C230.433 70.8 230.705 71.116 230.881 71.516V70.304H232.921V76.964C232.921 77.588 232.801 78.148 232.561 78.644C232.321 79.148 231.953 79.548 231.457 79.844C230.961 80.14 230.345 80.288 229.609 80.288C228.601 80.288 227.793 80.048 227.185 79.568C226.585 79.096 226.225 78.452 226.105 77.636H228.133C228.197 77.908 228.341 78.12 228.565 78.272C228.797 78.424 229.097 78.5 229.465 78.5C229.889 78.5 230.229 78.376 230.485 78.128C230.749 77.888 230.881 77.5 230.881 76.964V75.788C230.705 76.188 230.433 76.504 230.065 76.736C229.697 76.968 229.257 77.084 228.745 77.084C228.193 77.084 227.697 76.948 227.257 76.676C226.825 76.396 226.481 75.996 226.225 75.476C225.977 74.956 225.853 74.348 225.853 73.652C225.853 72.948 225.977 72.34 226.225 71.828C226.481 71.308 226.825 70.912 227.257 70.64C227.697 70.36 228.193 70.22 228.745 70.22ZM229.405 72.02C228.965 72.02 228.609 72.164 228.337 72.452C228.073 72.74 227.941 73.14 227.941 73.652C227.941 74.164 228.073 74.564 228.337 74.852C228.609 75.14 228.965 75.284 229.405 75.284C229.837 75.284 230.189 75.136 230.461 74.84C230.741 74.544 230.881 74.148 230.881 73.652C230.881 73.148 230.741 72.752 230.461 72.464C230.189 72.168 229.837 72.02 229.405 72.02ZM238.308 74.024V77H236.256V68.516H239.58C240.588 68.516 241.356 68.768 241.884 69.272C242.412 69.768 242.676 70.44 242.676 71.288C242.676 71.816 242.556 72.288 242.316 72.704C242.084 73.112 241.736 73.436 241.272 73.676C240.808 73.908 240.244 74.024 239.58 74.024H238.308ZM239.352 72.38C240.176 72.38 240.588 72.016 240.588 71.288C240.588 70.544 240.176 70.172 239.352 70.172H238.308V72.38H239.352ZM245.99 70.22C246.502 70.22 246.942 70.336 247.31 70.568C247.678 70.8 247.95 71.116 248.126 71.516V70.304H250.166V77H248.126V75.788C247.95 76.188 247.678 76.504 247.31 76.736C246.942 76.968 246.502 77.084 245.99 77.084C245.438 77.084 244.942 76.948 244.502 76.676C244.07 76.396 243.726 75.996 243.47 75.476C243.222 74.956 243.098 74.348 243.098 73.652C243.098 72.948 243.222 72.34 243.47 71.828C243.726 71.308 244.07 70.912 244.502 70.64C244.942 70.36 245.438 70.22 245.99 70.22ZM246.65 72.02C246.21 72.02 245.854 72.164 245.582 72.452C245.318 72.74 245.186 73.14 245.186 73.652C245.186 74.164 245.318 74.564 245.582 74.852C245.854 75.14 246.21 75.284 246.65 75.284C247.082 75.284 247.434 75.136 247.706 74.84C247.986 74.544 248.126 74.148 248.126 73.652C248.126 73.148 247.986 72.752 247.706 72.464C247.434 72.168 247.082 72.02 246.65 72.02ZM255.131 75.236V77H254.207C253.423 77 252.811 76.808 252.371 76.424C251.939 76.032 251.723 75.388 251.723 74.492V72.032H250.823V70.304H251.723V68.66H253.775V70.304H255.119V72.032H253.775V74.528C253.775 74.792 253.827 74.976 253.931 75.08C254.043 75.184 254.227 75.236 254.483 75.236H255.131ZM259.836 75.236V77H258.912C258.128 77 257.516 76.808 257.076 76.424C256.644 76.032 256.428 75.388 256.428 74.492V72.032H255.528V70.304H256.428V68.66H258.48V70.304H259.824V72.032H258.48V74.528C258.48 74.792 258.532 74.976 258.636 75.08C258.748 75.184 258.932 75.236 259.188 75.236H259.836ZM267.109 73.472C267.109 73.64 267.089 73.824 267.049 74.024H262.405C262.429 74.528 262.557 74.892 262.789 75.116C263.021 75.332 263.317 75.44 263.677 75.44C263.981 75.44 264.233 75.364 264.433 75.212C264.633 75.06 264.765 74.864 264.829 74.624H267.001C266.913 75.096 266.721 75.52 266.425 75.896C266.129 76.264 265.753 76.556 265.297 76.772C264.841 76.98 264.333 77.084 263.773 77.084C263.117 77.084 262.533 76.948 262.021 76.676C261.517 76.396 261.121 75.996 260.833 75.476C260.545 74.956 260.401 74.348 260.401 73.652C260.401 72.948 260.541 72.34 260.821 71.828C261.109 71.308 261.509 70.912 262.021 70.64C262.533 70.36 263.117 70.22 263.773 70.22C264.437 70.22 265.021 70.356 265.525 70.628C266.029 70.9 266.417 71.284 266.689 71.78C266.969 72.268 267.109 72.832 267.109 73.472ZM265.033 73.16C265.041 72.72 264.921 72.392 264.673 72.176C264.433 71.952 264.133 71.84 263.773 71.84C263.397 71.84 263.085 71.952 262.837 72.176C262.589 72.4 262.449 72.728 262.417 73.16H265.033ZM269.991 71.564C270.247 71.156 270.575 70.832 270.975 70.592C271.383 70.352 271.823 70.232 272.295 70.232V72.428H271.707C271.163 72.428 270.739 72.544 270.435 72.776C270.139 73.008 269.991 73.4 269.991 73.952V77H267.939V70.304H269.991V71.564ZM277.162 70.232C277.93 70.232 278.538 70.488 278.986 71C279.442 71.512 279.67 72.216 279.67 73.112V77H277.618V73.352C277.618 72.904 277.498 72.556 277.258 72.308C277.026 72.052 276.714 71.924 276.322 71.924C275.906 71.924 275.574 72.056 275.326 72.32C275.086 72.584 274.966 72.96 274.966 73.448V77H272.914V70.304H274.966V71.528C275.158 71.128 275.442 70.812 275.818 70.58C276.202 70.348 276.65 70.232 277.162 70.232Z" fill="#13172D"/>
<line x1="41.5" y1="14.5" x2="161.5" y2="14.5" stroke="#FFD216" stroke-linecap="round"/>
<line x1="41.5" y1="14.5" x2="161.5" y2="14.5" stroke="url(#paint2_linear)" stroke-linecap="round"/>
<line x1="161.5" y1="53.5" x2="161.5" y2="14.5" stroke="#FFD216" stroke-linecap="round"/>
<line x1="161.5" y1="53.5" x2="161.5" y2="14.5" stroke="url(#paint3_linear)" stroke-linecap="round"/>
<g filter="url(#filter0_d)">
<circle cx="37" cy="15" r="5" fill="white"/>
</g>
<circle cx="37" cy="15" r="4" fill="url(#paint4_linear)"/>
<g filter="url(#filter1_d)">
<circle cx="162" cy="53" r="5" fill="white"/>
</g>
<circle cx="162" cy="53" r="4" fill="url(#paint5_linear)"/>
<line x1="17.5" y1="140.5" x2="162.5" y2="140.5" stroke="url(#paint6_linear)" stroke-linecap="round"/>
<line x1="162.5" y1="94.5" x2="162.5" y2="140.5" stroke="url(#paint7_linear)" stroke-linecap="round"/>
<g filter="url(#filter2_d)">
<circle cx="13" cy="141" r="5" fill="white"/>
</g>
<circle cx="13" cy="141" r="4" fill="url(#paint8_linear)"/>
<g filter="url(#filter3_d)">
<circle cx="162" cy="91" r="5" fill="white"/>
</g>
<circle cx="162" cy="91" r="4" fill="url(#paint9_linear)"/>
<defs>
<filter id="filter0_d" x="24" y="0" width="30" height="30" filterUnits="userSpaceOnUse" color-interpolation-filters="sRGB">
<feFlood flood-opacity="0" result="BackgroundImageFix"/>
<feColorMatrix in="SourceAlpha" type="matrix" values="0 0 0 0 0 0 0 0 0 0 0 0 0 0 0 0 0 0 127 0" result="hardAlpha"/>
<feOffset dx="2"/>
<feGaussianBlur stdDeviation="5"/>
<feColorMatrix type="matrix" values="0 0 0 0 0 0 0 0 0 0.0156863 0 0 0 0 0.156863 0 0 0 0.25 0"/>
<feBlend mode="normal" in2="BackgroundImageFix" result="effect1_dropShadow"/>
<feBlend mode="normal" in="SourceGraphic" in2="effect1_dropShadow" result="shape"/>
</filter>
<filter id="filter1_d" x="149" y="38" width="30" height="30" filterUnits="userSpaceOnUse" color-interpolation-filters="sRGB">
<feFlood flood-opacity="0" result="BackgroundImageFix"/>
<feColorMatrix in="SourceAlpha" type="matrix" values="0 0 0 0 0 0 0 0 0 0 0 0 0 0 0 0 0 0 127 0" result="hardAlpha"/>
<feOffset dx="2"/>
<feGaussianBlur stdDeviation="5"/>
<feColorMatrix type="matrix" values="0 0 0 0 0 0 0 0 0 0.0156863 0 0 0 0 0.156863 0 0 0 0.25 0"/>
<feBlend mode="normal" in2="BackgroundImageFix" result="effect1_dropShadow"/>
<feBlend mode="normal" in="SourceGraphic" in2="effect1_dropShadow" result="shape"/>
</filter>
<filter id="filter2_d" x="0" y="126" width="30" height="30" filterUnits="userSpaceOnUse" color-interpolation-filters="sRGB">
<feFlood flood-opacity="0" result="BackgroundImageFix"/>
<feColorMatrix in="SourceAlpha" type="matrix" values="0 0 0 0 0 0 0 0 0 0 0 0 0 0 0 0 0 0 127 0" result="hardAlpha"/>
<feOffset dx="2"/>
<feGaussianBlur stdDeviation="5"/>
<feColorMatrix type="matrix" values="0 0 0 0 0 0 0 0 0 0.0156863 0 0 0 0 0.156863 0 0 0 0.25 0"/>
<feBlend mode="normal" in2="BackgroundImageFix" result="effect1_dropShadow"/>
<feBlend mode="normal" in="SourceGraphic" in2="effect1_dropShadow" result="shape"/>
</filter>
<filter id="filter3_d" x="149" y="76" width="30" height="30" filterUnits="userSpaceOnUse" color-interpolation-filters="sRGB">
<feFlood flood-opacity="0" result="BackgroundImageFix"/>
<feColorMatrix in="SourceAlpha" type="matrix" values="0 0 0 0 0 0 0 0 0 0 0 0 0 0 0 0 0 0 127 0" result="hardAlpha"/>
<feOffset dx="2"/>
<feGaussianBlur stdDeviation="5"/>
<feColorMatrix type="matrix" values="0 0 0 0 0 0 0 0 0 0.0156863 0 0 0 0 0.156863 0 0 0 0.25 0"/>
<feBlend mode="normal" in2="BackgroundImageFix" result="effect1_dropShadow"/>
<feBlend mode="normal" in="SourceGraphic" in2="effect1_dropShadow" result="shape"/>
</filter>
<linearGradient id="paint0_linear" x1="297" y1="93" x2="281.615" y2="16.0769" gradientUnits="userSpaceOnUse">
<stop stop-color="#EDCE4D"/>
<stop offset="1" stop-color="#F09819"/>
</linearGradient>
<linearGradient id="paint1_linear" x1="292" y1="88" x2="282.757" y2="29.4595" gradientUnits="userSpaceOnUse">
<stop stop-color="#EDCE4D"/>
<stop offset="1" stop-color="#F09819"/>
</linearGradient>
<linearGradient id="paint2_linear" x1="162" y1="16" x2="161.983" y2="14.0001" gradientUnits="userSpaceOnUse">
<stop stop-color="#EDCE4D"/>
<stop offset="1" stop-color="#F09819"/>
</linearGradient>
<linearGradient id="paint3_linear" x1="163" y1="14" x2="161.001" y2="14.05" gradientUnits="userSpaceOnUse">
<stop stop-color="#EDCE4D"/>
<stop offset="1" stop-color="#F09819"/>
</linearGradient>
<linearGradient id="paint4_linear" x1="41" y1="19" x2="33" y2="11" gradientUnits="userSpaceOnUse">
<stop stop-color="#EDCE4D"/>
<stop offset="1" stop-color="#F09819"/>
</linearGradient>
<linearGradient id="paint5_linear" x1="166" y1="57" x2="158" y2="49" gradientUnits="userSpaceOnUse">
<stop stop-color="#EDCE4D"/>
<stop offset="1" stop-color="#F09819"/>
</linearGradient>
<linearGradient id="paint6_linear" x1="163" y1="142" x2="162.986" y2="140" gradientUnits="userSpaceOnUse">
<stop stop-color="#EDCE4D"/>
<stop offset="1" stop-color="#F09819"/>
</linearGradient>
<linearGradient id="paint7_linear" x1="161" y1="141" x2="162.999" y2="140.957" gradientUnits="userSpaceOnUse">
<stop stop-color="#EDCE4D"/>
<stop offset="1" stop-color="#F09819"/>
</linearGradient>
<linearGradient id="paint8_linear" x1="17" y1="145" x2="9" y2="137" gradientUnits="userSpaceOnUse">
<stop stop-color="#EDCE4D"/>
<stop offset="1" stop-color="#F09819"/>
</linearGradient>
<linearGradient id="paint9_linear" x1="166" y1="95" x2="158" y2="87" gradientUnits="userSpaceOnUse">
<stop stop-color="#EDCE4D"/>
<stop offset="1" stop-color="#F09819"/>
</linearGradient>
</defs>
</svg>
