<svg width="260" height="542" viewBox="0 0 260 542" fill="none" xmlns="http://www.w3.org/2000/svg">
<path fill-rule="evenodd" clip-rule="evenodd" d="M258.19 188.194V490.532C258.19 508.429 256.398 514.918 253.034 521.461C249.669 528.004 244.731 533.139 238.439 536.638C232.148 540.137 225.907 542 208.697 542H51.3028C34.093 542 27.8523 540.137 21.5607 536.638C15.269 533.139 10.3313 528.004 6.96646 521.461C3.60164 514.918 1.80974 508.429 1.80974 490.532V201.368C0.81025 201.368 0 200.525 0 199.486V163.102C0 162.062 0.81025 161.22 1.80974 161.22V151.81C0.81025 151.81 0 150.968 0 149.928V113.544C0 112.505 0.81025 111.662 1.80974 111.662V94.7245C0.81025 94.7245 0 93.882 0 92.8426V75.2778C0 74.2384 0.81025 73.3958 1.80974 73.3958V51.4676C1.80974 33.5712 3.60164 27.0815 6.96646 20.5389C10.3313 13.9962 15.269 8.8615 21.5607 5.36244C27.8523 1.86339 34.093 0 51.3028 0H208.697C225.907 0 232.148 1.86339 238.439 5.36244C244.731 8.8615 249.669 13.9962 253.034 20.5389C256.398 27.0815 258.19 33.5712 258.19 51.4676V124.836C259.19 124.836 260 125.678 260 126.718V186.312C260 187.352 259.19 188.194 258.19 188.194ZM16.2877 55.0782C16.2877 41.7277 16.2877 35.0525 18.7862 29.9533C20.984 25.4679 24.4908 21.8211 28.8041 19.5357C33.7077 16.9375 40.1269 16.9375 52.9652 16.9375L62.1346 16.9375C64.3568 16.9436 66.1955 18.7348 66.3563 21.0048C66.442 24.1245 67.021 26.4141 68.0373 28.3903C69.1414 30.5371 70.7616 32.222 72.826 33.3701C74.8905 34.5182 77.3106 35.1296 80.7233 35.1296H178.046C181.459 35.1296 183.879 34.5182 185.943 33.3701C188.008 32.222 189.628 30.5371 190.732 28.3903C191.747 26.4173 192.326 24.1319 192.413 21.02C192.566 18.7428 194.408 16.9436 196.635 16.9375L205.828 16.9375C218.667 16.9375 225.086 16.9375 229.989 19.5357C234.303 21.8211 237.81 25.4679 240.007 29.9533C242.506 35.0525 242.506 41.7277 242.506 55.0782V488.176C242.506 501.527 242.506 508.202 240.007 513.301C237.81 517.787 234.303 521.434 229.989 523.719C225.086 526.317 218.667 526.317 205.828 526.317H52.9652C40.1269 526.317 33.7077 526.317 28.8041 523.719C24.4908 521.434 20.984 517.787 18.7862 513.301C16.2877 508.202 16.2877 501.527 16.2877 488.176V55.0782Z" fill="white"/>
<path fill-rule="evenodd" clip-rule="evenodd" d="M149.299 25.0292C151.624 25.0292 153.509 23.2904 153.509 21.1455C153.509 19.0005 151.624 17.2617 149.299 17.2617C146.975 17.2617 145.09 19.0005 145.09 21.1455C145.09 23.2904 146.975 25.0292 149.299 25.0292Z" fill="#13172D"/>
<rect x="106" y="18.9258" width="31.2713" height="4.43858" rx="2.21929" fill="#13172D"/>
</svg>
