<svg width="44" height="44" viewBox="0 0 44 44" fill="none" xmlns="http://www.w3.org/2000/svg">
<path d="M22.1191 27V33" stroke="#F09819" stroke-width="3" stroke-miterlimit="10"/>
<path d="M22.1191 10.9998V16.9998" stroke="#F09819" stroke-width="3" stroke-miterlimit="10"/>
<path d="M22.1191 11C23.776 11 25.1191 9.65685 25.1191 8C25.1191 6.34315 23.776 5 22.1191 5C20.4623 5 19.1191 6.34315 19.1191 8C19.1191 9.65685 20.4623 11 22.1191 11Z" stroke="#F09819" stroke-width="3" stroke-miterlimit="10"/>
<path d="M22.1191 39C23.776 39 25.1191 37.6569 25.1191 36C25.1191 34.3431 23.776 33 22.1191 33C20.4623 33 19.1191 34.3431 19.1191 36C19.1191 37.6569 20.4623 39 22.1191 39Z" stroke="#F09819" stroke-width="3" stroke-miterlimit="10"/>
<path d="M26.4492 19.5L31.6492 16.5" stroke="#F09819" stroke-width="3" stroke-miterlimit="10"/>
<path d="M12.5996 27.5L17.7996 24.5" stroke="#F09819" stroke-width="3" stroke-miterlimit="10"/>
<path d="M10 31.9998C11.6569 31.9998 13 30.6566 13 28.9998C13 27.3429 11.6569 25.9998 10 25.9998C8.34315 25.9998 7 27.3429 7 28.9998C7 30.6566 8.34315 31.9998 10 31.9998Z" stroke="#F09819" stroke-width="3" stroke-miterlimit="10"/>
<path d="M34.25 18C35.9069 18 37.25 16.6569 37.25 15C37.25 13.3431 35.9069 12 34.25 12C32.5931 12 31.25 13.3431 31.25 15C31.25 16.6569 32.5931 18 34.25 18Z" stroke="#F09819" stroke-width="3" stroke-miterlimit="10"/>
<path d="M17.7996 19.5L12.5996 16.5" stroke="#F09819" stroke-width="3" stroke-miterlimit="10"/>
<path d="M31.6492 27.5L26.4492 24.5" stroke="#F09819" stroke-width="3" stroke-miterlimit="10"/>
<path d="M34.25 31.9998C35.9069 31.9998 37.25 30.6566 37.25 28.9998C37.25 27.3429 35.9069 25.9998 34.25 25.9998C32.5931 25.9998 31.25 27.3429 31.25 28.9998C31.25 30.6566 32.5931 31.9998 34.25 31.9998Z" stroke="#F09819" stroke-width="3" stroke-miterlimit="10"/>
<path d="M10 18C11.6569 18 13 16.6569 13 15C13 13.3431 11.6569 12 10 12C8.34315 12 7 13.3431 7 15C7 16.6569 8.34315 18 10 18Z" stroke="#F09819" stroke-width="3" stroke-miterlimit="10"/>
<path d="M22.1191 27C24.8806 27 27.1191 24.7614 27.1191 22C27.1191 19.2386 24.8806 17 22.1191 17C19.3577 17 17.1191 19.2386 17.1191 22C17.1191 24.7614 19.3577 27 22.1191 27Z" stroke="#F09819" stroke-width="3" stroke-miterlimit="10"/>
</svg>
