<svg width="40" height="40" viewBox="0 0 40 40" fill="none" xmlns="http://www.w3.org/2000/svg">
<path fill-rule="evenodd" clip-rule="evenodd" d="M5.23077 3H13.5385C15.32 3 16.7692 4.44923 16.7692 6.23077V14.5385C16.7692 16.32 15.32 17.7692 13.5385 17.7692H5.23077C3.44923 17.7692 2 16.32 2 14.5385V6.23077C2 4.44923 3.44923 3 5.23077 3ZM13.5385 15C13.7969 15 14 14.7969 14 14.5385V6.23077C14 5.97231 13.7969 5.76923 13.5385 5.76923H5.23077C4.97231 5.76923 4.76923 5.97231 4.76923 6.23077V14.5385C4.76923 14.7969 4.97231 15 5.23077 15H13.5385ZM26.4613 3H34.769C36.5506 3 37.9998 4.44923 37.9998 6.23077V14.5385C37.9998 16.32 36.5506 17.7692 34.769 17.7692H26.4613C24.6798 17.7692 23.2306 16.32 23.2306 14.5385V6.23077C23.2306 4.44923 24.6798 3 26.4613 3ZM34.769 15C35.0275 15 35.2306 14.7969 35.2306 14.5385V6.23077C35.2306 5.97231 35.0275 5.76923 34.769 5.76923H26.4613C26.2029 5.76923 25.9998 5.97231 25.9998 6.23077V14.5385C25.9998 14.7969 26.2029 15 26.4613 15H34.769ZM13.5385 24.2306H5.23077C3.44923 24.2306 2 25.6798 2 27.4613V35.769C2 37.5506 3.44923 38.9998 5.23077 38.9998H13.5385C15.32 38.9998 16.7692 37.5506 16.7692 35.769V27.4613C16.7692 25.6798 15.32 24.2306 13.5385 24.2306ZM14 35.769C14 36.0275 13.7969 36.2306 13.5385 36.2306H5.23077C4.97231 36.2306 4.76923 36.0275 4.76923 35.769V27.4613C4.76923 27.2029 4.97231 26.9998 5.23077 26.9998H13.5385C13.7969 26.9998 14 27.2029 14 27.4613V35.769ZM26.4613 24.2306H34.769C36.5506 24.2306 37.9998 25.6798 37.9998 27.4613V35.769C37.9998 37.5506 36.5506 38.9998 34.769 38.9998H26.4613C24.6798 38.9998 23.2306 37.5506 23.2306 35.769V27.4613C23.2306 25.6798 24.6798 24.2306 26.4613 24.2306ZM34.769 36.2306C35.0275 36.2306 35.2306 36.0275 35.2306 35.769V27.4613C35.2306 27.2029 35.0275 26.9998 34.769 26.9998H26.4613C26.2029 26.9998 25.9998 27.2029 25.9998 27.4613V35.769C25.9998 36.0275 26.2029 36.2306 26.4613 36.2306H34.769Z" fill="url(#paint0_linear)"/>
<defs>
<linearGradient id="paint0_linear" x1="1.5402e-05" y1="1.00001" x2="40.1611" y2="1.16271" gradientUnits="userSpaceOnUse">
<stop stop-color="#F1991A"/>
<stop offset="1" stop-color="#F5B353"/>
</linearGradient>
</defs>
</svg>
