<svg width="319" height="220" viewBox="0 0 319 220" fill="none" xmlns="http://www.w3.org/2000/svg">
<path d="M248.998 0C249.101 0.000532574 249.203 0.0264844 249.293 0.0755497C249.384 0.124615 249.461 0.195274 249.517 0.28125L268.894 29.6562C268.962 29.7579 268.999 29.8775 269 30C268.999 30.1026 268.974 30.2035 268.925 30.2938C268.872 30.3936 268.793 30.4771 268.696 30.5354C268.599 30.5937 268.488 30.6247 268.375 30.625H257.124V39.375C257.124 39.5408 257.058 39.6997 256.941 39.8169C256.824 39.9342 256.665 40 256.499 40H241.498C241.332 40 241.173 39.9342 241.056 39.8169C240.939 39.6997 240.873 39.5408 240.873 39.375V30.625H229.622C229.509 30.6244 229.399 30.5935 229.303 30.5354C229.206 30.4773 229.127 30.3943 229.074 30.295C229.021 30.1958 228.996 30.0841 229.001 29.9717C229.006 29.8592 229.041 29.7502 229.103 29.6562L248.48 0.28125C248.536 0.195274 248.613 0.124615 248.704 0.0755497C248.794 0.0264844 248.895 0.000532574 248.998 0V0Z" fill="url(#paint0_linear)"/>
<g filter="url(#filter0_d)">
<rect x="30" y="40" width="239" height="130" rx="10" fill="url(#paint1_linear)"/>
</g>
<path d="M42.808 55.088V65H39.7V55.088H42.808ZM49.7417 57.048C50.6471 57.048 51.3517 57.3513 51.8557 57.958C52.3691 58.5647 52.6257 59.386 52.6257 60.422V65H49.5317V60.814C49.5317 60.4407 49.4291 60.1467 49.2237 59.932C49.0277 59.708 48.7617 59.596 48.4257 59.596C48.0804 59.596 47.8097 59.708 47.6137 59.932C47.4177 60.1467 47.3197 60.4407 47.3197 60.814V65H44.2117V57.104H47.3197V58.308C47.5624 57.9347 47.8844 57.6313 48.2857 57.398C48.6964 57.1647 49.1817 57.048 49.7417 57.048ZM57.5854 57.006C58.6121 57.006 59.4754 57.2953 60.1754 57.874C60.8848 58.4527 61.3328 59.2553 61.5194 60.282H58.2294C58.1081 59.8713 57.8701 59.666 57.5154 59.666C57.2634 59.666 57.0628 59.7827 56.9134 60.016C56.7734 60.2493 56.7034 60.5947 56.7034 61.052C56.7034 61.5093 56.7734 61.8547 56.9134 62.088C57.0628 62.3213 57.2634 62.438 57.5154 62.438C57.8701 62.438 58.1081 62.2327 58.2294 61.822H61.5194C61.3328 62.8487 60.8848 63.6513 60.1754 64.23C59.4754 64.8087 58.6121 65.098 57.5854 65.098C56.8014 65.098 56.1014 64.9347 55.4854 64.608C54.8788 64.2813 54.4028 63.8147 54.0574 63.208C53.7214 62.592 53.5534 61.8733 53.5534 61.052C53.5534 60.2307 53.7214 59.5167 54.0574 58.91C54.4028 58.294 54.8788 57.8227 55.4854 57.496C56.1014 57.1693 56.8014 57.006 57.5854 57.006ZM65.6127 58.56C65.93 58.1027 66.3174 57.7387 66.7747 57.468C67.232 57.188 67.708 57.048 68.2027 57.048V60.366H67.3207C66.7327 60.366 66.2987 60.4687 66.0187 60.674C65.748 60.8793 65.6127 61.2433 65.6127 61.766V65H62.5047V57.104H65.6127V58.56ZM76.6838 60.982C76.6838 61.178 76.6605 61.3833 76.6138 61.598H71.6438C71.6718 61.99 71.7605 62.2607 71.9098 62.41C72.0592 62.55 72.2552 62.62 72.4978 62.62C72.8338 62.62 73.0765 62.466 73.2258 62.158H76.5158C76.4038 62.718 76.1658 63.222 75.8018 63.67C75.4472 64.1087 74.9945 64.4587 74.4438 64.72C73.9025 64.972 73.3052 65.098 72.6518 65.098C71.8678 65.098 71.1678 64.9347 70.5518 64.608C69.9452 64.2813 69.4692 63.8147 69.1238 63.208C68.7878 62.592 68.6198 61.8733 68.6198 61.052C68.6198 60.2307 68.7878 59.5167 69.1238 58.91C69.4692 58.294 69.9452 57.8227 70.5518 57.496C71.1678 57.1693 71.8678 57.006 72.6518 57.006C73.4358 57.006 74.1312 57.1693 74.7378 57.496C75.3538 57.8133 75.8298 58.2707 76.1658 58.868C76.5112 59.4653 76.6838 60.17 76.6838 60.982ZM73.5338 60.324C73.5338 60.0253 73.4498 59.806 73.2818 59.666C73.1138 59.5167 72.9038 59.442 72.6518 59.442C72.0825 59.442 71.7558 59.736 71.6718 60.324H73.5338ZM80.5088 57.006C81.0221 57.006 81.4655 57.1133 81.8388 57.328C82.2121 57.5333 82.4968 57.818 82.6928 58.182V57.104H85.7868V65H82.6928V63.922C82.4968 64.286 82.2121 64.5753 81.8388 64.79C81.4655 64.9953 81.0221 65.098 80.5088 65.098C79.8928 65.098 79.3375 64.9393 78.8428 64.622C78.3481 64.2953 77.9561 63.8287 77.6668 63.222C77.3868 62.606 77.2468 61.8827 77.2468 61.052C77.2468 60.2213 77.3868 59.5027 77.6668 58.896C77.9561 58.28 78.3481 57.8133 78.8428 57.496C79.3375 57.1693 79.8928 57.006 80.5088 57.006ZM81.5448 59.722C81.2088 59.722 80.9335 59.8387 80.7188 60.072C80.5041 60.3053 80.3968 60.632 80.3968 61.052C80.3968 61.472 80.5041 61.7987 80.7188 62.032C80.9335 62.2653 81.2088 62.382 81.5448 62.382C81.8808 62.382 82.1561 62.2653 82.3708 62.032C82.5855 61.7987 82.6928 61.472 82.6928 61.052C82.6928 60.632 82.5855 60.3053 82.3708 60.072C82.1561 59.8387 81.8808 59.722 81.5448 59.722ZM90.2904 57.006C91.3638 57.006 92.2178 57.2673 92.8524 57.79C93.4964 58.3033 93.9024 58.9847 94.0704 59.834H91.1724C91.0511 59.386 90.7338 59.162 90.2204 59.162C89.9311 59.162 89.7864 59.274 89.7864 59.498C89.7864 59.6567 89.8891 59.778 90.0944 59.862C90.3091 59.946 90.6451 60.0347 91.1024 60.128C91.6998 60.24 92.2084 60.3753 92.6284 60.534C93.0578 60.6833 93.4264 60.9307 93.7344 61.276C94.0424 61.6213 94.1964 62.0927 94.1964 62.69C94.1964 63.1567 94.0658 63.572 93.8044 63.936C93.5431 64.3 93.1604 64.5847 92.6564 64.79C92.1524 64.9953 91.5598 65.098 90.8784 65.098C89.7398 65.098 88.8344 64.8553 88.1624 64.37C87.4904 63.8847 87.0751 63.1847 86.9164 62.27H89.8984C89.9544 62.7273 90.2764 62.956 90.8644 62.956C91.1818 62.956 91.3404 62.844 91.3404 62.62C91.3404 62.4427 91.2331 62.312 91.0184 62.228C90.8038 62.144 90.4584 62.06 89.9824 61.976C89.3758 61.8547 88.8718 61.724 88.4704 61.584C88.0784 61.444 87.7331 61.206 87.4344 60.87C87.1358 60.534 86.9864 60.072 86.9864 59.484C86.9864 59.008 87.1124 58.5833 87.3644 58.21C87.6164 57.8367 87.9898 57.5427 88.4844 57.328C88.9791 57.1133 89.5811 57.006 90.2904 57.006ZM102.934 60.982C102.934 61.178 102.911 61.3833 102.864 61.598H97.8938C97.9218 61.99 98.0105 62.2607 98.1598 62.41C98.3092 62.55 98.5052 62.62 98.7478 62.62C99.0838 62.62 99.3265 62.466 99.4758 62.158H102.766C102.654 62.718 102.416 63.222 102.052 63.67C101.697 64.1087 101.245 64.4587 100.694 64.72C100.153 64.972 99.5552 65.098 98.9018 65.098C98.1178 65.098 97.4178 64.9347 96.8018 64.608C96.1952 64.2813 95.7192 63.8147 95.3738 63.208C95.0378 62.592 94.8698 61.8733 94.8698 61.052C94.8698 60.2307 95.0378 59.5167 95.3738 58.91C95.7192 58.294 96.1952 57.8227 96.8018 57.496C97.4178 57.1693 98.1178 57.006 98.9018 57.006C99.6858 57.006 100.381 57.1693 100.988 57.496C101.604 57.8133 102.08 58.2707 102.416 58.868C102.761 59.4653 102.934 60.17 102.934 60.982ZM99.7838 60.324C99.7838 60.0253 99.6998 59.806 99.5318 59.666C99.3638 59.5167 99.1538 59.442 98.9018 59.442C98.3325 59.442 98.0058 59.736 97.9218 60.324H99.7838ZM106.759 57.006C107.272 57.006 107.711 57.1133 108.075 57.328C108.448 57.5333 108.733 57.818 108.929 58.182V54.64H112.037V65H108.929V63.922C108.733 64.286 108.448 64.5753 108.075 64.79C107.711 64.9953 107.272 65.098 106.759 65.098C106.143 65.098 105.587 64.9393 105.093 64.622C104.598 64.2953 104.206 63.8287 103.917 63.222C103.637 62.606 103.497 61.8827 103.497 61.052C103.497 60.2213 103.637 59.5027 103.917 58.896C104.206 58.28 104.598 57.8133 105.093 57.496C105.587 57.1693 106.143 57.006 106.759 57.006ZM107.795 59.722C107.459 59.722 107.183 59.8387 106.969 60.072C106.754 60.3053 106.647 60.632 106.647 61.052C106.647 61.472 106.754 61.7987 106.969 62.032C107.183 62.2653 107.459 62.382 107.795 62.382C108.131 62.382 108.406 62.2653 108.621 62.032C108.835 61.7987 108.943 61.472 108.943 61.052C108.943 60.632 108.835 60.3053 108.621 60.072C108.406 59.8387 108.131 59.722 107.795 59.722ZM120.431 54.99C121.29 54.99 122.055 55.1533 122.727 55.48C123.409 55.7973 123.959 56.25 124.379 56.838C124.809 57.426 125.093 58.112 125.233 58.896H121.957C121.808 58.5693 121.593 58.3173 121.313 58.14C121.043 57.9533 120.73 57.86 120.375 57.86C119.853 57.86 119.437 58.056 119.129 58.448C118.831 58.84 118.681 59.3673 118.681 60.03C118.681 60.6927 118.831 61.22 119.129 61.612C119.437 62.004 119.853 62.2 120.375 62.2C120.73 62.2 121.043 62.1113 121.313 61.934C121.593 61.7473 121.808 61.4907 121.957 61.164H125.233C125.093 61.948 124.809 62.634 124.379 63.222C123.959 63.81 123.409 64.2673 122.727 64.594C122.055 64.9113 121.29 65.07 120.431 65.07C119.433 65.07 118.565 64.86 117.827 64.44C117.09 64.0107 116.521 63.4133 116.119 62.648C115.727 61.8827 115.531 61.01 115.531 60.03C115.531 59.05 115.727 58.1773 116.119 57.412C116.521 56.6467 117.09 56.054 117.827 55.634C118.565 55.2047 119.433 54.99 120.431 54.99ZM130.104 57.006C130.898 57.006 131.612 57.1693 132.246 57.496C132.881 57.8227 133.376 58.294 133.73 58.91C134.094 59.5167 134.276 60.2307 134.276 61.052C134.276 61.8733 134.094 62.592 133.73 63.208C133.376 63.8147 132.881 64.2813 132.246 64.608C131.612 64.9347 130.898 65.098 130.104 65.098C129.311 65.098 128.597 64.9347 127.962 64.608C127.328 64.2813 126.828 63.8147 126.464 63.208C126.11 62.592 125.932 61.8733 125.932 61.052C125.932 60.2307 126.11 59.5167 126.464 58.91C126.828 58.294 127.328 57.8227 127.962 57.496C128.597 57.1693 129.311 57.006 130.104 57.006ZM130.104 59.694C129.815 59.694 129.572 59.8107 129.376 60.044C129.18 60.268 129.082 60.604 129.082 61.052C129.082 61.5 129.176 61.8407 129.362 62.074C129.558 62.298 129.806 62.41 130.104 62.41C130.394 62.41 130.636 62.298 130.832 62.074C131.028 61.8407 131.126 61.5 131.126 61.052C131.126 60.604 131.028 60.268 130.832 60.044C130.636 59.8107 130.394 59.694 130.104 59.694ZM140.783 57.048C141.688 57.048 142.393 57.3513 142.897 57.958C143.41 58.5647 143.667 59.386 143.667 60.422V65H140.573V60.814C140.573 60.4407 140.47 60.1467 140.265 59.932C140.069 59.708 139.803 59.596 139.467 59.596C139.121 59.596 138.851 59.708 138.655 59.932C138.459 60.1467 138.361 60.4407 138.361 60.814V65H135.253V57.104H138.361V58.308C138.603 57.9347 138.925 57.6313 139.327 57.398C139.737 57.1647 140.223 57.048 140.783 57.048ZM149.018 62.046L150.278 57.104H153.582L150.95 65H147.072L144.44 57.104H147.744L149.018 62.046ZM162.051 60.982C162.051 61.178 162.028 61.3833 161.981 61.598H157.011C157.039 61.99 157.128 62.2607 157.277 62.41C157.426 62.55 157.622 62.62 157.865 62.62C158.201 62.62 158.444 62.466 158.593 62.158H161.883C161.771 62.718 161.533 63.222 161.169 63.67C160.814 64.1087 160.362 64.4587 159.811 64.72C159.27 64.972 158.672 65.098 158.019 65.098C157.235 65.098 156.535 64.9347 155.919 64.608C155.312 64.2813 154.836 63.8147 154.491 63.208C154.155 62.592 153.987 61.8733 153.987 61.052C153.987 60.2307 154.155 59.5167 154.491 58.91C154.836 58.294 155.312 57.8227 155.919 57.496C156.535 57.1693 157.235 57.006 158.019 57.006C158.803 57.006 159.498 57.1693 160.105 57.496C160.721 57.8133 161.197 58.2707 161.533 58.868C161.878 59.4653 162.051 60.17 162.051 60.982ZM158.901 60.324C158.901 60.0253 158.817 59.806 158.649 59.666C158.481 59.5167 158.271 59.442 158.019 59.442C157.45 59.442 157.123 59.736 157.039 60.324H158.901ZM166.142 58.56C166.459 58.1027 166.847 57.7387 167.304 57.468C167.761 57.188 168.237 57.048 168.732 57.048V60.366H167.85C167.262 60.366 166.828 60.4687 166.548 60.674C166.277 60.8793 166.142 61.2433 166.142 61.766V65H163.034V57.104H166.142V58.56ZM172.677 57.006C173.75 57.006 174.604 57.2673 175.239 57.79C175.883 58.3033 176.289 58.9847 176.457 59.834H173.559C173.438 59.386 173.12 59.162 172.607 59.162C172.318 59.162 172.173 59.274 172.173 59.498C172.173 59.6567 172.276 59.778 172.481 59.862C172.696 59.946 173.032 60.0347 173.489 60.128C174.086 60.24 174.595 60.3753 175.015 60.534C175.444 60.6833 175.813 60.9307 176.121 61.276C176.429 61.6213 176.583 62.0927 176.583 62.69C176.583 63.1567 176.452 63.572 176.191 63.936C175.93 64.3 175.547 64.5847 175.043 64.79C174.539 64.9953 173.946 65.098 173.265 65.098C172.126 65.098 171.221 64.8553 170.549 64.37C169.877 63.8847 169.462 63.1847 169.303 62.27H172.285C172.341 62.7273 172.663 62.956 173.251 62.956C173.568 62.956 173.727 62.844 173.727 62.62C173.727 62.4427 173.62 62.312 173.405 62.228C173.19 62.144 172.845 62.06 172.369 61.976C171.762 61.8547 171.258 61.724 170.857 61.584C170.465 61.444 170.12 61.206 169.821 60.87C169.522 60.534 169.373 60.072 169.373 59.484C169.373 59.008 169.499 58.5833 169.751 58.21C170.003 57.8367 170.376 57.5427 170.871 57.328C171.366 57.1133 171.968 57.006 172.677 57.006ZM177.453 54.948C177.453 54.5 177.616 54.1313 177.943 53.842C178.269 53.5433 178.703 53.394 179.245 53.394C179.777 53.394 180.206 53.5433 180.533 53.842C180.859 54.1313 181.023 54.5 181.023 54.948C181.023 55.3867 180.859 55.7507 180.533 56.04C180.206 56.3293 179.777 56.474 179.245 56.474C178.703 56.474 178.269 56.3293 177.943 56.04C177.616 55.7507 177.453 55.3867 177.453 54.948ZM180.785 57.104V65H177.677V57.104H180.785ZM185.94 57.006C186.734 57.006 187.448 57.1693 188.082 57.496C188.717 57.8227 189.212 58.294 189.566 58.91C189.93 59.5167 190.112 60.2307 190.112 61.052C190.112 61.8733 189.93 62.592 189.566 63.208C189.212 63.8147 188.717 64.2813 188.082 64.608C187.448 64.9347 186.734 65.098 185.94 65.098C185.147 65.098 184.433 64.9347 183.798 64.608C183.164 64.2813 182.664 63.8147 182.3 63.208C181.946 62.592 181.768 61.8733 181.768 61.052C181.768 60.2307 181.946 59.5167 182.3 58.91C182.664 58.294 183.164 57.8227 183.798 57.496C184.433 57.1693 185.147 57.006 185.94 57.006ZM185.94 59.694C185.651 59.694 185.408 59.8107 185.212 60.044C185.016 60.268 184.918 60.604 184.918 61.052C184.918 61.5 185.012 61.8407 185.198 62.074C185.394 62.298 185.642 62.41 185.94 62.41C186.23 62.41 186.472 62.298 186.668 62.074C186.864 61.8407 186.962 61.5 186.962 61.052C186.962 60.604 186.864 60.268 186.668 60.044C186.472 59.8107 186.23 59.694 185.94 59.694ZM196.619 57.048C197.524 57.048 198.229 57.3513 198.733 57.958C199.246 58.5647 199.503 59.386 199.503 60.422V65H196.409V60.814C196.409 60.4407 196.306 60.1467 196.101 59.932C195.905 59.708 195.639 59.596 195.303 59.596C194.957 59.596 194.687 59.708 194.491 59.932C194.295 60.1467 194.197 60.4407 194.197 60.814V65H191.089V57.104H194.197V58.308C194.439 57.9347 194.761 57.6313 195.163 57.398C195.573 57.1647 196.059 57.048 196.619 57.048ZM208.213 65L206.337 61.444V65H203.229V55.088H207.849C208.652 55.088 209.338 55.2327 209.907 55.522C210.477 55.802 210.901 56.1893 211.181 56.684C211.471 57.1693 211.615 57.72 211.615 58.336C211.615 58.9987 211.429 59.5867 211.055 60.1C210.691 60.6133 210.164 60.982 209.473 61.206L211.629 65H208.213ZM206.337 59.372H207.569C207.868 59.372 208.092 59.3067 208.241 59.176C208.391 59.036 208.465 58.8213 208.465 58.532C208.465 58.2707 208.386 58.0653 208.227 57.916C208.078 57.7667 207.859 57.692 207.569 57.692H206.337V59.372ZM215.45 57.006C215.964 57.006 216.407 57.1133 216.78 57.328C217.154 57.5333 217.438 57.818 217.634 58.182V57.104H220.728V65H217.634V63.922C217.438 64.286 217.154 64.5753 216.78 64.79C216.407 64.9953 215.964 65.098 215.45 65.098C214.834 65.098 214.279 64.9393 213.784 64.622C213.29 64.2953 212.898 63.8287 212.608 63.222C212.328 62.606 212.188 61.8827 212.188 61.052C212.188 60.2213 212.328 59.5027 212.608 58.896C212.898 58.28 213.29 57.8133 213.784 57.496C214.279 57.1693 214.834 57.006 215.45 57.006ZM216.486 59.722C216.15 59.722 215.875 59.8387 215.66 60.072C215.446 60.3053 215.338 60.632 215.338 61.052C215.338 61.472 215.446 61.7987 215.66 62.032C215.875 62.2653 216.15 62.382 216.486 62.382C216.822 62.382 217.098 62.2653 217.312 62.032C217.527 61.7987 217.634 61.472 217.634 61.052C217.634 60.632 217.527 60.3053 217.312 60.072C217.098 59.8387 216.822 59.722 216.486 59.722ZM227.038 62.354V65H225.862C223.696 65 222.614 63.922 222.614 61.766V59.694H221.634V57.104H222.614V55.2H225.722V57.104H227.01V59.694H225.722V61.822C225.722 62.0087 225.764 62.144 225.848 62.228C225.941 62.312 226.09 62.354 226.296 62.354H227.038ZM235.865 60.982C235.865 61.178 235.842 61.3833 235.795 61.598H230.825C230.853 61.99 230.942 62.2607 231.091 62.41C231.241 62.55 231.437 62.62 231.679 62.62C232.015 62.62 232.258 62.466 232.407 62.158H235.697C235.585 62.718 235.347 63.222 234.983 63.67C234.629 64.1087 234.176 64.4587 233.625 64.72C233.084 64.972 232.487 65.098 231.833 65.098C231.049 65.098 230.349 64.9347 229.733 64.608C229.127 64.2813 228.651 63.8147 228.305 63.208C227.969 62.592 227.801 61.8733 227.801 61.052C227.801 60.2307 227.969 59.5167 228.305 58.91C228.651 58.294 229.127 57.8227 229.733 57.496C230.349 57.1693 231.049 57.006 231.833 57.006C232.617 57.006 233.313 57.1693 233.919 57.496C234.535 57.8133 235.011 58.2707 235.347 58.868C235.693 59.4653 235.865 60.17 235.865 60.982ZM232.715 60.324C232.715 60.0253 232.631 59.806 232.463 59.666C232.295 59.5167 232.085 59.442 231.833 59.442C231.264 59.442 230.937 59.736 230.853 60.324H232.715Z" fill="#000428"/>
<path d="M43.5779 141.812V140.528H46.2899V149H44.8499V141.812H43.5779ZM47.7256 144.704C47.7256 146.056 47.9656 147.116 48.4456 147.884C48.9256 148.644 49.7256 149.024 50.8456 149.024C51.9656 149.024 52.7656 148.64 53.2456 147.872C53.7256 147.104 53.9656 146.048 53.9656 144.704C53.9656 143.368 53.7256 142.32 53.2456 141.56C52.7656 140.792 51.9656 140.408 50.8456 140.408C49.7256 140.408 48.9256 140.788 48.4456 141.548C47.9656 142.308 47.7256 143.36 47.7256 144.704ZM52.5976 144.704C52.5976 145.68 52.4776 146.428 52.2376 146.948C51.9976 147.468 51.5336 147.728 50.8456 147.728C50.1496 147.728 49.6816 147.468 49.4416 146.948C49.2016 146.428 49.0816 145.68 49.0816 144.704C49.0816 143.736 49.2016 142.996 49.4416 142.484C49.6816 141.972 50.1496 141.716 50.8456 141.716C51.5336 141.716 51.9976 141.976 52.2376 142.496C52.4776 143.008 52.5976 143.744 52.5976 144.704Z" fill="#13172D"/>
<path d="M42.3374 117.932C43.6334 117.044 44.6694 116.176 45.4454 115.328C46.2294 114.472 46.6214 113.68 46.6214 112.952C46.6214 112.52 46.5134 112.176 46.2974 111.92C46.0894 111.664 45.7494 111.536 45.2774 111.536C44.7894 111.536 44.4214 111.696 44.1734 112.016C43.9254 112.328 43.7854 112.776 43.7534 113.36H42.4214C42.4774 112.392 42.7734 111.652 43.3094 111.14C43.8534 110.628 44.5454 110.372 45.3854 110.372C46.2094 110.372 46.8534 110.592 47.3174 111.032C47.7894 111.464 48.0254 112.064 48.0254 112.832C48.0254 113.448 47.8334 114.072 47.4494 114.704C47.0734 115.336 46.5934 115.92 46.0094 116.456C45.4254 116.984 44.8214 117.44 44.1974 117.824H48.2174V118.94H42.3374V117.932ZM49.29 114.704C49.29 116.056 49.53 117.116 50.01 117.884C50.49 118.644 51.29 119.024 52.41 119.024C53.53 119.024 54.33 118.64 54.81 117.872C55.29 117.104 55.53 116.048 55.53 114.704C55.53 113.368 55.29 112.32 54.81 111.56C54.33 110.792 53.53 110.408 52.41 110.408C51.29 110.408 50.49 110.788 50.01 111.548C49.53 112.308 49.29 113.36 49.29 114.704ZM54.162 114.704C54.162 115.68 54.042 116.428 53.802 116.948C53.562 117.468 53.098 117.728 52.41 117.728C51.714 117.728 51.246 117.468 51.006 116.948C50.766 116.428 50.646 115.68 50.646 114.704C50.646 113.736 50.766 112.996 51.006 112.484C51.246 111.972 51.714 111.716 52.41 111.716C53.098 111.716 53.562 111.976 53.802 112.496C54.042 113.008 54.162 113.744 54.162 114.704Z" fill="#13172D"/>
<path d="M45.2992 80.264C45.8592 80.264 46.3392 80.364 46.7392 80.564C47.1392 80.756 47.4392 81.024 47.6392 81.368C47.8472 81.712 47.9512 82.096 47.9512 82.52C47.9512 83.056 47.7992 83.504 47.4952 83.864C47.1992 84.216 46.7792 84.428 46.2352 84.5V84.56C46.8192 84.728 47.2752 84.98 47.6032 85.316C47.9392 85.644 48.1072 86.1 48.1072 86.684C48.1072 87.396 47.8712 87.976 47.3992 88.424C46.9272 88.864 46.2512 89.084 45.3712 89.084C44.4672 89.084 43.7392 88.856 43.1872 88.4C42.6352 87.936 42.3192 87.252 42.2392 86.348H43.5952C43.6432 86.828 43.8152 87.212 44.1112 87.5C44.4072 87.78 44.8072 87.92 45.3112 87.92C45.7832 87.92 46.1432 87.796 46.3912 87.548C46.6472 87.3 46.7752 86.98 46.7752 86.588C46.7752 86.116 46.5912 85.756 46.2232 85.508C45.8632 85.26 45.3392 85.136 44.6512 85.136H44.3272V84.008H44.6512C45.9552 84.024 46.6072 83.58 46.6072 82.676C46.6072 82.284 46.4872 81.976 46.2472 81.752C46.0072 81.528 45.6792 81.416 45.2632 81.416C44.8472 81.416 44.4992 81.544 44.2192 81.8C43.9392 82.048 43.7712 82.412 43.7152 82.892H42.3712C42.4272 82.06 42.7072 81.416 43.2112 80.96C43.7152 80.496 44.4112 80.264 45.2992 80.264ZM49.4482 84.704C49.4482 86.056 49.6882 87.116 50.1682 87.884C50.6482 88.644 51.4482 89.024 52.5682 89.024C53.6882 89.024 54.4882 88.64 54.9682 87.872C55.4482 87.104 55.6882 86.048 55.6882 84.704C55.6882 83.368 55.4482 82.32 54.9682 81.56C54.4882 80.792 53.6882 80.408 52.5682 80.408C51.4482 80.408 50.6482 80.788 50.1682 81.548C49.6882 82.308 49.4482 83.36 49.4482 84.704ZM54.3202 84.704C54.3202 85.68 54.2002 86.428 53.9602 86.948C53.7202 87.468 53.2562 87.728 52.5682 87.728C51.8722 87.728 51.4042 87.468 51.1642 86.948C50.9242 86.428 50.8042 85.68 50.8042 84.704C50.8042 83.736 50.9242 82.996 51.1642 82.484C51.4042 81.972 51.8722 81.716 52.5682 81.716C53.2562 81.716 53.7202 81.976 53.9602 82.496C54.2002 83.008 54.3202 83.744 54.3202 84.704Z" fill="#13172D"/>
<line x1="59.5" y1="89.5" x2="238.5" y2="89.5" stroke="#F09819" stroke-linecap="round"/>
<line x1="59.5" y1="119.5" x2="238.5" y2="119.5" stroke="#F09819" stroke-linecap="round"/>
<line x1="59.5" y1="149.5" x2="238.5" y2="149.5" stroke="#F09819" stroke-linecap="round"/>
<path d="M69 132C69 126.477 73.4772 122 79 122C84.5228 122 89 126.477 89 132V149H69V132Z" fill="#004B8D"/>
<path d="M104 109C104 103.477 108.477 99 114 99C119.523 99 124 103.477 124 109V149H104V109Z" fill="#004B8D"/>
<path d="M139 103C139 97.4772 143.477 93 149 93C154.523 93 159 97.4772 159 103V149H139V103Z" fill="#004B8D"/>
<path d="M209 83C209 77.4772 213.477 73 219 73C224.523 73 229 77.4772 229 83V149H209V83Z" fill="#004B8D"/>
<path d="M174 100C174 94.4772 178.477 90 184 90C189.523 90 194 94.4772 194 100V149H174V100Z" fill="#004B8D"/>
<defs>
<filter id="filter0_d" x="0" y="10" width="319" height="210" filterUnits="userSpaceOnUse" color-interpolation-filters="sRGB">
<feFlood flood-opacity="0" result="BackgroundImageFix"/>
<feColorMatrix in="SourceAlpha" type="matrix" values="0 0 0 0 0 0 0 0 0 0 0 0 0 0 0 0 0 0 127 0" result="hardAlpha"/>
<feOffset dx="10" dy="10"/>
<feGaussianBlur stdDeviation="20"/>
<feComposite in2="hardAlpha" operator="out"/>
<feColorMatrix type="matrix" values="0 0 0 0 0.0745098 0 0 0 0 0.0901961 0 0 0 0 0.176471 0 0 0 0.4 0"/>
<feBlend mode="normal" in2="BackgroundImageFix" result="effect1_dropShadow"/>
<feBlend mode="normal" in="SourceGraphic" in2="effect1_dropShadow" result="shape"/>
</filter>
<linearGradient id="paint0_linear" x1="269" y1="40" x2="229" y2="2.38419e-06" gradientUnits="userSpaceOnUse">
<stop stop-color="#EDCE4D"/>
<stop offset="1" stop-color="#F09819"/>
</linearGradient>
<linearGradient id="paint1_linear" x1="30" y1="40" x2="139.134" y2="240.638" gradientUnits="userSpaceOnUse">
<stop stop-color="#DFDFDF"/>
<stop offset="1" stop-color="white"/>
</linearGradient>
</defs>
</svg>
