<svg width="360" height="253" viewBox="0 0 360 253" fill="none" xmlns="http://www.w3.org/2000/svg">
<path d="M107.15 2.58209C106.706 1.56445 105.857 0.75578 104.788 0.333172C104.262 0.119771 103.698 0.0065801 103.126 0H81.2576C80.0976 0 78.9851 0.438776 78.1649 1.2198C77.3447 2.00082 76.8839 3.06012 76.8839 4.16465C76.8839 5.26919 77.3447 6.32848 78.1649 7.10951C78.9851 7.89053 80.0976 8.32931 81.2576 8.32931H92.5856L68.1364 31.6097L53.7468 17.8664C53.3402 17.476 52.8565 17.1662 52.3235 16.9548C51.7905 16.7433 51.2189 16.6345 50.6415 16.6345C50.0641 16.6345 49.4924 16.7433 48.9594 16.9548C48.4265 17.1662 47.9427 17.476 47.5361 17.8664L21.2937 42.8543C20.8838 43.2415 20.5584 43.7021 20.3364 44.2096C20.1143 44.7171 20 45.2614 20 45.8112C20 46.361 20.1143 46.9053 20.3364 47.4128C20.5584 47.9203 20.8838 48.3809 21.2937 48.7681C21.7003 49.1584 22.1841 49.4683 22.7171 49.6797C23.25 49.8911 23.8217 50 24.3991 50C24.9765 50 25.5481 49.8911 26.0811 49.6797C26.6141 49.4683 27.0978 49.1584 27.5044 48.7681L50.6415 26.6954L65.0311 40.4388C65.4377 40.8291 65.9214 41.139 66.4544 41.3504C66.9874 41.5618 67.559 41.6707 68.1364 41.6707C68.7138 41.6707 69.2855 41.5618 69.8185 41.3504C70.3514 41.139 70.8352 40.8291 71.2418 40.4388L98.7525 14.2015V24.9879C98.7525 26.0925 99.2133 27.1518 100.034 27.9328C100.854 28.7138 101.966 29.1526 103.126 29.1526C104.286 29.1526 105.399 28.7138 106.219 27.9328C107.039 27.1518 107.5 26.0925 107.5 24.9879V4.16465C107.493 3.62043 107.374 3.08277 107.15 2.58209Z" fill="url(#paint0_linear)"/>
<g filter="url(#filter0_d)">
<rect x="30" y="33" width="280" height="170" rx="10" fill="url(#paint1_linear)"/>
</g>
<path d="M165.144 138.939L105.851 95.6868L47.3677 138.348L46.0293 136.608L105.851 92.9701L164.861 136.017L223.502 73.519L223.737 73.4262L282.889 50.215L283.724 52.2319L224.807 75.3502L165.144 138.939Z" fill="#9BABC5"/>
<path d="M46 142.957C49.3137 142.957 52 140.27 52 136.957C52 133.643 49.3137 130.957 46 130.957C42.6863 130.957 40 133.643 40 136.957C40 140.27 42.6863 142.957 46 142.957Z" fill="#004B8D"/>
<path d="M105.15 100.565C108.464 100.565 111.15 97.8789 111.15 94.5652C111.15 91.2515 108.464 88.5652 105.15 88.5652C101.837 88.5652 99.1504 91.2515 99.1504 94.5652C99.1504 97.8789 101.837 100.565 105.15 100.565Z" fill="#004B8D"/>
<path d="M165 143C168.314 143 171 140.314 171 137C171 133.686 168.314 131 165 131C161.686 131 159 133.686 159 137C159 140.314 161.686 143 165 143Z" fill="#F09819"/>
<path d="M223.455 79.9131C226.769 79.9131 229.455 77.2268 229.455 73.9131C229.455 70.5994 226.769 67.9131 223.455 67.9131C220.141 67.9131 217.455 70.5994 217.455 73.9131C217.455 77.2268 220.141 79.9131 223.455 79.9131Z" fill="#004B8D"/>
<path d="M284 55C287.314 55 290 52.3137 290 49C290 45.6863 287.314 43 284 43C280.686 43 278 45.6863 278 49C278 52.3137 280.686 55 284 55Z" fill="#004B8D"/>
<path d="M45.432 47.99C46.7293 47.99 47.784 48.3027 48.596 48.928C49.4173 49.5533 49.9027 50.4027 50.052 51.476H46.776C46.6547 51.28 46.482 51.1307 46.258 51.028C46.034 50.916 45.7633 50.86 45.446 50.86C44.8487 50.86 44.3867 51.056 44.06 51.448C43.7333 51.8307 43.57 52.358 43.57 53.03C43.57 53.8047 43.752 54.3833 44.116 54.766C44.48 55.1487 45.04 55.34 45.796 55.34C46.5147 55.34 47.0933 55.0507 47.532 54.472H45.054V52.274H50.108V55.382C49.6787 56.1193 49.086 56.754 48.33 57.286C47.574 57.8087 46.6173 58.07 45.46 58.07C44.4333 58.07 43.5373 57.86 42.772 57.44C42.016 57.0107 41.4327 56.4133 41.022 55.648C40.6207 54.8827 40.42 54.01 40.42 53.03C40.42 52.05 40.6207 51.1773 41.022 50.412C41.4327 49.6467 42.016 49.054 42.772 48.634C43.528 48.2047 44.4147 47.99 45.432 47.99ZM54.3353 51.56C54.6527 51.1027 55.04 50.7387 55.4973 50.468C55.9547 50.188 56.4307 50.048 56.9253 50.048V53.366H56.0433C55.4553 53.366 55.0213 53.4687 54.7413 53.674C54.4707 53.8793 54.3353 54.2433 54.3353 54.766V58H51.2273V50.104H54.3353V51.56ZM61.5145 50.006C62.3078 50.006 63.0218 50.1693 63.6565 50.496C64.2912 50.8227 64.7858 51.294 65.1405 51.91C65.5045 52.5167 65.6865 53.2307 65.6865 54.052C65.6865 54.8733 65.5045 55.592 65.1405 56.208C64.7858 56.8147 64.2912 57.2813 63.6565 57.608C63.0218 57.9347 62.3078 58.098 61.5145 58.098C60.7212 58.098 60.0072 57.9347 59.3725 57.608C58.7378 57.2813 58.2385 56.8147 57.8745 56.208C57.5198 55.592 57.3425 54.8733 57.3425 54.052C57.3425 53.2307 57.5198 52.5167 57.8745 51.91C58.2385 51.294 58.7378 50.8227 59.3725 50.496C60.0072 50.1693 60.7212 50.006 61.5145 50.006ZM61.5145 52.694C61.2252 52.694 60.9825 52.8107 60.7865 53.044C60.5905 53.268 60.4925 53.604 60.4925 54.052C60.4925 54.5 60.5858 54.8407 60.7725 55.074C60.9685 55.298 61.2158 55.41 61.5145 55.41C61.8038 55.41 62.0465 55.298 62.2425 55.074C62.4385 54.8407 62.5365 54.5 62.5365 54.052C62.5365 53.604 62.4385 53.268 62.2425 53.044C62.0465 52.8107 61.8038 52.694 61.5145 52.694ZM78.6469 50.104L76.7709 58H73.2709L72.3189 53.548L71.3109 58H67.8109L65.9489 50.104H69.0289L69.6869 54.906L70.7089 50.104H74.0269L75.1049 54.962L75.7769 50.104H78.6469ZM84.2234 55.354V58H83.0474C80.882 58 79.7994 56.922 79.7994 54.766V52.694H78.8194V50.104H79.7994V48.2H82.9074V50.104H84.1954V52.694H82.9074V54.822C82.9074 55.0087 82.9494 55.144 83.0334 55.228C83.1267 55.312 83.276 55.354 83.4814 55.354H84.2234ZM90.937 50.048C91.8424 50.048 92.547 50.3513 93.051 50.958C93.5644 51.5647 93.821 52.386 93.821 53.422V58H90.727V53.814C90.727 53.4407 90.6244 53.1467 90.419 52.932C90.223 52.708 89.957 52.596 89.621 52.596C89.2757 52.596 89.005 52.708 88.809 52.932C88.613 53.1467 88.515 53.4407 88.515 53.814V58H85.407V47.64H88.515V51.308C88.7577 50.9347 89.0797 50.6313 89.481 50.398C89.8917 50.1647 90.377 50.048 90.937 50.048ZM102.532 58L100.656 54.444V58H97.5477V48.088H102.168C102.97 48.088 103.656 48.2327 104.226 48.522C104.795 48.802 105.22 49.1893 105.5 49.684C105.789 50.1693 105.934 50.72 105.934 51.336C105.934 51.9987 105.747 52.5867 105.374 53.1C105.01 53.6133 104.482 53.982 103.792 54.206L105.948 58H102.532ZM100.656 52.372H101.888C102.186 52.372 102.41 52.3067 102.56 52.176C102.709 52.036 102.784 51.8213 102.784 51.532C102.784 51.2707 102.704 51.0653 102.546 50.916C102.396 50.7667 102.177 50.692 101.888 50.692H100.656V52.372ZM109.769 50.006C110.282 50.006 110.725 50.1133 111.099 50.328C111.472 50.5333 111.757 50.818 111.953 51.182V50.104H115.047V58H111.953V56.922C111.757 57.286 111.472 57.5753 111.099 57.79C110.725 57.9953 110.282 58.098 109.769 58.098C109.153 58.098 108.597 57.9393 108.103 57.622C107.608 57.2953 107.216 56.8287 106.927 56.222C106.647 55.606 106.507 54.8827 106.507 54.052C106.507 53.2213 106.647 52.5027 106.927 51.896C107.216 51.28 107.608 50.8133 108.103 50.496C108.597 50.1693 109.153 50.006 109.769 50.006ZM110.805 52.722C110.469 52.722 110.193 52.8387 109.979 53.072C109.764 53.3053 109.657 53.632 109.657 54.052C109.657 54.472 109.764 54.7987 109.979 55.032C110.193 55.2653 110.469 55.382 110.805 55.382C111.141 55.382 111.416 55.2653 111.631 55.032C111.845 54.7987 111.953 54.472 111.953 54.052C111.953 53.632 111.845 53.3053 111.631 53.072C111.416 52.8387 111.141 52.722 110.805 52.722ZM121.356 55.354V58H120.18C118.015 58 116.932 56.922 116.932 54.766V52.694H115.952V50.104H116.932V48.2H120.04V50.104H121.328V52.694H120.04V54.822C120.04 55.0087 120.082 55.144 120.166 55.228C120.26 55.312 120.409 55.354 120.614 55.354H121.356ZM130.184 53.982C130.184 54.178 130.161 54.3833 130.114 54.598H125.144C125.172 54.99 125.261 55.2607 125.41 55.41C125.559 55.55 125.755 55.62 125.998 55.62C126.334 55.62 126.577 55.466 126.726 55.158H130.016C129.904 55.718 129.666 56.222 129.302 56.67C128.947 57.1087 128.495 57.4587 127.944 57.72C127.403 57.972 126.805 58.098 126.152 58.098C125.368 58.098 124.668 57.9347 124.052 57.608C123.445 57.2813 122.969 56.8147 122.624 56.208C122.288 55.592 122.12 54.8733 122.12 54.052C122.12 53.2307 122.288 52.5167 122.624 51.91C122.969 51.294 123.445 50.8227 124.052 50.496C124.668 50.1693 125.368 50.006 126.152 50.006C126.936 50.006 127.631 50.1693 128.238 50.496C128.854 50.8133 129.33 51.2707 129.666 51.868C130.011 52.4653 130.184 53.17 130.184 53.982ZM127.034 53.324C127.034 53.0253 126.95 52.806 126.782 52.666C126.614 52.5167 126.404 52.442 126.152 52.442C125.583 52.442 125.256 52.736 125.172 53.324H127.034Z" fill="#000428"/>
<path d="M45 193C47.7614 193 50 190.761 50 188C50 185.239 47.7614 183 45 183C42.2386 183 40 185.239 40 188C40 190.761 42.2386 193 45 193Z" fill="#004B8D"/>
<path d="M205 193C207.761 193 210 190.761 210 188C210 185.239 207.761 183 205 183C202.239 183 200 185.239 200 188C200 190.761 202.239 193 205 193Z" fill="#F09819"/>
<path d="M46.2992 153.264C46.8592 153.264 47.3392 153.364 47.7392 153.564C48.1392 153.756 48.4392 154.024 48.6392 154.368C48.8472 154.712 48.9512 155.096 48.9512 155.52C48.9512 156.056 48.7992 156.504 48.4952 156.864C48.1992 157.216 47.7792 157.428 47.2352 157.5V157.56C47.8192 157.728 48.2752 157.98 48.6032 158.316C48.9392 158.644 49.1072 159.1 49.1072 159.684C49.1072 160.396 48.8712 160.976 48.3992 161.424C47.9272 161.864 47.2512 162.084 46.3712 162.084C45.4672 162.084 44.7392 161.856 44.1872 161.4C43.6352 160.936 43.3192 160.252 43.2392 159.348H44.5952C44.6432 159.828 44.8152 160.212 45.1112 160.5C45.4072 160.78 45.8072 160.92 46.3112 160.92C46.7832 160.92 47.1432 160.796 47.3912 160.548C47.6472 160.3 47.7752 159.98 47.7752 159.588C47.7752 159.116 47.5912 158.756 47.2232 158.508C46.8632 158.26 46.3392 158.136 45.6512 158.136H45.3272V157.008H45.6512C46.9552 157.024 47.6072 156.58 47.6072 155.676C47.6072 155.284 47.4872 154.976 47.2472 154.752C47.0072 154.528 46.6792 154.416 46.2632 154.416C45.8472 154.416 45.4992 154.544 45.2192 154.8C44.9392 155.048 44.7712 155.412 44.7152 155.892H43.3712C43.4272 155.06 43.7072 154.416 44.2112 153.96C44.7152 153.496 45.4112 153.264 46.2992 153.264ZM50.4482 157.704C50.4482 159.056 50.6882 160.116 51.1682 160.884C51.6482 161.644 52.4482 162.024 53.5682 162.024C54.6882 162.024 55.4882 161.64 55.9682 160.872C56.4482 160.104 56.6882 159.048 56.6882 157.704C56.6882 156.368 56.4482 155.32 55.9682 154.56C55.4882 153.792 54.6882 153.408 53.5682 153.408C52.4482 153.408 51.6482 153.788 51.1682 154.548C50.6882 155.308 50.4482 156.36 50.4482 157.704ZM55.3202 157.704C55.3202 158.68 55.2002 159.428 54.9602 159.948C54.7202 160.468 54.2562 160.728 53.5682 160.728C52.8722 160.728 52.4042 160.468 52.1642 159.948C51.9242 159.428 51.8042 158.68 51.8042 157.704C51.8042 156.736 51.9242 155.996 52.1642 155.484C52.4042 154.972 52.8722 154.716 53.5682 154.716C54.2562 154.716 54.7202 154.976 54.9602 155.496C55.2002 156.008 55.3202 156.744 55.3202 157.704Z" fill="#13172D"/>
<path d="M97.8731 160.176V159.024L102.085 153.456H103.549V158.976H104.737V160.176H103.549V162H102.169V160.176H97.8731ZM102.265 155.088L99.2891 158.976H102.265V155.088ZM105.694 157.704C105.694 159.056 105.934 160.116 106.414 160.884C106.894 161.644 107.694 162.024 108.814 162.024C109.934 162.024 110.734 161.64 111.214 160.872C111.694 160.104 111.934 159.048 111.934 157.704C111.934 156.368 111.694 155.32 111.214 154.56C110.734 153.792 109.934 153.408 108.814 153.408C107.694 153.408 106.894 153.788 106.414 154.548C105.934 155.308 105.694 156.36 105.694 157.704ZM110.566 157.704C110.566 158.68 110.446 159.428 110.206 159.948C109.966 160.468 109.502 160.728 108.814 160.728C108.118 160.728 107.65 160.468 107.41 159.948C107.17 159.428 107.05 158.68 107.05 157.704C107.05 156.736 107.17 155.996 107.41 155.484C107.65 154.972 108.118 154.716 108.814 154.716C109.502 154.716 109.966 154.976 110.206 155.496C110.446 156.008 110.566 156.744 110.566 157.704Z" fill="#13172D"/>
<path d="M164.01 154.608H159.822V157.128C160.014 156.88 160.286 156.684 160.638 156.54C160.99 156.388 161.378 156.312 161.802 156.312C162.394 156.312 162.886 156.44 163.278 156.696C163.67 156.944 163.958 157.276 164.142 157.692C164.334 158.108 164.43 158.568 164.43 159.072C164.43 159.96 164.182 160.68 163.686 161.232C163.19 161.776 162.47 162.048 161.526 162.048C160.638 162.048 159.922 161.812 159.378 161.34C158.834 160.868 158.538 160.24 158.49 159.456H159.834C159.906 159.888 160.082 160.228 160.362 160.476C160.65 160.724 161.014 160.848 161.454 160.848C161.998 160.848 162.406 160.684 162.678 160.356C162.95 160.028 163.086 159.592 163.086 159.048C163.086 158.536 162.946 158.136 162.666 157.848C162.386 157.552 161.986 157.404 161.466 157.404C161.098 157.404 160.774 157.484 160.494 157.644C160.222 157.804 160.022 158.016 159.894 158.28H158.562V153.396H164.01V154.608ZM165.63 157.704C165.63 159.056 165.87 160.116 166.35 160.884C166.83 161.644 167.63 162.024 168.75 162.024C169.87 162.024 170.67 161.64 171.15 160.872C171.63 160.104 171.87 159.048 171.87 157.704C171.87 156.368 171.63 155.32 171.15 154.56C170.67 153.792 169.87 153.408 168.75 153.408C167.63 153.408 166.83 153.788 166.35 154.548C165.87 155.308 165.63 156.36 165.63 157.704ZM170.502 157.704C170.502 158.68 170.382 159.428 170.142 159.948C169.902 160.468 169.438 160.728 168.75 160.728C168.054 160.728 167.586 160.468 167.346 159.948C167.106 159.428 166.986 158.68 166.986 157.704C166.986 156.736 167.106 155.996 167.346 155.484C167.586 154.972 168.054 154.716 168.75 154.716C169.438 154.716 169.902 154.976 170.142 155.496C170.382 156.008 170.502 156.744 170.502 157.704Z" fill="#13172D"/>
<path d="M220.791 155.808C220.647 154.864 220.155 154.392 219.315 154.392C218.707 154.392 218.251 154.636 217.947 155.124C217.643 155.604 217.491 156.36 217.491 157.392L217.503 157.8C217.623 157.368 217.883 157.024 218.283 156.768C218.683 156.512 219.155 156.384 219.699 156.384C220.531 156.384 221.183 156.632 221.655 157.128C222.127 157.624 222.363 158.324 222.363 159.228C222.363 159.772 222.255 160.26 222.039 160.692C221.823 161.116 221.499 161.456 221.067 161.712C220.635 161.96 220.103 162.084 219.471 162.084C218.247 162.084 217.407 161.704 216.951 160.944C216.495 160.184 216.267 159.14 216.267 157.812C216.267 156.292 216.511 155.156 216.999 154.404C217.487 153.652 218.287 153.276 219.399 153.276C220.231 153.276 220.867 153.512 221.307 153.984C221.755 154.456 222.015 155.064 222.087 155.808H220.791ZM217.623 159.072C217.623 159.592 217.775 160.028 218.079 160.38C218.383 160.724 218.831 160.896 219.423 160.896C219.927 160.896 220.327 160.748 220.623 160.452C220.927 160.156 221.079 159.744 221.079 159.216C221.079 158.648 220.927 158.212 220.623 157.908C220.319 157.604 219.907 157.452 219.387 157.452C218.915 157.452 218.503 157.592 218.151 157.872C217.799 158.152 217.623 158.552 217.623 159.072ZM223.624 157.704C223.624 159.056 223.864 160.116 224.344 160.884C224.824 161.644 225.624 162.024 226.744 162.024C227.864 162.024 228.664 161.64 229.144 160.872C229.624 160.104 229.864 159.048 229.864 157.704C229.864 156.368 229.624 155.32 229.144 154.56C228.664 153.792 227.864 153.408 226.744 153.408C225.624 153.408 224.824 153.788 224.344 154.548C223.864 155.308 223.624 156.36 223.624 157.704ZM228.496 157.704C228.496 158.68 228.376 159.428 228.136 159.948C227.896 160.468 227.432 160.728 226.744 160.728C226.048 160.728 225.58 160.468 225.34 159.948C225.1 159.428 224.98 158.68 224.98 157.704C224.98 156.736 225.1 155.996 225.34 155.484C225.58 154.972 226.048 154.716 226.744 154.716C227.432 154.716 227.896 154.976 228.136 155.496C228.376 156.008 228.496 156.744 228.496 157.704Z" fill="#13172D"/>
<path d="M282.993 154.512L279.837 162H278.397L281.601 154.668H277.401V153.48H282.993V154.512ZM283.927 157.704C283.927 159.056 284.167 160.116 284.647 160.884C285.127 161.644 285.927 162.024 287.047 162.024C288.167 162.024 288.967 161.64 289.447 160.872C289.927 160.104 290.167 159.048 290.167 157.704C290.167 156.368 289.927 155.32 289.447 154.56C288.967 153.792 288.167 153.408 287.047 153.408C285.927 153.408 285.127 153.788 284.647 154.548C284.167 155.308 283.927 156.36 283.927 157.704ZM288.799 157.704C288.799 158.68 288.679 159.428 288.439 159.948C288.199 160.468 287.735 160.728 287.047 160.728C286.351 160.728 285.883 160.468 285.643 159.948C285.403 159.428 285.283 158.68 285.283 157.704C285.283 156.736 285.403 155.996 285.643 155.484C285.883 154.972 286.351 154.716 287.047 154.716C287.735 154.716 288.199 154.976 288.439 155.496C288.679 156.008 288.799 156.744 288.799 157.704Z" fill="#13172D"/>
<rect x="60" y="183" width="80" height="10" rx="5" fill="#E0E0E0"/>
<rect x="220" y="183" width="80" height="10" rx="5" fill="#C4C4C4"/>
<defs>
<filter id="filter0_d" x="0" y="3" width="360" height="250" filterUnits="userSpaceOnUse" color-interpolation-filters="sRGB">
<feFlood flood-opacity="0" result="BackgroundImageFix"/>
<feColorMatrix in="SourceAlpha" type="matrix" values="0 0 0 0 0 0 0 0 0 0 0 0 0 0 0 0 0 0 127 0" result="hardAlpha"/>
<feOffset dx="10" dy="10"/>
<feGaussianBlur stdDeviation="20"/>
<feComposite in2="hardAlpha" operator="out"/>
<feColorMatrix type="matrix" values="0 0 0 0 0.0745098 0 0 0 0 0.0901961 0 0 0 0 0.176471 0 0 0 0.4 0"/>
<feBlend mode="normal" in2="BackgroundImageFix" result="effect1_dropShadow"/>
<feBlend mode="normal" in="SourceGraphic" in2="effect1_dropShadow" result="shape"/>
</filter>
<linearGradient id="paint0_linear" x1="107.5" y1="50" x2="64.4231" y2="-25.3846" gradientUnits="userSpaceOnUse">
<stop stop-color="#EDCE4D"/>
<stop offset="1" stop-color="#F09819"/>
</linearGradient>
<linearGradient id="paint1_linear" x1="30" y1="33" x2="180.829" y2="281.425" gradientUnits="userSpaceOnUse">
<stop stop-color="#DFDFDF"/>
<stop offset="1" stop-color="white"/>
</linearGradient>
</defs>
</svg>
