<svg width="148" height="93" viewBox="0 0 148 93" fill="none" xmlns="http://www.w3.org/2000/svg">
<line x1="17.5" y1="14.5" x2="107.5" y2="14.5" stroke="#FFD216" stroke-linecap="round"/>
<line x1="17.5" y1="14.5" x2="107.5" y2="14.5" stroke="url(#paint0_linear)" stroke-linecap="round"/>
<line x1="107.5" y1="53.5" x2="107.5" y2="14.5" stroke="#FFD216" stroke-linecap="round"/>
<line x1="107.5" y1="53.5" x2="107.5" y2="14.5" stroke="url(#paint1_linear)" stroke-linecap="round"/>
<g filter="url(#filter0_d)">
<circle cx="13" cy="15" r="5" fill="white"/>
</g>
<circle cx="13" cy="15" r="4" fill="url(#paint2_linear)"/>
<rect x="28.5" y="53.5" width="119" height="39" rx="19.5" stroke="#FFD216" stroke-dasharray="2 2"/>
<rect x="28.5" y="53.5" width="119" height="39" rx="19.5" stroke="url(#paint3_linear)" stroke-dasharray="2 2"/>
<rect x="33" y="58" width="110" height="30" rx="15" fill="url(#paint4_linear)"/>
<path d="M48.6831 72.668L52.1031 77H49.6191L46.7391 73.196V77H44.6871V68.516H46.7391V72.248L49.6431 68.516H52.1031L48.6831 72.668ZM62.5242 70.304L60.8082 77H58.5162L57.3042 72.512L56.0802 77H53.7882L52.0722 70.304H54.1242L55.0122 75.128L56.2602 70.304H58.4442L59.7282 75.14L60.6162 70.304H62.5242ZM62.8354 68.42C62.8354 68.108 62.9474 67.852 63.1714 67.652C63.3954 67.444 63.6914 67.34 64.0594 67.34C64.4274 67.34 64.7234 67.444 64.9474 67.652C65.1714 67.852 65.2834 68.108 65.2834 68.42C65.2834 68.724 65.1714 68.98 64.9474 69.188C64.7234 69.388 64.4274 69.488 64.0594 69.488C63.6914 69.488 63.3954 69.388 63.1714 69.188C62.9474 68.98 62.8354 68.724 62.8354 68.42ZM65.0794 70.304V77H63.0274V70.304H65.0794ZM70.3121 77L68.3081 74.156V77H66.2561V68.12H68.3081V72.992L70.3121 70.304H72.7241L70.0241 73.652L72.7841 77H70.3121ZM79.3318 68.432C80.4118 68.432 81.3038 68.716 82.0078 69.284C82.7198 69.852 83.1798 70.62 83.3878 71.588H81.2158C81.0558 71.196 80.8078 70.888 80.4718 70.664C80.1438 70.44 79.7518 70.328 79.2958 70.328C78.6958 70.328 78.2118 70.548 77.8438 70.988C77.4758 71.428 77.2918 72.016 77.2918 72.752C77.2918 73.488 77.4758 74.076 77.8438 74.516C78.2118 74.948 78.6958 75.164 79.2958 75.164C79.7518 75.164 80.1438 75.052 80.4718 74.828C80.8078 74.604 81.0558 74.3 81.2158 73.916H83.3878C83.1798 74.876 82.7198 75.644 82.0078 76.22C81.3038 76.788 80.4118 77.072 79.3318 77.072C78.5078 77.072 77.7838 76.892 77.1598 76.532C76.5358 76.164 76.0518 75.652 75.7078 74.996C75.3718 74.34 75.2038 73.592 75.2038 72.752C75.2038 71.912 75.3718 71.164 75.7078 70.508C76.0518 69.852 76.5358 69.344 77.1598 68.984C77.7838 68.616 78.5078 68.432 79.3318 68.432ZM88.5458 70.232C89.3138 70.232 89.9218 70.488 90.3698 71C90.8258 71.512 91.0538 72.216 91.0538 73.112V77H89.0018V73.352C89.0018 72.904 88.8818 72.556 88.6418 72.308C88.4098 72.052 88.0978 71.924 87.7058 71.924C87.2898 71.924 86.9578 72.056 86.7098 72.32C86.4698 72.584 86.3498 72.96 86.3498 73.448V77H84.2978V68.12H86.3498V71.528C86.5418 71.128 86.8258 70.812 87.2018 70.58C87.5858 70.348 88.0338 70.232 88.5458 70.232ZM98.5272 73.472C98.5272 73.64 98.5072 73.824 98.4672 74.024H93.8232C93.8472 74.528 93.9752 74.892 94.2072 75.116C94.4392 75.332 94.7352 75.44 95.0952 75.44C95.3992 75.44 95.6512 75.364 95.8512 75.212C96.0512 75.06 96.1832 74.864 96.2472 74.624H98.4192C98.3312 75.096 98.1392 75.52 97.8432 75.896C97.5472 76.264 97.1712 76.556 96.7152 76.772C96.2592 76.98 95.7512 77.084 95.1912 77.084C94.5352 77.084 93.9512 76.948 93.4392 76.676C92.9352 76.396 92.5392 75.996 92.2512 75.476C91.9632 74.956 91.8192 74.348 91.8192 73.652C91.8192 72.948 91.9592 72.34 92.2392 71.828C92.5272 71.308 92.9272 70.912 93.4392 70.64C93.9512 70.36 94.5352 70.22 95.1912 70.22C95.8552 70.22 96.4392 70.356 96.9432 70.628C97.4472 70.9 97.8352 71.284 98.1072 71.78C98.3872 72.268 98.5272 72.832 98.5272 73.472ZM96.4512 73.16C96.4592 72.72 96.3392 72.392 96.0912 72.176C95.8512 71.952 95.5512 71.84 95.1912 71.84C94.8152 71.84 94.5032 71.952 94.2552 72.176C94.0072 72.4 93.8672 72.728 93.8352 73.16H96.4512ZM102.381 70.22C103.245 70.22 103.969 70.46 104.553 70.94C105.137 71.412 105.505 72.064 105.657 72.896H103.485C103.421 72.608 103.289 72.384 103.089 72.224C102.889 72.064 102.637 71.984 102.333 71.984C101.973 71.984 101.677 72.128 101.445 72.416C101.213 72.696 101.097 73.108 101.097 73.652C101.097 74.196 101.213 74.612 101.445 74.9C101.677 75.18 101.973 75.32 102.333 75.32C102.637 75.32 102.889 75.24 103.089 75.08C103.289 74.92 103.421 74.696 103.485 74.408H105.657C105.505 75.24 105.137 75.896 104.553 76.376C103.969 76.848 103.245 77.084 102.381 77.084C101.725 77.084 101.141 76.948 100.629 76.676C100.125 76.396 99.7289 75.996 99.4409 75.476C99.1529 74.956 99.0089 74.348 99.0089 73.652C99.0089 72.948 99.1489 72.34 99.4289 71.828C99.7169 71.308 100.117 70.912 100.629 70.64C101.141 70.36 101.725 70.22 102.381 70.22ZM110.544 77L108.54 74.156V77H106.488V68.12H108.54V72.992L110.544 70.304H112.956L110.256 73.652L113.016 77H110.544ZM116.657 70.22C117.321 70.22 117.913 70.36 118.433 70.64C118.961 70.912 119.373 71.308 119.669 71.828C119.973 72.348 120.125 72.956 120.125 73.652C120.125 74.348 119.973 74.956 119.669 75.476C119.373 75.996 118.961 76.396 118.433 76.676C117.913 76.948 117.321 77.084 116.657 77.084C115.993 77.084 115.397 76.948 114.869 76.676C114.341 76.396 113.925 75.996 113.621 75.476C113.325 74.956 113.177 74.348 113.177 73.652C113.177 72.956 113.325 72.348 113.621 71.828C113.925 71.308 114.341 70.912 114.869 70.64C115.397 70.36 115.993 70.22 116.657 70.22ZM116.657 71.996C116.265 71.996 115.933 72.14 115.661 72.428C115.397 72.708 115.265 73.116 115.265 73.652C115.265 74.188 115.397 74.596 115.661 74.876C115.933 75.156 116.265 75.296 116.657 75.296C117.049 75.296 117.377 75.156 117.641 74.876C117.905 74.596 118.037 74.188 118.037 73.652C118.037 73.116 117.905 72.708 117.641 72.428C117.377 72.14 117.049 71.996 116.657 71.996ZM127.609 70.304V77H125.545V75.788C125.353 76.18 125.065 76.492 124.681 76.724C124.305 76.956 123.865 77.072 123.361 77.072C122.593 77.072 121.981 76.816 121.525 76.304C121.077 75.792 120.853 75.088 120.853 74.192V70.304H122.893V73.94C122.893 74.396 123.009 74.752 123.241 75.008C123.481 75.256 123.801 75.38 124.201 75.38C124.617 75.38 124.945 75.248 125.185 74.984C125.425 74.72 125.545 74.344 125.545 73.856V70.304H127.609ZM132.576 75.236V77H131.652C130.868 77 130.256 76.808 129.816 76.424C129.384 76.032 129.168 75.388 129.168 74.492V72.032H128.268V70.304H129.168V68.66H131.22V70.304H132.564V72.032H131.22V74.528C131.22 74.792 131.272 74.976 131.376 75.08C131.488 75.184 131.672 75.236 131.928 75.236H132.576Z" fill="#13172D"/>
<g filter="url(#filter1_d)">
<circle cx="108" cy="55" r="5" fill="white"/>
</g>
<circle cx="108" cy="55" r="4" fill="url(#paint5_linear)"/>
<defs>
<filter id="filter0_d" x="0" y="0" width="30" height="30" filterUnits="userSpaceOnUse" color-interpolation-filters="sRGB">
<feFlood flood-opacity="0" result="BackgroundImageFix"/>
<feColorMatrix in="SourceAlpha" type="matrix" values="0 0 0 0 0 0 0 0 0 0 0 0 0 0 0 0 0 0 127 0" result="hardAlpha"/>
<feOffset dx="2"/>
<feGaussianBlur stdDeviation="5"/>
<feColorMatrix type="matrix" values="0 0 0 0 0 0 0 0 0 0.0156863 0 0 0 0 0.156863 0 0 0 0.25 0"/>
<feBlend mode="normal" in2="BackgroundImageFix" result="effect1_dropShadow"/>
<feBlend mode="normal" in="SourceGraphic" in2="effect1_dropShadow" result="shape"/>
</filter>
<filter id="filter1_d" x="95" y="40" width="30" height="30" filterUnits="userSpaceOnUse" color-interpolation-filters="sRGB">
<feFlood flood-opacity="0" result="BackgroundImageFix"/>
<feColorMatrix in="SourceAlpha" type="matrix" values="0 0 0 0 0 0 0 0 0 0 0 0 0 0 0 0 0 0 127 0" result="hardAlpha"/>
<feOffset dx="2"/>
<feGaussianBlur stdDeviation="5"/>
<feColorMatrix type="matrix" values="0 0 0 0 0 0 0 0 0 0.0156863 0 0 0 0 0.156863 0 0 0 0.25 0"/>
<feBlend mode="normal" in2="BackgroundImageFix" result="effect1_dropShadow"/>
<feBlend mode="normal" in="SourceGraphic" in2="effect1_dropShadow" result="shape"/>
</filter>
<linearGradient id="paint0_linear" x1="108" y1="16" x2="107.978" y2="14.0002" gradientUnits="userSpaceOnUse">
<stop stop-color="#EDCE4D"/>
<stop offset="1" stop-color="#F09819"/>
</linearGradient>
<linearGradient id="paint1_linear" x1="109" y1="14" x2="107.001" y2="14.05" gradientUnits="userSpaceOnUse">
<stop stop-color="#EDCE4D"/>
<stop offset="1" stop-color="#F09819"/>
</linearGradient>
<linearGradient id="paint2_linear" x1="17" y1="19" x2="9" y2="11" gradientUnits="userSpaceOnUse">
<stop stop-color="#EDCE4D"/>
<stop offset="1" stop-color="#F09819"/>
</linearGradient>
<linearGradient id="paint3_linear" x1="148" y1="93" x2="124" y2="21" gradientUnits="userSpaceOnUse">
<stop stop-color="#EDCE4D"/>
<stop offset="1" stop-color="#F09819"/>
</linearGradient>
<linearGradient id="paint4_linear" x1="143" y1="88" x2="127.769" y2="32.1538" gradientUnits="userSpaceOnUse">
<stop stop-color="#EDCE4D"/>
<stop offset="1" stop-color="#F09819"/>
</linearGradient>
<linearGradient id="paint5_linear" x1="112" y1="59" x2="104" y2="51" gradientUnits="userSpaceOnUse">
<stop stop-color="#EDCE4D"/>
<stop offset="1" stop-color="#F09819"/>
</linearGradient>
</defs>
</svg>
