<svg width="216" height="40" viewBox="0 0 216 40" fill="none" xmlns="http://www.w3.org/2000/svg">
<rect x="96.5" y="0.5" width="119" height="39" rx="19.5" stroke="url(#paint0_linear)" stroke-dasharray="2 2"/>
<rect x="101" y="5" width="110" height="30" rx="15" fill="url(#paint1_linear)"/>
<path d="M121.394 15.516V20.412C121.394 20.972 121.518 21.4 121.766 21.696C122.022 21.992 122.39 22.14 122.87 22.14C123.35 22.14 123.714 21.992 123.962 21.696C124.218 21.4 124.346 20.972 124.346 20.412V15.516H126.398V20.412C126.398 21.212 126.242 21.888 125.93 22.44C125.618 22.984 125.19 23.396 124.646 23.676C124.11 23.948 123.502 24.084 122.822 24.084C122.142 24.084 121.542 23.948 121.022 23.676C120.502 23.404 120.094 22.992 119.798 22.44C119.502 21.888 119.354 21.212 119.354 20.412V15.516H121.394ZM129.581 21.024V24H127.529V15.516H130.853C131.861 15.516 132.629 15.768 133.157 16.272C133.685 16.768 133.949 17.44 133.949 18.288C133.949 18.816 133.829 19.288 133.589 19.704C133.357 20.112 133.009 20.436 132.545 20.676C132.081 20.908 131.517 21.024 130.853 21.024H129.581ZM130.625 19.38C131.449 19.38 131.861 19.016 131.861 18.288C131.861 17.544 131.449 17.172 130.625 17.172H129.581V19.38H130.625ZM136.771 15.516V24H134.719V15.516H136.771ZM142.162 21.024V24H140.11V15.516H143.434C144.442 15.516 145.21 15.768 145.738 16.272C146.266 16.768 146.53 17.44 146.53 18.288C146.53 18.816 146.41 19.288 146.17 19.704C145.938 20.112 145.59 20.436 145.126 20.676C144.662 20.908 144.098 21.024 143.434 21.024H142.162ZM143.206 19.38C144.03 19.38 144.442 19.016 144.442 18.288C144.442 17.544 144.03 17.172 143.206 17.172H142.162V19.38H143.206ZM149.844 17.22C150.356 17.22 150.796 17.336 151.164 17.568C151.532 17.8 151.804 18.116 151.98 18.516V17.304H154.02V24H151.98V22.788C151.804 23.188 151.532 23.504 151.164 23.736C150.796 23.968 150.356 24.084 149.844 24.084C149.292 24.084 148.796 23.948 148.356 23.676C147.924 23.396 147.58 22.996 147.324 22.476C147.076 21.956 146.952 21.348 146.952 20.652C146.952 19.948 147.076 19.34 147.324 18.828C147.58 18.308 147.924 17.912 148.356 17.64C148.796 17.36 149.292 17.22 149.844 17.22ZM150.504 19.02C150.064 19.02 149.708 19.164 149.436 19.452C149.172 19.74 149.04 20.14 149.04 20.652C149.04 21.164 149.172 21.564 149.436 21.852C149.708 22.14 150.064 22.284 150.504 22.284C150.936 22.284 151.288 22.136 151.56 21.84C151.84 21.544 151.98 21.148 151.98 20.652C151.98 20.148 151.84 19.752 151.56 19.464C151.288 19.168 150.936 19.02 150.504 19.02ZM156.741 17.304L158.349 21.408L159.849 17.304H162.117L157.941 27.192H155.685L157.257 23.748L154.449 17.304H156.741ZM171.234 17.232C172.058 17.232 172.706 17.488 173.178 18C173.65 18.504 173.886 19.208 173.886 20.112V24H171.846V20.352C171.846 19.928 171.73 19.6 171.498 19.368C171.274 19.128 170.966 19.008 170.574 19.008C170.166 19.008 169.842 19.136 169.602 19.392C169.37 19.64 169.254 19.992 169.254 20.448V24H167.202V20.352C167.202 19.928 167.09 19.6 166.866 19.368C166.642 19.128 166.334 19.008 165.942 19.008C165.534 19.008 165.21 19.132 164.97 19.38C164.73 19.628 164.61 19.984 164.61 20.448V24H162.558V17.304H164.61V18.444C164.786 18.068 165.054 17.772 165.414 17.556C165.782 17.34 166.21 17.232 166.698 17.232C167.21 17.232 167.662 17.352 168.054 17.592C168.446 17.824 168.742 18.16 168.942 18.6C169.174 18.184 169.49 17.852 169.89 17.604C170.298 17.356 170.746 17.232 171.234 17.232ZM181.369 20.472C181.369 20.64 181.349 20.824 181.309 21.024H176.665C176.689 21.528 176.817 21.892 177.049 22.116C177.281 22.332 177.577 22.44 177.937 22.44C178.241 22.44 178.493 22.364 178.693 22.212C178.893 22.06 179.025 21.864 179.089 21.624H181.261C181.173 22.096 180.981 22.52 180.685 22.896C180.389 23.264 180.013 23.556 179.557 23.772C179.101 23.98 178.593 24.084 178.033 24.084C177.377 24.084 176.793 23.948 176.281 23.676C175.777 23.396 175.381 22.996 175.093 22.476C174.805 21.956 174.661 21.348 174.661 20.652C174.661 19.948 174.801 19.34 175.081 18.828C175.369 18.308 175.769 17.912 176.281 17.64C176.793 17.36 177.377 17.22 178.033 17.22C178.697 17.22 179.281 17.356 179.785 17.628C180.289 17.9 180.677 18.284 180.949 18.78C181.229 19.268 181.369 19.832 181.369 20.472ZM179.293 20.16C179.301 19.72 179.181 19.392 178.933 19.176C178.693 18.952 178.393 18.84 178.033 18.84C177.657 18.84 177.345 18.952 177.097 19.176C176.849 19.4 176.709 19.728 176.677 20.16H179.293ZM186.447 17.232C187.215 17.232 187.823 17.488 188.271 18C188.727 18.512 188.955 19.216 188.955 20.112V24H186.903V20.352C186.903 19.904 186.783 19.556 186.543 19.308C186.311 19.052 185.999 18.924 185.607 18.924C185.191 18.924 184.859 19.056 184.611 19.32C184.371 19.584 184.251 19.96 184.251 20.448V24H182.199V17.304H184.251V18.528C184.443 18.128 184.727 17.812 185.103 17.58C185.487 17.348 185.935 17.232 186.447 17.232ZM193.861 22.236V24H192.937C192.153 24 191.541 23.808 191.101 23.424C190.669 23.032 190.453 22.388 190.453 21.492V19.032H189.553V17.304H190.453V15.66H192.505V17.304H193.849V19.032H192.505V21.528C192.505 21.792 192.557 21.976 192.661 22.08C192.773 22.184 192.957 22.236 193.213 22.236H193.861Z" fill="#13172D"/>
<line x1="17.5" y1="19.5" x2="96.5" y2="19.5" stroke="url(#paint2_linear)" stroke-linecap="round"/>
<g filter="url(#filter0_d)">
<circle cx="13" cy="20" r="5" fill="white"/>
</g>
<circle cx="13" cy="20" r="4" fill="url(#paint3_linear)"/>
<g filter="url(#filter1_d)">
<circle cx="101" cy="20" r="5" fill="white"/>
</g>
<circle cx="101" cy="20" r="4" fill="url(#paint4_linear)"/>
<defs>
<filter id="filter0_d" x="0" y="5" width="30" height="30" filterUnits="userSpaceOnUse" color-interpolation-filters="sRGB">
<feFlood flood-opacity="0" result="BackgroundImageFix"/>
<feColorMatrix in="SourceAlpha" type="matrix" values="0 0 0 0 0 0 0 0 0 0 0 0 0 0 0 0 0 0 127 0" result="hardAlpha"/>
<feOffset dx="2"/>
<feGaussianBlur stdDeviation="5"/>
<feColorMatrix type="matrix" values="0 0 0 0 0 0 0 0 0 0.0156863 0 0 0 0 0.156863 0 0 0 0.25 0"/>
<feBlend mode="normal" in2="BackgroundImageFix" result="effect1_dropShadow"/>
<feBlend mode="normal" in="SourceGraphic" in2="effect1_dropShadow" result="shape"/>
</filter>
<filter id="filter1_d" x="88" y="5" width="30" height="30" filterUnits="userSpaceOnUse" color-interpolation-filters="sRGB">
<feFlood flood-opacity="0" result="BackgroundImageFix"/>
<feColorMatrix in="SourceAlpha" type="matrix" values="0 0 0 0 0 0 0 0 0 0 0 0 0 0 0 0 0 0 127 0" result="hardAlpha"/>
<feOffset dx="2"/>
<feGaussianBlur stdDeviation="5"/>
<feColorMatrix type="matrix" values="0 0 0 0 0 0 0 0 0 0.0156863 0 0 0 0 0.156863 0 0 0 0.25 0"/>
<feBlend mode="normal" in2="BackgroundImageFix" result="effect1_dropShadow"/>
<feBlend mode="normal" in="SourceGraphic" in2="effect1_dropShadow" result="shape"/>
</filter>
<linearGradient id="paint0_linear" x1="216" y1="40" x2="192" y2="-32" gradientUnits="userSpaceOnUse">
<stop stop-color="#EDCE4D"/>
<stop offset="1" stop-color="#F09819"/>
</linearGradient>
<linearGradient id="paint1_linear" x1="211" y1="35" x2="195.769" y2="-20.8462" gradientUnits="userSpaceOnUse">
<stop stop-color="#EDCE4D"/>
<stop offset="1" stop-color="#F09819"/>
</linearGradient>
<linearGradient id="paint2_linear" x1="97" y1="21" x2="96.975" y2="19.0003" gradientUnits="userSpaceOnUse">
<stop stop-color="#EDCE4D"/>
<stop offset="1" stop-color="#F09819"/>
</linearGradient>
<linearGradient id="paint3_linear" x1="17" y1="24" x2="9" y2="16" gradientUnits="userSpaceOnUse">
<stop stop-color="#EDCE4D"/>
<stop offset="1" stop-color="#F09819"/>
</linearGradient>
<linearGradient id="paint4_linear" x1="105" y1="24" x2="97" y2="16" gradientUnits="userSpaceOnUse">
<stop stop-color="#EDCE4D"/>
<stop offset="1" stop-color="#F09819"/>
</linearGradient>
</defs>
</svg>
