<svg width="235" height="105" viewBox="0 0 235 105" fill="none" xmlns="http://www.w3.org/2000/svg">
<rect x="0.5" y="65.5" width="149" height="39" rx="19.5" stroke="url(#paint0_linear)" stroke-dasharray="2 2"/>
<rect x="5" y="70" width="140" height="30" rx="15" fill="url(#paint1_linear)"/>
<path d="M20.8649 89L19.0289 85.796H18.5609V89H16.5089V80.516H20.0129C20.6849 80.516 21.2529 80.632 21.7169 80.864C22.1809 81.096 22.5289 81.416 22.7609 81.824C22.9929 82.224 23.1089 82.684 23.1089 83.204C23.1089 83.82 22.9369 84.344 22.5929 84.776C22.2569 85.208 21.7649 85.504 21.1169 85.664L23.1329 89H20.8649ZM18.5609 84.392H19.8329C20.2409 84.392 20.5409 84.304 20.7329 84.128C20.9249 83.944 21.0209 83.676 21.0209 83.324C21.0209 82.988 20.9209 82.724 20.7209 82.532C20.5289 82.34 20.2329 82.244 19.8329 82.244H18.5609V84.392ZM30.2578 85.472C30.2578 85.64 30.2378 85.824 30.1978 86.024H25.5538C25.5778 86.528 25.7058 86.892 25.9378 87.116C26.1698 87.332 26.4658 87.44 26.8258 87.44C27.1298 87.44 27.3818 87.364 27.5818 87.212C27.7818 87.06 27.9138 86.864 27.9778 86.624H30.1498C30.0618 87.096 29.8698 87.52 29.5738 87.896C29.2778 88.264 28.9018 88.556 28.4458 88.772C27.9898 88.98 27.4818 89.084 26.9218 89.084C26.2658 89.084 25.6818 88.948 25.1698 88.676C24.6658 88.396 24.2698 87.996 23.9818 87.476C23.6938 86.956 23.5498 86.348 23.5498 85.652C23.5498 84.948 23.6898 84.34 23.9698 83.828C24.2578 83.308 24.6578 82.912 25.1698 82.64C25.6818 82.36 26.2658 82.22 26.9218 82.22C27.5858 82.22 28.1698 82.356 28.6738 82.628C29.1778 82.9 29.5658 83.284 29.8378 83.78C30.1178 84.268 30.2578 84.832 30.2578 85.472ZM28.1818 85.16C28.1898 84.72 28.0698 84.392 27.8218 84.176C27.5818 83.952 27.2818 83.84 26.9218 83.84C26.5458 83.84 26.2338 83.952 25.9858 84.176C25.7378 84.4 25.5978 84.728 25.5658 85.16H28.1818ZM40.8795 82.304L39.1635 89H36.8715L35.6595 84.512L34.4355 89H32.1435L30.4275 82.304H32.4795L33.3675 87.128L34.6155 82.304H36.7995L38.0835 87.14L38.9715 82.304H40.8795ZM43.9266 82.22C44.4386 82.22 44.8786 82.336 45.2466 82.568C45.6146 82.8 45.8866 83.116 46.0626 83.516V82.304H48.1026V89H46.0626V87.788C45.8866 88.188 45.6146 88.504 45.2466 88.736C44.8786 88.968 44.4386 89.084 43.9266 89.084C43.3746 89.084 42.8786 88.948 42.4386 88.676C42.0066 88.396 41.6626 87.996 41.4066 87.476C41.1586 86.956 41.0346 86.348 41.0346 85.652C41.0346 84.948 41.1586 84.34 41.4066 83.828C41.6626 83.308 42.0066 82.912 42.4386 82.64C42.8786 82.36 43.3746 82.22 43.9266 82.22ZM44.5866 84.02C44.1466 84.02 43.7906 84.164 43.5186 84.452C43.2546 84.74 43.1226 85.14 43.1226 85.652C43.1226 86.164 43.2546 86.564 43.5186 86.852C43.7906 87.14 44.1466 87.284 44.5866 87.284C45.0186 87.284 45.3706 87.136 45.6426 86.84C45.9226 86.544 46.0626 86.148 46.0626 85.652C46.0626 85.148 45.9226 84.752 45.6426 84.464C45.3706 84.168 45.0186 84.02 44.5866 84.02ZM51.3274 83.564C51.5834 83.156 51.9114 82.832 52.3114 82.592C52.7194 82.352 53.1594 82.232 53.6314 82.232V84.428H53.0434C52.4994 84.428 52.0754 84.544 51.7714 84.776C51.4754 85.008 51.3274 85.4 51.3274 85.952V89H49.2754V82.304H51.3274V83.564ZM56.7943 82.22C57.3063 82.22 57.7463 82.336 58.1143 82.568C58.4823 82.8 58.7503 83.116 58.9183 83.516V80.12H60.9703V89H58.9183V87.788C58.7503 88.188 58.4823 88.504 58.1143 88.736C57.7463 88.968 57.3063 89.084 56.7943 89.084C56.2423 89.084 55.7463 88.948 55.3063 88.676C54.8743 88.396 54.5303 87.996 54.2743 87.476C54.0263 86.956 53.9023 86.348 53.9023 85.652C53.9023 84.948 54.0263 84.34 54.2743 83.828C54.5303 83.308 54.8743 82.912 55.3063 82.64C55.7463 82.36 56.2423 82.22 56.7943 82.22ZM57.4543 84.02C57.0143 84.02 56.6583 84.164 56.3863 84.452C56.1223 84.74 55.9903 85.14 55.9903 85.652C55.9903 86.164 56.1223 86.564 56.3863 86.852C56.6583 87.14 57.0143 87.284 57.4543 87.284C57.8863 87.284 58.2383 87.136 58.5103 86.84C58.7903 86.544 58.9303 86.148 58.9303 85.652C58.9303 85.148 58.7903 84.752 58.5103 84.464C58.2383 84.168 57.8863 84.02 57.4543 84.02ZM64.5791 82.22C65.4271 82.22 66.1031 82.432 66.6071 82.856C67.1191 83.28 67.4391 83.84 67.5671 84.536H65.6471C65.5911 84.264 65.4631 84.052 65.2631 83.9C65.0711 83.74 64.8271 83.66 64.5311 83.66C64.2991 83.66 64.1231 83.712 64.0031 83.816C63.8831 83.912 63.8231 84.052 63.8231 84.236C63.8231 84.444 63.9311 84.6 64.1471 84.704C64.3711 84.808 64.7191 84.912 65.1911 85.016C65.7031 85.136 66.1231 85.26 66.4511 85.388C66.7791 85.508 67.0631 85.708 67.3031 85.988C67.5431 86.268 67.6631 86.644 67.6631 87.116C67.6631 87.5 67.5591 87.84 67.3511 88.136C67.1431 88.432 66.8431 88.664 66.4511 88.832C66.0591 89 65.5951 89.084 65.0591 89.084C64.1551 89.084 63.4311 88.884 62.8871 88.484C62.3431 88.084 62.0111 87.512 61.8911 86.768H63.8711C63.9031 87.056 64.0231 87.276 64.2311 87.428C64.4471 87.58 64.7231 87.656 65.0591 87.656C65.2911 87.656 65.4671 87.604 65.5871 87.5C65.7071 87.388 65.7671 87.244 65.7671 87.068C65.7671 86.836 65.6551 86.672 65.4311 86.576C65.2151 86.472 64.8591 86.364 64.3631 86.252C63.8671 86.148 63.4591 86.036 63.1391 85.916C62.8191 85.796 62.5431 85.604 62.3111 85.34C62.0791 85.068 61.9631 84.7 61.9631 84.236C61.9631 83.636 62.1911 83.152 62.6471 82.784C63.1031 82.408 63.7471 82.22 64.5791 82.22ZM76.2417 89L75.2577 87.812C75.1777 87.94 75.1097 88.04 75.0537 88.112C74.8777 88.408 74.6177 88.644 74.2737 88.82C73.9377 88.996 73.5457 89.084 73.0977 89.084C72.5297 89.084 72.0377 88.968 71.6217 88.736C71.2137 88.504 70.9017 88.192 70.6857 87.8C70.4697 87.4 70.3617 86.952 70.3617 86.456C70.3617 85.76 70.5457 85.192 70.9137 84.752C71.2817 84.304 71.7537 84.044 72.3297 83.972L72.1857 83.732C72.0577 83.532 71.9617 83.332 71.8977 83.132C71.8337 82.932 71.8017 82.712 71.8017 82.472C71.8017 82.112 71.8977 81.776 72.0897 81.464C72.2817 81.152 72.5617 80.904 72.9297 80.72C73.3057 80.528 73.7537 80.432 74.2737 80.432C75.0017 80.432 75.5657 80.588 75.9657 80.9C76.3657 81.204 76.6377 81.604 76.7817 82.1C76.8937 82.452 76.9377 82.84 76.9137 83.264H75.0057C75.0057 83.128 74.9977 82.98 74.9817 82.82C74.9577 82.364 74.7337 82.136 74.3097 82.136C74.1337 82.136 73.9897 82.188 73.8777 82.292C73.7737 82.396 73.7217 82.528 73.7217 82.688C73.7217 82.824 73.7497 82.948 73.8057 83.06C73.8697 83.172 73.9697 83.32 74.1057 83.504L78.3057 89H76.2417ZM73.1217 87.38C73.4017 87.38 73.6297 87.292 73.8057 87.116C73.9897 86.94 74.0817 86.716 74.0817 86.444C74.0817 86.164 73.9817 85.932 73.7817 85.748C73.5817 85.564 73.3417 85.472 73.0617 85.472C72.7817 85.472 72.5537 85.552 72.3777 85.712C72.2097 85.872 72.1257 86.1 72.1257 86.396C72.1257 86.692 72.2177 86.932 72.4017 87.116C72.5937 87.292 72.8337 87.38 73.1217 87.38ZM84.8403 80.432C85.9203 80.432 86.8123 80.716 87.5163 81.284C88.2283 81.852 88.6883 82.62 88.8963 83.588H86.7243C86.5643 83.196 86.3163 82.888 85.9803 82.664C85.6523 82.44 85.2603 82.328 84.8043 82.328C84.2043 82.328 83.7203 82.548 83.3523 82.988C82.9843 83.428 82.8003 84.016 82.8003 84.752C82.8003 85.488 82.9843 86.076 83.3523 86.516C83.7203 86.948 84.2043 87.164 84.8043 87.164C85.2603 87.164 85.6523 87.052 85.9803 86.828C86.3163 86.604 86.5643 86.3 86.7243 85.916H88.8963C88.6883 86.876 88.2283 87.644 87.5163 88.22C86.8123 88.788 85.9203 89.072 84.8403 89.072C84.0163 89.072 83.2923 88.892 82.6683 88.532C82.0443 88.164 81.5603 87.652 81.2163 86.996C80.8803 86.34 80.7123 85.592 80.7123 84.752C80.7123 83.912 80.8803 83.164 81.2163 82.508C81.5603 81.852 82.0443 81.344 82.6683 80.984C83.2923 80.616 84.0163 80.432 84.8403 80.432ZM92.9384 82.22C93.6024 82.22 94.1944 82.36 94.7144 82.64C95.2424 82.912 95.6544 83.308 95.9504 83.828C96.2544 84.348 96.4064 84.956 96.4064 85.652C96.4064 86.348 96.2544 86.956 95.9504 87.476C95.6544 87.996 95.2424 88.396 94.7144 88.676C94.1944 88.948 93.6024 89.084 92.9384 89.084C92.2744 89.084 91.6784 88.948 91.1504 88.676C90.6224 88.396 90.2064 87.996 89.9024 87.476C89.6064 86.956 89.4584 86.348 89.4584 85.652C89.4584 84.956 89.6064 84.348 89.9024 83.828C90.2064 83.308 90.6224 82.912 91.1504 82.64C91.6784 82.36 92.2744 82.22 92.9384 82.22ZM92.9384 83.996C92.5464 83.996 92.2144 84.14 91.9424 84.428C91.6784 84.708 91.5464 85.116 91.5464 85.652C91.5464 86.188 91.6784 86.596 91.9424 86.876C92.2144 87.156 92.5464 87.296 92.9384 87.296C93.3304 87.296 93.6584 87.156 93.9224 86.876C94.1864 86.596 94.3184 86.188 94.3184 85.652C94.3184 85.116 94.1864 84.708 93.9224 84.428C93.6584 84.14 93.3304 83.996 92.9384 83.996ZM103.89 82.304V89H101.826V87.788C101.634 88.18 101.346 88.492 100.962 88.724C100.586 88.956 100.146 89.072 99.6424 89.072C98.8744 89.072 98.2624 88.816 97.8064 88.304C97.3584 87.792 97.1344 87.088 97.1344 86.192V82.304H99.1744V85.94C99.1744 86.396 99.2904 86.752 99.5224 87.008C99.7624 87.256 100.082 87.38 100.482 87.38C100.898 87.38 101.226 87.248 101.466 86.984C101.706 86.72 101.826 86.344 101.826 85.856V82.304H103.89ZM109.241 82.22C109.793 82.22 110.285 82.36 110.717 82.64C111.157 82.912 111.501 83.308 111.749 83.828C112.005 84.34 112.133 84.948 112.133 85.652C112.133 86.348 112.005 86.956 111.749 87.476C111.501 87.996 111.157 88.396 110.717 88.676C110.285 88.948 109.793 89.084 109.241 89.084C108.729 89.084 108.289 88.968 107.921 88.736C107.553 88.504 107.285 88.188 107.117 87.788V92.192H105.065V82.304H107.117V83.516C107.285 83.116 107.553 82.8 107.921 82.568C108.289 82.336 108.729 82.22 109.241 82.22ZM108.581 84.02C108.149 84.02 107.793 84.168 107.513 84.464C107.241 84.752 107.105 85.148 107.105 85.652C107.105 86.148 107.241 86.544 107.513 86.84C107.793 87.136 108.149 87.284 108.581 87.284C109.021 87.284 109.373 87.14 109.637 86.852C109.909 86.564 110.045 86.164 110.045 85.652C110.045 85.14 109.909 84.74 109.637 84.452C109.373 84.164 109.021 84.02 108.581 84.02ZM116.089 82.22C116.753 82.22 117.345 82.36 117.865 82.64C118.393 82.912 118.805 83.308 119.101 83.828C119.405 84.348 119.557 84.956 119.557 85.652C119.557 86.348 119.405 86.956 119.101 87.476C118.805 87.996 118.393 88.396 117.865 88.676C117.345 88.948 116.753 89.084 116.089 89.084C115.425 89.084 114.829 88.948 114.301 88.676C113.773 88.396 113.357 87.996 113.053 87.476C112.757 86.956 112.609 86.348 112.609 85.652C112.609 84.956 112.757 84.348 113.053 83.828C113.357 83.308 113.773 82.912 114.301 82.64C114.829 82.36 115.425 82.22 116.089 82.22ZM116.089 83.996C115.697 83.996 115.365 84.14 115.093 84.428C114.829 84.708 114.697 85.116 114.697 85.652C114.697 86.188 114.829 86.596 115.093 86.876C115.365 87.156 115.697 87.296 116.089 87.296C116.481 87.296 116.809 87.156 117.073 86.876C117.337 86.596 117.469 86.188 117.469 85.652C117.469 85.116 117.337 84.708 117.073 84.428C116.809 84.14 116.481 83.996 116.089 83.996ZM124.63 82.232C125.398 82.232 126.006 82.488 126.454 83C126.91 83.512 127.138 84.216 127.138 85.112V89H125.086V85.352C125.086 84.904 124.966 84.556 124.726 84.308C124.494 84.052 124.182 83.924 123.79 83.924C123.374 83.924 123.042 84.056 122.794 84.32C122.554 84.584 122.434 84.96 122.434 85.448V89H120.382V82.304H122.434V83.528C122.626 83.128 122.91 82.812 123.286 82.58C123.67 82.348 124.118 82.232 124.63 82.232ZM130.687 82.22C131.535 82.22 132.211 82.432 132.715 82.856C133.227 83.28 133.547 83.84 133.675 84.536H131.755C131.699 84.264 131.571 84.052 131.371 83.9C131.179 83.74 130.935 83.66 130.639 83.66C130.407 83.66 130.231 83.712 130.111 83.816C129.991 83.912 129.931 84.052 129.931 84.236C129.931 84.444 130.039 84.6 130.255 84.704C130.479 84.808 130.827 84.912 131.299 85.016C131.811 85.136 132.231 85.26 132.559 85.388C132.887 85.508 133.171 85.708 133.411 85.988C133.651 86.268 133.771 86.644 133.771 87.116C133.771 87.5 133.667 87.84 133.459 88.136C133.251 88.432 132.951 88.664 132.559 88.832C132.167 89 131.703 89.084 131.167 89.084C130.263 89.084 129.539 88.884 128.995 88.484C128.451 88.084 128.119 87.512 127.999 86.768H129.979C130.011 87.056 130.131 87.276 130.339 87.428C130.555 87.58 130.831 87.656 131.167 87.656C131.399 87.656 131.575 87.604 131.695 87.5C131.815 87.388 131.875 87.244 131.875 87.068C131.875 86.836 131.763 86.672 131.539 86.576C131.323 86.472 130.967 86.364 130.471 86.252C129.975 86.148 129.567 86.036 129.247 85.916C128.927 85.796 128.651 85.604 128.419 85.34C128.187 85.068 128.071 84.7 128.071 84.236C128.071 83.636 128.299 83.152 128.755 82.784C129.211 82.408 129.855 82.22 130.687 82.22Z" fill="#13172D"/>
<line x1="74.5" y1="14.5" x2="213.5" y2="14.5" stroke="url(#paint2_linear)" stroke-linecap="round"/>
<line x1="74.5" y1="64.5" x2="74.5" y2="14.5" stroke="url(#paint3_linear)" stroke-linecap="round"/>
<g filter="url(#filter0_d)">
<circle cx="75" cy="65" r="5" fill="white"/>
</g>
<circle cx="75" cy="65" r="4" fill="url(#paint4_linear)"/>
<g filter="url(#filter1_d)">
<circle cx="218" cy="15" r="5" fill="white"/>
</g>
<circle cx="218" cy="15" r="4" fill="url(#paint5_linear)"/>
<defs>
<filter id="filter0_d" x="62" y="50" width="30" height="30" filterUnits="userSpaceOnUse" color-interpolation-filters="sRGB">
<feFlood flood-opacity="0" result="BackgroundImageFix"/>
<feColorMatrix in="SourceAlpha" type="matrix" values="0 0 0 0 0 0 0 0 0 0 0 0 0 0 0 0 0 0 127 0" result="hardAlpha"/>
<feOffset dx="2"/>
<feGaussianBlur stdDeviation="5"/>
<feColorMatrix type="matrix" values="0 0 0 0 0 0 0 0 0 0.0156863 0 0 0 0 0.156863 0 0 0 0.25 0"/>
<feBlend mode="normal" in2="BackgroundImageFix" result="effect1_dropShadow"/>
<feBlend mode="normal" in="SourceGraphic" in2="effect1_dropShadow" result="shape"/>
</filter>
<filter id="filter1_d" x="205" y="0" width="30" height="30" filterUnits="userSpaceOnUse" color-interpolation-filters="sRGB">
<feFlood flood-opacity="0" result="BackgroundImageFix"/>
<feColorMatrix in="SourceAlpha" type="matrix" values="0 0 0 0 0 0 0 0 0 0 0 0 0 0 0 0 0 0 127 0" result="hardAlpha"/>
<feOffset dx="2"/>
<feGaussianBlur stdDeviation="5"/>
<feColorMatrix type="matrix" values="0 0 0 0 0 0 0 0 0 0.0156863 0 0 0 0 0.156863 0 0 0 0.25 0"/>
<feBlend mode="normal" in2="BackgroundImageFix" result="effect1_dropShadow"/>
<feBlend mode="normal" in="SourceGraphic" in2="effect1_dropShadow" result="shape"/>
</filter>
<linearGradient id="paint0_linear" x1="150" y1="105" x2="130.083" y2="30.3112" gradientUnits="userSpaceOnUse">
<stop stop-color="#EDCE4D"/>
<stop offset="1" stop-color="#F09819"/>
</linearGradient>
<linearGradient id="paint1_linear" x1="145" y1="100" x2="132.707" y2="42.6341" gradientUnits="userSpaceOnUse">
<stop stop-color="#EDCE4D"/>
<stop offset="1" stop-color="#F09819"/>
</linearGradient>
<linearGradient id="paint2_linear" x1="214" y1="16" x2="213.986" y2="14.0001" gradientUnits="userSpaceOnUse">
<stop stop-color="#EDCE4D"/>
<stop offset="1" stop-color="#F09819"/>
</linearGradient>
<linearGradient id="paint3_linear" x1="76" y1="14" x2="74.0008" y2="14.0392" gradientUnits="userSpaceOnUse">
<stop stop-color="#EDCE4D"/>
<stop offset="1" stop-color="#F09819"/>
</linearGradient>
<linearGradient id="paint4_linear" x1="79" y1="69" x2="71" y2="61" gradientUnits="userSpaceOnUse">
<stop stop-color="#EDCE4D"/>
<stop offset="1" stop-color="#F09819"/>
</linearGradient>
<linearGradient id="paint5_linear" x1="222" y1="19" x2="214" y2="11" gradientUnits="userSpaceOnUse">
<stop stop-color="#EDCE4D"/>
<stop offset="1" stop-color="#F09819"/>
</linearGradient>
</defs>
</svg>
