<svg width="44" height="44" viewBox="0 0 44 44" fill="none" xmlns="http://www.w3.org/2000/svg">
<path d="M32.111 12H11.021C10.501 12 10.071 12.4 10.021 12.92L8.02098 37.59C7.78098 39.95 9.63098 42 12.001 42H31.131C33.501 42 35.351 39.95 35.111 37.59L33.111 12.92C33.071 12.4 32.631 12 32.111 12Z" stroke="#F09819" stroke-width="3" stroke-miterlimit="10" stroke-linecap="round" stroke-linejoin="round"/>
<path d="M27.5625 12V8C27.5625 4.69 24.8725 2 21.5625 2C18.2525 2 15.5625 4.69 15.5625 8V12" stroke="#F09819" stroke-width="3" stroke-miterlimit="10" stroke-linecap="round" stroke-linejoin="round"/>
<path d="M22.9025 19L22.0025 24.85H27.5625C25.1325 28.25 22.7225 31.63 20.3225 35L21.1925 28.42H15.5625L22.9025 19Z" fill="#F09819"/>
</svg>
