<svg width="40" height="40" viewBox="0 0 40 40" fill="none" xmlns="http://www.w3.org/2000/svg">
<path fill-rule="evenodd" clip-rule="evenodd" d="M37.484 4.58811L35.742 6.32973C39.041 10.6497 38.7296 16.8573 34.7786 20.7978L32.1705 23.4054C31.8883 23.6973 31.5088 23.8335 31.139 23.8335C30.7692 23.8335 30.3896 23.6876 30.1074 23.4054L16.5999 9.90054C16.0258 9.33622 16.0258 8.41189 16.5999 7.83784L19.208 5.23027C21.2808 3.14811 24.0543 2 26.9933 2C29.4457 2 31.7618 2.80757 33.6789 4.26703L35.4209 2.52541C35.9853 1.95135 36.9098 1.96108 37.484 2.52541C38.0581 3.08973 38.0581 4.02378 37.484 4.58811ZM31.139 20.3113L32.7155 18.7351C35.8783 15.5827 35.8783 10.4454 32.7155 7.29297C29.5624 4.14054 24.4241 4.14054 21.2711 7.29297L19.6946 8.86919L31.139 20.3113ZM19.0036 25.692L22.3999 22.2963C22.9741 21.7222 23.8888 21.732 24.463 22.2963C25.0372 22.8606 25.0372 23.7849 24.463 24.359L21.0667 27.7547L23.412 30.0995C23.9861 30.6638 23.9861 31.5882 23.412 32.1622L20.8039 34.7795C18.663 36.9298 15.8408 38.0001 13.0186 38.0001C10.6538 38.0001 8.29878 37.2314 6.333 35.733L4.49373 37.572C4.21151 37.8541 3.83198 38.0001 3.46217 38.0001C3.09237 38.0001 2.71284 37.8541 2.43062 37.5622C1.85646 36.9979 1.85646 36.0736 2.43062 35.4995L4.2699 33.6606C2.81016 31.7536 2.00243 29.4379 2.00243 26.986C2.00243 24.0476 3.15076 21.2844 5.23333 19.2022L7.8414 16.5947C8.40583 16.0206 9.33034 16.0206 9.9045 16.5947L12.2498 18.9395L15.6462 15.5438C16.2106 14.9698 17.1351 14.9795 17.7093 15.5438C18.2834 16.1082 18.2834 17.0325 17.7093 17.6065L14.3129 21.0022L19.0036 25.692ZM7.29643 32.7071C10.4495 35.8595 15.5878 35.8595 18.7408 32.7071L20.3173 31.1309L8.87295 19.6887L7.29643 21.2649C4.14339 24.4174 4.14339 29.5547 7.29643 32.7071Z" fill="url(#paint0_linear)"/>
<defs>
<linearGradient id="paint0_linear" x1="-6.87233e-08" y1="-4.40342e-08" x2="40.1614" y2="0.162696" gradientUnits="userSpaceOnUse">
<stop stop-color="#F1991A"/>
<stop offset="1" stop-color="#F5B353"/>
</linearGradient>
</defs>
</svg>
