<svg width="36" height="36" viewBox="0 0 36 36" fill="none" xmlns="http://www.w3.org/2000/svg">
<path d="M18 26L19.39 25.14C22.88 22.99 25 19.52 25 15.43V13.09C25 13.09 21.5 12.65 18 10C14.5 12.65 11 13.09 11 13.09V15.43C11 19.52 13.12 22.99 16.61 25.14L18 26Z" fill="#F09819"/>
<path d="M26.4706 34H9.52941C5.36941 34 2 30.6306 2 26.4706V9.52941C2 5.36941 5.36941 2 9.52941 2H26.4706C30.6306 2 34 5.36941 34 9.52941V26.4706C34 30.6306 30.6306 34 26.4706 34Z" stroke="#F09819" stroke-width="3" stroke-miterlimit="10" stroke-linecap="round" stroke-linejoin="round"/>
</svg>
