<svg width="44" height="44" viewBox="0 0 44 44" fill="none" xmlns="http://www.w3.org/2000/svg">
<path d="M16.5488 12.8H28.2631" stroke="#F09819" stroke-width="3" stroke-miterlimit="10" stroke-linecap="round" stroke-linejoin="round"/>
<path d="M16.5488 17.2905H28.2631" stroke="#F09819" stroke-width="3" stroke-miterlimit="10" stroke-linecap="round" stroke-linejoin="round"/>
<path d="M24.8488 30.3813L17.5273 21.5955H22.4083H22.3985C25.0343 19.2722 25.0733 15.182 22.4864 12.8" stroke="#F09819" stroke-width="3" stroke-miterlimit="10" stroke-linecap="round" stroke-linejoin="round"/>
<path d="M29.3457 33.2998L33.1431 34.2467L32.1962 38.0343" stroke="#F09819" stroke-width="3" stroke-miterlimit="10" stroke-linecap="round" stroke-linejoin="round"/>
<path d="M9.8712 27.2769L8.73882 31.0157L5 29.8735" stroke="#F09819" stroke-width="3" stroke-miterlimit="10" stroke-linecap="round" stroke-linejoin="round"/>
<path d="M33.1442 34.2466C30.2547 36.7066 26.4963 38.1904 22.4061 38.1904C18.3061 38.1904 14.5575 36.7066 11.668 34.2466" stroke="#F09819" stroke-width="3" stroke-miterlimit="10" stroke-linecap="round" stroke-linejoin="round"/>
<path d="M8.73912 31.0155C6.89412 28.3408 5.81055 25.0998 5.81055 21.5953C5.81055 12.4288 13.2394 5 22.4058 5C31.5723 5 39.0011 12.4288 39.0011 21.5953C39.0011 25.0315 37.9566 28.2236 36.1701 30.8691" stroke="#F09819" stroke-width="3" stroke-miterlimit="10" stroke-linecap="round" stroke-linejoin="round"/>
</svg>
