<svg width="294" height="40" viewBox="0 0 294 40" fill="none" xmlns="http://www.w3.org/2000/svg">
<rect x="-0.5" y="0.5" width="229" height="39" rx="19.5" transform="matrix(-1 0 0 1 229 0)" stroke="#E31B1B" stroke-dasharray="2 2"/>
<rect width="220" height="30" rx="15" transform="matrix(-1 0 0 1 225 5)" fill="#E31B1B"/>
<path d="M24.0317 15.432C25.1117 15.432 26.0037 15.716 26.7077 16.284C27.4197 16.852 27.8797 17.62 28.0877 18.588H25.9157C25.7557 18.196 25.5077 17.888 25.1717 17.664C24.8437 17.44 24.4517 17.328 23.9957 17.328C23.3957 17.328 22.9117 17.548 22.5437 17.988C22.1757 18.428 21.9917 19.016 21.9917 19.752C21.9917 20.488 22.1757 21.076 22.5437 21.516C22.9117 21.948 23.3957 22.164 23.9957 22.164C24.4517 22.164 24.8437 22.052 25.1717 21.828C25.5077 21.604 25.7557 21.3 25.9157 20.916H28.0877C27.8797 21.876 27.4197 22.644 26.7077 23.22C26.0037 23.788 25.1117 24.072 24.0317 24.072C23.2077 24.072 22.4837 23.892 21.8597 23.532C21.2357 23.164 20.7517 22.652 20.4077 21.996C20.0717 21.34 19.9037 20.592 19.9037 19.752C19.9037 18.912 20.0717 18.164 20.4077 17.508C20.7517 16.852 21.2357 16.344 21.8597 15.984C22.4837 15.616 23.2077 15.432 24.0317 15.432ZM33.0297 15.384C33.8297 15.384 34.5537 15.572 35.2017 15.948C35.8577 16.316 36.3737 16.832 36.7497 17.496C37.1257 18.152 37.3137 18.896 37.3137 19.728C37.3137 20.56 37.1217 21.308 36.7377 21.972C36.3617 22.636 35.8457 23.156 35.1897 23.532C34.5417 23.9 33.8217 24.084 33.0297 24.084C32.2377 24.084 31.5137 23.9 30.8577 23.532C30.2097 23.156 29.6937 22.636 29.3097 21.972C28.9337 21.308 28.7457 20.56 28.7457 19.728C28.7457 18.896 28.9337 18.152 29.3097 17.496C29.6937 16.832 30.2097 16.316 30.8577 15.948C31.5137 15.572 32.2377 15.384 33.0297 15.384ZM33.0297 17.292C32.3577 17.292 31.8217 17.512 31.4217 17.952C31.0297 18.384 30.8337 18.976 30.8337 19.728C30.8337 20.472 31.0297 21.064 31.4217 21.504C31.8217 21.944 32.3577 22.164 33.0297 22.164C33.6937 22.164 34.2257 21.944 34.6257 21.504C35.0257 21.064 35.2257 20.472 35.2257 19.728C35.2257 18.984 35.0257 18.392 34.6257 17.952C34.2337 17.512 33.7017 17.292 33.0297 17.292ZM45.8584 19.74C45.8584 20.572 45.6784 21.312 45.3184 21.96C44.9664 22.6 44.4544 23.1 43.7824 23.46C43.1184 23.82 42.3344 24 41.4304 24H38.2264V15.516H41.4304C42.3424 15.516 43.1304 15.692 43.7944 16.044C44.4584 16.396 44.9664 16.892 45.3184 17.532C45.6784 18.172 45.8584 18.908 45.8584 19.74ZM41.2504 22.164C42.0504 22.164 42.6704 21.952 43.1104 21.528C43.5584 21.104 43.7824 20.508 43.7824 19.74C43.7824 18.972 43.5584 18.376 43.1104 17.952C42.6704 17.528 42.0504 17.316 41.2504 17.316H40.2784V22.164H41.2504ZM56.5816 19.74C56.5816 20.572 56.4016 21.312 56.0416 21.96C55.6896 22.6 55.1776 23.1 54.5056 23.46C53.8416 23.82 53.0576 24 52.1536 24H48.9496V15.516H52.1536C53.0656 15.516 53.8536 15.692 54.5176 16.044C55.1816 16.396 55.6896 16.892 56.0416 17.532C56.4016 18.172 56.5816 18.908 56.5816 19.74ZM51.9736 22.164C52.7736 22.164 53.3936 21.952 53.8336 21.528C54.2816 21.104 54.5056 20.508 54.5056 19.74C54.5056 18.972 54.2816 18.376 53.8336 17.952C53.3936 17.528 52.7736 17.316 51.9736 17.316H51.0016V22.164H51.9736ZM57.3183 15.42C57.3183 15.108 57.4303 14.852 57.6543 14.652C57.8783 14.444 58.1743 14.34 58.5423 14.34C58.9103 14.34 59.2063 14.444 59.4303 14.652C59.6543 14.852 59.7663 15.108 59.7663 15.42C59.7663 15.724 59.6543 15.98 59.4303 16.188C59.2063 16.388 58.9103 16.488 58.5423 16.488C58.1743 16.488 57.8783 16.388 57.6543 16.188C57.4303 15.98 57.3183 15.724 57.3183 15.42ZM59.5623 17.304V24H57.5103V17.304H59.5623ZM63.1751 17.22C64.0231 17.22 64.6991 17.432 65.2031 17.856C65.7151 18.28 66.0351 18.84 66.1631 19.536H64.2431C64.1871 19.264 64.0591 19.052 63.8591 18.9C63.6671 18.74 63.4231 18.66 63.1271 18.66C62.8951 18.66 62.7191 18.712 62.5991 18.816C62.4791 18.912 62.4191 19.052 62.4191 19.236C62.4191 19.444 62.5271 19.6 62.7431 19.704C62.9671 19.808 63.3151 19.912 63.7871 20.016C64.2991 20.136 64.7191 20.26 65.0471 20.388C65.3751 20.508 65.6591 20.708 65.8991 20.988C66.1391 21.268 66.2591 21.644 66.2591 22.116C66.2591 22.5 66.1551 22.84 65.9471 23.136C65.7391 23.432 65.4391 23.664 65.0471 23.832C64.6551 24 64.1911 24.084 63.6551 24.084C62.7511 24.084 62.0271 23.884 61.4831 23.484C60.9391 23.084 60.6071 22.512 60.4871 21.768H62.4671C62.4991 22.056 62.6191 22.276 62.8271 22.428C63.0431 22.58 63.3191 22.656 63.6551 22.656C63.8871 22.656 64.0631 22.604 64.1831 22.5C64.3031 22.388 64.3631 22.244 64.3631 22.068C64.3631 21.836 64.2511 21.672 64.0271 21.576C63.8111 21.472 63.4551 21.364 62.9591 21.252C62.4631 21.148 62.0551 21.036 61.7351 20.916C61.4151 20.796 61.1391 20.604 60.9071 20.34C60.6751 20.068 60.5591 19.7 60.5591 19.236C60.5591 18.636 60.7871 18.152 61.2431 17.784C61.6991 17.408 62.3431 17.22 63.1751 17.22ZM69.6993 17.22C70.2113 17.22 70.6513 17.336 71.0193 17.568C71.3873 17.8 71.6593 18.116 71.8353 18.516V17.304H73.8753V24H71.8353V22.788C71.6593 23.188 71.3873 23.504 71.0193 23.736C70.6513 23.968 70.2113 24.084 69.6993 24.084C69.1473 24.084 68.6513 23.948 68.2113 23.676C67.7793 23.396 67.4353 22.996 67.1793 22.476C66.9313 21.956 66.8073 21.348 66.8073 20.652C66.8073 19.948 66.9313 19.34 67.1793 18.828C67.4353 18.308 67.7793 17.912 68.2113 17.64C68.6513 17.36 69.1473 17.22 69.6993 17.22ZM70.3593 19.02C69.9193 19.02 69.5633 19.164 69.2913 19.452C69.0273 19.74 68.8953 20.14 68.8953 20.652C68.8953 21.164 69.0273 21.564 69.2913 21.852C69.5633 22.14 69.9193 22.284 70.3593 22.284C70.7913 22.284 71.1433 22.136 71.4153 21.84C71.6953 21.544 71.8353 21.148 71.8353 20.652C71.8353 20.148 71.6953 19.752 71.4153 19.464C71.1433 19.168 70.7913 19.02 70.3593 19.02ZM79.2242 17.22C79.7762 17.22 80.2682 17.36 80.7002 17.64C81.1402 17.912 81.4842 18.308 81.7322 18.828C81.9882 19.34 82.1162 19.948 82.1162 20.652C82.1162 21.348 81.9882 21.956 81.7322 22.476C81.4842 22.996 81.1402 23.396 80.7002 23.676C80.2682 23.948 79.7762 24.084 79.2242 24.084C78.7122 24.084 78.2722 23.968 77.9042 23.736C77.5362 23.504 77.2682 23.188 77.1002 22.788V24H75.0482V15.12H77.1002V18.516C77.2682 18.116 77.5362 17.8 77.9042 17.568C78.2722 17.336 78.7122 17.22 79.2242 17.22ZM78.5642 19.02C78.1322 19.02 77.7762 19.168 77.4962 19.464C77.2242 19.752 77.0882 20.148 77.0882 20.652C77.0882 21.148 77.2242 21.544 77.4962 21.84C77.7762 22.136 78.1322 22.284 78.5642 22.284C79.0042 22.284 79.3562 22.14 79.6202 21.852C79.8922 21.564 80.0282 21.164 80.0282 20.652C80.0282 20.14 79.8922 19.74 79.6202 19.452C79.3562 19.164 79.0042 19.02 78.5642 19.02ZM84.993 15.12V24H82.941V15.12H84.993ZM92.5297 20.472C92.5297 20.64 92.5097 20.824 92.4697 21.024H87.8257C87.8497 21.528 87.9777 21.892 88.2097 22.116C88.4417 22.332 88.7377 22.44 89.0977 22.44C89.4017 22.44 89.6537 22.364 89.8537 22.212C90.0537 22.06 90.1857 21.864 90.2497 21.624H92.4217C92.3337 22.096 92.1417 22.52 91.8457 22.896C91.5497 23.264 91.1737 23.556 90.7177 23.772C90.2617 23.98 89.7537 24.084 89.1937 24.084C88.5377 24.084 87.9537 23.948 87.4417 23.676C86.9377 23.396 86.5417 22.996 86.2537 22.476C85.9657 21.956 85.8217 21.348 85.8217 20.652C85.8217 19.948 85.9617 19.34 86.2417 18.828C86.5297 18.308 86.9297 17.912 87.4417 17.64C87.9537 17.36 88.5377 17.22 89.1937 17.22C89.8577 17.22 90.4417 17.356 90.9457 17.628C91.4497 17.9 91.8377 18.284 92.1097 18.78C92.3897 19.268 92.5297 19.832 92.5297 20.472ZM90.4537 20.16C90.4617 19.72 90.3417 19.392 90.0937 19.176C89.8537 18.952 89.5537 18.84 89.1937 18.84C88.8177 18.84 88.5057 18.952 88.2577 19.176C88.0097 19.4 87.8697 19.728 87.8377 20.16H90.4537ZM95.9034 17.22C96.4154 17.22 96.8554 17.336 97.2234 17.568C97.5914 17.8 97.8594 18.116 98.0274 18.516V15.12H100.079V24H98.0274V22.788C97.8594 23.188 97.5914 23.504 97.2234 23.736C96.8554 23.968 96.4154 24.084 95.9034 24.084C95.3514 24.084 94.8554 23.948 94.4154 23.676C93.9834 23.396 93.6394 22.996 93.3834 22.476C93.1354 21.956 93.0114 21.348 93.0114 20.652C93.0114 19.948 93.1354 19.34 93.3834 18.828C93.6394 18.308 93.9834 17.912 94.4154 17.64C94.8554 17.36 95.3514 17.22 95.9034 17.22ZM96.5634 19.02C96.1234 19.02 95.7674 19.164 95.4954 19.452C95.2314 19.74 95.0994 20.14 95.0994 20.652C95.0994 21.164 95.2314 21.564 95.4954 21.852C95.7674 22.14 96.1234 22.284 96.5634 22.284C96.9954 22.284 97.3474 22.136 97.6194 21.84C97.8994 21.544 98.0394 21.148 98.0394 20.652C98.0394 20.148 97.8994 19.752 97.6194 19.464C97.3474 19.168 96.9954 19.02 96.5634 19.02ZM106.547 17.22C107.211 17.22 107.803 17.36 108.323 17.64C108.851 17.912 109.263 18.308 109.559 18.828C109.863 19.348 110.015 19.956 110.015 20.652C110.015 21.348 109.863 21.956 109.559 22.476C109.263 22.996 108.851 23.396 108.323 23.676C107.803 23.948 107.211 24.084 106.547 24.084C105.883 24.084 105.287 23.948 104.759 23.676C104.231 23.396 103.815 22.996 103.511 22.476C103.215 21.956 103.067 21.348 103.067 20.652C103.067 19.956 103.215 19.348 103.511 18.828C103.815 18.308 104.231 17.912 104.759 17.64C105.287 17.36 105.883 17.22 106.547 17.22ZM106.547 18.996C106.155 18.996 105.823 19.14 105.551 19.428C105.287 19.708 105.155 20.116 105.155 20.652C105.155 21.188 105.287 21.596 105.551 21.876C105.823 22.156 106.155 22.296 106.547 22.296C106.939 22.296 107.267 22.156 107.531 21.876C107.795 21.596 107.927 21.188 107.927 20.652C107.927 20.116 107.795 19.708 107.531 19.428C107.267 19.14 106.939 18.996 106.547 18.996ZM115.087 17.232C115.855 17.232 116.463 17.488 116.911 18C117.367 18.512 117.595 19.216 117.595 20.112V24H115.543V20.352C115.543 19.904 115.423 19.556 115.183 19.308C114.951 19.052 114.639 18.924 114.247 18.924C113.831 18.924 113.499 19.056 113.251 19.32C113.011 19.584 112.891 19.96 112.891 20.448V24H110.839V17.304H112.891V18.528C113.083 18.128 113.367 17.812 113.743 17.58C114.127 17.348 114.575 17.232 115.087 17.232ZM128.202 15.516V24H126.138V20.46H122.922V24H120.87V15.516H122.922V18.804H126.138V15.516H128.202ZM129.181 15.42C129.181 15.108 129.293 14.852 129.517 14.652C129.741 14.444 130.037 14.34 130.405 14.34C130.773 14.34 131.069 14.444 131.293 14.652C131.517 14.852 131.629 15.108 131.629 15.42C131.629 15.724 131.517 15.98 131.293 16.188C131.069 16.388 130.773 16.488 130.405 16.488C130.037 16.488 129.741 16.388 129.517 16.188C129.293 15.98 129.181 15.724 129.181 15.42ZM131.425 17.304V24H129.373V17.304H131.425ZM135.145 17.22C135.657 17.22 136.097 17.336 136.465 17.568C136.833 17.8 137.105 18.116 137.281 18.516V17.304H139.321V23.964C139.321 24.588 139.201 25.148 138.961 25.644C138.721 26.148 138.353 26.548 137.857 26.844C137.361 27.14 136.745 27.288 136.009 27.288C135.001 27.288 134.193 27.048 133.585 26.568C132.985 26.096 132.625 25.452 132.505 24.636H134.533C134.597 24.908 134.741 25.12 134.965 25.272C135.197 25.424 135.497 25.5 135.865 25.5C136.289 25.5 136.629 25.376 136.885 25.128C137.149 24.888 137.281 24.5 137.281 23.964V22.788C137.105 23.188 136.833 23.504 136.465 23.736C136.097 23.968 135.657 24.084 135.145 24.084C134.593 24.084 134.097 23.948 133.657 23.676C133.225 23.396 132.881 22.996 132.625 22.476C132.377 21.956 132.253 21.348 132.253 20.652C132.253 19.948 132.377 19.34 132.625 18.828C132.881 18.308 133.225 17.912 133.657 17.64C134.097 17.36 134.593 17.22 135.145 17.22ZM135.805 19.02C135.365 19.02 135.009 19.164 134.737 19.452C134.473 19.74 134.341 20.14 134.341 20.652C134.341 21.164 134.473 21.564 134.737 21.852C135.009 22.14 135.365 22.284 135.805 22.284C136.237 22.284 136.589 22.136 136.861 21.84C137.141 21.544 137.281 21.148 137.281 20.652C137.281 20.148 137.141 19.752 136.861 19.464C136.589 19.168 136.237 19.02 135.805 19.02ZM144.742 17.232C145.51 17.232 146.118 17.488 146.566 18C147.022 18.512 147.25 19.216 147.25 20.112V24H145.198V20.352C145.198 19.904 145.078 19.556 144.838 19.308C144.606 19.052 144.294 18.924 143.902 18.924C143.486 18.924 143.154 19.056 142.906 19.32C142.666 19.584 142.546 19.96 142.546 20.448V24H140.494V15.12H142.546V18.528C142.738 18.128 143.022 17.812 143.398 17.58C143.782 17.348 144.23 17.232 144.742 17.232ZM154.882 24L153.046 20.796H152.578V24H150.526V15.516H154.03C154.702 15.516 155.27 15.632 155.734 15.864C156.198 16.096 156.546 16.416 156.778 16.824C157.01 17.224 157.126 17.684 157.126 18.204C157.126 18.82 156.954 19.344 156.61 19.776C156.274 20.208 155.782 20.504 155.134 20.664L157.15 24H154.882ZM152.578 19.392H153.85C154.258 19.392 154.558 19.304 154.75 19.128C154.942 18.944 155.038 18.676 155.038 18.324C155.038 17.988 154.938 17.724 154.738 17.532C154.546 17.34 154.25 17.244 153.85 17.244H152.578V19.392ZM157.723 15.42C157.723 15.108 157.835 14.852 158.059 14.652C158.283 14.444 158.579 14.34 158.947 14.34C159.315 14.34 159.611 14.444 159.835 14.652C160.059 14.852 160.171 15.108 160.171 15.42C160.171 15.724 160.059 15.98 159.835 16.188C159.611 16.388 159.315 16.488 158.947 16.488C158.579 16.488 158.283 16.388 158.059 16.188C157.835 15.98 157.723 15.724 157.723 15.42ZM159.967 17.304V24H157.915V17.304H159.967ZM163.579 17.22C164.427 17.22 165.103 17.432 165.607 17.856C166.119 18.28 166.439 18.84 166.567 19.536H164.647C164.591 19.264 164.463 19.052 164.263 18.9C164.071 18.74 163.827 18.66 163.531 18.66C163.299 18.66 163.123 18.712 163.003 18.816C162.883 18.912 162.823 19.052 162.823 19.236C162.823 19.444 162.931 19.6 163.147 19.704C163.371 19.808 163.719 19.912 164.191 20.016C164.703 20.136 165.123 20.26 165.451 20.388C165.779 20.508 166.063 20.708 166.303 20.988C166.543 21.268 166.663 21.644 166.663 22.116C166.663 22.5 166.559 22.84 166.351 23.136C166.143 23.432 165.843 23.664 165.451 23.832C165.059 24 164.595 24.084 164.059 24.084C163.155 24.084 162.431 23.884 161.887 23.484C161.343 23.084 161.011 22.512 160.891 21.768H162.871C162.903 22.056 163.023 22.276 163.231 22.428C163.447 22.58 163.723 22.656 164.059 22.656C164.291 22.656 164.467 22.604 164.587 22.5C164.707 22.388 164.767 22.244 164.767 22.068C164.767 21.836 164.655 21.672 164.431 21.576C164.215 21.472 163.859 21.364 163.363 21.252C162.867 21.148 162.459 21.036 162.139 20.916C161.819 20.796 161.543 20.604 161.311 20.34C161.079 20.068 160.963 19.7 160.963 19.236C160.963 18.636 161.191 18.152 161.647 17.784C162.103 17.408 162.747 17.22 163.579 17.22ZM171.616 24L169.612 21.156V24H167.56V15.12H169.612V19.992L171.616 17.304H174.028L171.328 20.652L174.088 24H171.616ZM180.791 15.384C181.591 15.384 182.315 15.572 182.963 15.948C183.619 16.316 184.135 16.832 184.511 17.496C184.887 18.152 185.075 18.896 185.075 19.728C185.075 20.56 184.883 21.308 184.499 21.972C184.123 22.636 183.607 23.156 182.951 23.532C182.303 23.9 181.583 24.084 180.791 24.084C179.999 24.084 179.275 23.9 178.619 23.532C177.971 23.156 177.455 22.636 177.071 21.972C176.695 21.308 176.507 20.56 176.507 19.728C176.507 18.896 176.695 18.152 177.071 17.496C177.455 16.832 177.971 16.316 178.619 15.948C179.275 15.572 179.999 15.384 180.791 15.384ZM180.791 17.292C180.119 17.292 179.583 17.512 179.183 17.952C178.791 18.384 178.595 18.976 178.595 19.728C178.595 20.472 178.791 21.064 179.183 21.504C179.583 21.944 180.119 22.164 180.791 22.164C181.455 22.164 181.987 21.944 182.387 21.504C182.787 21.064 182.987 20.472 182.987 19.728C182.987 18.984 182.787 18.392 182.387 17.952C181.995 17.512 181.463 17.292 180.791 17.292ZM188.04 18.564C188.296 18.156 188.624 17.832 189.024 17.592C189.432 17.352 189.872 17.232 190.344 17.232V19.428H189.756C189.212 19.428 188.788 19.544 188.484 19.776C188.188 20.008 188.04 20.4 188.04 20.952V24H185.988V17.304H188.04V18.564ZM193.507 17.22C194.019 17.22 194.459 17.336 194.827 17.568C195.195 17.8 195.463 18.116 195.631 18.516V15.12H197.683V24H195.631V22.788C195.463 23.188 195.195 23.504 194.827 23.736C194.459 23.968 194.019 24.084 193.507 24.084C192.955 24.084 192.459 23.948 192.019 23.676C191.587 23.396 191.243 22.996 190.987 22.476C190.739 21.956 190.615 21.348 190.615 20.652C190.615 19.948 190.739 19.34 190.987 18.828C191.243 18.308 191.587 17.912 192.019 17.64C192.459 17.36 192.955 17.22 193.507 17.22ZM194.167 19.02C193.727 19.02 193.371 19.164 193.099 19.452C192.835 19.74 192.703 20.14 192.703 20.652C192.703 21.164 192.835 21.564 193.099 21.852C193.371 22.14 193.727 22.284 194.167 22.284C194.599 22.284 194.951 22.136 195.223 21.84C195.503 21.544 195.643 21.148 195.643 20.652C195.643 20.148 195.503 19.752 195.223 19.464C194.951 19.168 194.599 19.02 194.167 19.02ZM205.216 20.472C205.216 20.64 205.196 20.824 205.156 21.024H200.512C200.536 21.528 200.664 21.892 200.896 22.116C201.128 22.332 201.424 22.44 201.784 22.44C202.088 22.44 202.34 22.364 202.54 22.212C202.74 22.06 202.872 21.864 202.936 21.624H205.108C205.02 22.096 204.828 22.52 204.532 22.896C204.236 23.264 203.86 23.556 203.404 23.772C202.948 23.98 202.44 24.084 201.88 24.084C201.224 24.084 200.64 23.948 200.128 23.676C199.624 23.396 199.228 22.996 198.94 22.476C198.652 21.956 198.508 21.348 198.508 20.652C198.508 19.948 198.648 19.34 198.928 18.828C199.216 18.308 199.616 17.912 200.128 17.64C200.64 17.36 201.224 17.22 201.88 17.22C202.544 17.22 203.128 17.356 203.632 17.628C204.136 17.9 204.524 18.284 204.796 18.78C205.076 19.268 205.216 19.832 205.216 20.472ZM203.14 20.16C203.148 19.72 203.028 19.392 202.78 19.176C202.54 18.952 202.24 18.84 201.88 18.84C201.504 18.84 201.192 18.952 200.944 19.176C200.696 19.4 200.556 19.728 200.524 20.16H203.14ZM208.097 18.564C208.353 18.156 208.681 17.832 209.081 17.592C209.489 17.352 209.929 17.232 210.401 17.232V19.428H209.813C209.269 19.428 208.845 19.544 208.541 19.776C208.245 20.008 208.097 20.4 208.097 20.952V24H206.045V17.304H208.097V18.564Z" fill="#13172D"/>
<line x1="274.5" y1="20.5" x2="230.5" y2="20.5" stroke="#E31B1B" stroke-linecap="round"/>
<g filter="url(#filter0_d)">
<circle r="5" transform="matrix(-1 0 0 1 277 21)" fill="white"/>
</g>
<circle r="4" transform="matrix(-1 0 0 1 277 21)" fill="#E31B1B"/>
<g filter="url(#filter1_d)">
<circle r="5" transform="matrix(-1 0 0 1 226 20)" fill="white"/>
</g>
<circle r="4" transform="matrix(-1 0 0 1 226 20)" fill="#E31B1B"/>
<defs>
<filter id="filter0_d" x="264" y="6" width="30" height="30" filterUnits="userSpaceOnUse" color-interpolation-filters="sRGB">
<feFlood flood-opacity="0" result="BackgroundImageFix"/>
<feColorMatrix in="SourceAlpha" type="matrix" values="0 0 0 0 0 0 0 0 0 0 0 0 0 0 0 0 0 0 127 0" result="hardAlpha"/>
<feOffset dx="2"/>
<feGaussianBlur stdDeviation="5"/>
<feColorMatrix type="matrix" values="0 0 0 0 0 0 0 0 0 0.0156863 0 0 0 0 0.156863 0 0 0 0.25 0"/>
<feBlend mode="normal" in2="BackgroundImageFix" result="effect1_dropShadow"/>
<feBlend mode="normal" in="SourceGraphic" in2="effect1_dropShadow" result="shape"/>
</filter>
<filter id="filter1_d" x="213" y="5" width="30" height="30" filterUnits="userSpaceOnUse" color-interpolation-filters="sRGB">
<feFlood flood-opacity="0" result="BackgroundImageFix"/>
<feColorMatrix in="SourceAlpha" type="matrix" values="0 0 0 0 0 0 0 0 0 0 0 0 0 0 0 0 0 0 127 0" result="hardAlpha"/>
<feOffset dx="2"/>
<feGaussianBlur stdDeviation="5"/>
<feColorMatrix type="matrix" values="0 0 0 0 0 0 0 0 0 0.0156863 0 0 0 0 0.156863 0 0 0 0.25 0"/>
<feBlend mode="normal" in2="BackgroundImageFix" result="effect1_dropShadow"/>
<feBlend mode="normal" in="SourceGraphic" in2="effect1_dropShadow" result="shape"/>
</filter>
</defs>
</svg>
