<svg width="496" height="40" viewBox="0 0 496 40" fill="none" xmlns="http://www.w3.org/2000/svg">
<rect x="282.5" y="0.5" width="213" height="29" stroke="#E31B1B"/>
<rect x="0.5" y="0.5" width="199" height="39" rx="19.5" stroke="#E31B1B" stroke-dasharray="2 2"/>
<rect x="5" y="5" width="190" height="30" rx="15" fill="#E31B1B"/>
<path d="M19.1515 16.516V25H17.0995V16.516H19.1515ZM24.5762 18.232C25.3442 18.232 25.9522 18.488 26.4002 19C26.8562 19.512 27.0842 20.216 27.0842 21.112V25H25.0322V21.352C25.0322 20.904 24.9122 20.556 24.6722 20.308C24.4402 20.052 24.1282 19.924 23.7362 19.924C23.3202 19.924 22.9882 20.056 22.7402 20.32C22.5002 20.584 22.3802 20.96 22.3802 21.448V25H20.3282V18.304H22.3802V19.528C22.5722 19.128 22.8562 18.812 23.2322 18.58C23.6162 18.348 24.0642 18.232 24.5762 18.232ZM32.0736 16.432C33.1536 16.432 34.0456 16.716 34.7496 17.284C35.4616 17.852 35.9216 18.62 36.1296 19.588H33.9576C33.7976 19.196 33.5496 18.888 33.2136 18.664C32.8856 18.44 32.4936 18.328 32.0376 18.328C31.4376 18.328 30.9536 18.548 30.5856 18.988C30.2176 19.428 30.0336 20.016 30.0336 20.752C30.0336 21.488 30.2176 22.076 30.5856 22.516C30.9536 22.948 31.4376 23.164 32.0376 23.164C32.4936 23.164 32.8856 23.052 33.2136 22.828C33.5496 22.604 33.7976 22.3 33.9576 21.916H36.1296C35.9216 22.876 35.4616 23.644 34.7496 24.22C34.0456 24.788 33.1536 25.072 32.0736 25.072C31.2496 25.072 30.5256 24.892 29.9016 24.532C29.2776 24.164 28.7936 23.652 28.4496 22.996C28.1136 22.34 27.9456 21.592 27.9456 20.752C27.9456 19.912 28.1136 19.164 28.4496 18.508C28.7936 17.852 29.2776 17.344 29.9016 16.984C30.5256 16.616 31.2496 16.432 32.0736 16.432ZM40.1716 18.22C40.8356 18.22 41.4276 18.36 41.9476 18.64C42.4756 18.912 42.8876 19.308 43.1836 19.828C43.4876 20.348 43.6396 20.956 43.6396 21.652C43.6396 22.348 43.4876 22.956 43.1836 23.476C42.8876 23.996 42.4756 24.396 41.9476 24.676C41.4276 24.948 40.8356 25.084 40.1716 25.084C39.5076 25.084 38.9116 24.948 38.3836 24.676C37.8556 24.396 37.4396 23.996 37.1356 23.476C36.8396 22.956 36.6916 22.348 36.6916 21.652C36.6916 20.956 36.8396 20.348 37.1356 19.828C37.4396 19.308 37.8556 18.912 38.3836 18.64C38.9116 18.36 39.5076 18.22 40.1716 18.22ZM40.1716 19.996C39.7796 19.996 39.4476 20.14 39.1756 20.428C38.9116 20.708 38.7796 21.116 38.7796 21.652C38.7796 22.188 38.9116 22.596 39.1756 22.876C39.4476 23.156 39.7796 23.296 40.1716 23.296C40.5636 23.296 40.8916 23.156 41.1556 22.876C41.4196 22.596 41.5516 22.188 41.5516 21.652C41.5516 21.116 41.4196 20.708 41.1556 20.428C40.8916 20.14 40.5636 19.996 40.1716 19.996ZM46.5157 19.564C46.7717 19.156 47.0997 18.832 47.4997 18.592C47.9077 18.352 48.3477 18.232 48.8197 18.232V20.428H48.2317C47.6877 20.428 47.2637 20.544 46.9597 20.776C46.6637 21.008 46.5157 21.4 46.5157 21.952V25H44.4637V18.304H46.5157V19.564ZM51.4905 19.564C51.7465 19.156 52.0745 18.832 52.4745 18.592C52.8825 18.352 53.3225 18.232 53.7945 18.232V20.428H53.2065C52.6625 20.428 52.2385 20.544 51.9345 20.776C51.6385 21.008 51.4905 21.4 51.4905 21.952V25H49.4385V18.304H51.4905V19.564ZM60.7734 21.472C60.7734 21.64 60.7534 21.824 60.7134 22.024H56.0694C56.0934 22.528 56.2214 22.892 56.4534 23.116C56.6854 23.332 56.9814 23.44 57.3414 23.44C57.6454 23.44 57.8974 23.364 58.0974 23.212C58.2974 23.06 58.4294 22.864 58.4934 22.624H60.6654C60.5774 23.096 60.3854 23.52 60.0894 23.896C59.7934 24.264 59.4174 24.556 58.9614 24.772C58.5054 24.98 57.9974 25.084 57.4374 25.084C56.7814 25.084 56.1974 24.948 55.6854 24.676C55.1814 24.396 54.7854 23.996 54.4974 23.476C54.2094 22.956 54.0654 22.348 54.0654 21.652C54.0654 20.948 54.2054 20.34 54.4854 19.828C54.7734 19.308 55.1734 18.912 55.6854 18.64C56.1974 18.36 56.7814 18.22 57.4374 18.22C58.1014 18.22 58.6854 18.356 59.1894 18.628C59.6934 18.9 60.0814 19.284 60.3534 19.78C60.6334 20.268 60.7734 20.832 60.7734 21.472ZM58.6974 21.16C58.7054 20.72 58.5854 20.392 58.3374 20.176C58.0974 19.952 57.7974 19.84 57.4374 19.84C57.0614 19.84 56.7494 19.952 56.5014 20.176C56.2534 20.4 56.1134 20.728 56.0814 21.16H58.6974ZM64.6271 18.22C65.4911 18.22 66.2151 18.46 66.7991 18.94C67.3831 19.412 67.7511 20.064 67.9031 20.896H65.7311C65.6671 20.608 65.5351 20.384 65.3351 20.224C65.1351 20.064 64.8831 19.984 64.5791 19.984C64.2191 19.984 63.9231 20.128 63.6911 20.416C63.4591 20.696 63.3431 21.108 63.3431 21.652C63.3431 22.196 63.4591 22.612 63.6911 22.9C63.9231 23.18 64.2191 23.32 64.5791 23.32C64.8831 23.32 65.1351 23.24 65.3351 23.08C65.5351 22.92 65.6671 22.696 65.7311 22.408H67.9031C67.7511 23.24 67.3831 23.896 66.7991 24.376C66.2151 24.848 65.4911 25.084 64.6271 25.084C63.9711 25.084 63.3871 24.948 62.8751 24.676C62.3711 24.396 61.9751 23.996 61.6871 23.476C61.3991 22.956 61.2551 22.348 61.2551 21.652C61.2551 20.948 61.3951 20.34 61.6751 19.828C61.9631 19.308 62.3631 18.912 62.8751 18.64C63.3871 18.36 63.9711 18.22 64.6271 18.22ZM72.5262 23.236V25H71.6022C70.8182 25 70.2062 24.808 69.7662 24.424C69.3342 24.032 69.1182 23.388 69.1182 22.492V20.032H68.2182V18.304H69.1182V16.66H71.1702V18.304H72.5142V20.032H71.1702V22.528C71.1702 22.792 71.2222 22.976 71.3262 23.08C71.4382 23.184 71.6222 23.236 71.8782 23.236H72.5262ZM80.8578 23.452H77.6778L77.1498 25H74.9898L78.0978 16.576H80.4618L83.5698 25H81.3858L80.8578 23.452ZM80.3298 21.892L79.2738 18.772L78.2058 21.892H80.3298ZM86.6715 18.22C87.1835 18.22 87.6235 18.336 87.9915 18.568C88.3595 18.8 88.6275 19.116 88.7955 19.516V16.12H90.8475V25H88.7955V23.788C88.6275 24.188 88.3595 24.504 87.9915 24.736C87.6235 24.968 87.1835 25.084 86.6715 25.084C86.1195 25.084 85.6235 24.948 85.1835 24.676C84.7515 24.396 84.4075 23.996 84.1515 23.476C83.9035 22.956 83.7795 22.348 83.7795 21.652C83.7795 20.948 83.9035 20.34 84.1515 19.828C84.4075 19.308 84.7515 18.912 85.1835 18.64C85.6235 18.36 86.1195 18.22 86.6715 18.22ZM87.3315 20.02C86.8915 20.02 86.5355 20.164 86.2635 20.452C85.9995 20.74 85.8675 21.14 85.8675 21.652C85.8675 22.164 85.9995 22.564 86.2635 22.852C86.5355 23.14 86.8915 23.284 87.3315 23.284C87.7635 23.284 88.1155 23.136 88.3875 22.84C88.6675 22.544 88.8075 22.148 88.8075 21.652C88.8075 21.148 88.6675 20.752 88.3875 20.464C88.1155 20.168 87.7635 20.02 87.3315 20.02ZM94.5643 18.22C95.0763 18.22 95.5163 18.336 95.8843 18.568C96.2523 18.8 96.5203 19.116 96.6883 19.516V16.12H98.7403V25H96.6883V23.788C96.5203 24.188 96.2523 24.504 95.8843 24.736C95.5163 24.968 95.0763 25.084 94.5643 25.084C94.0123 25.084 93.5163 24.948 93.0763 24.676C92.6443 24.396 92.3003 23.996 92.0443 23.476C91.7963 22.956 91.6723 22.348 91.6723 21.652C91.6723 20.948 91.7963 20.34 92.0443 19.828C92.3003 19.308 92.6443 18.912 93.0763 18.64C93.5163 18.36 94.0123 18.22 94.5643 18.22ZM95.2243 20.02C94.7843 20.02 94.4283 20.164 94.1563 20.452C93.8923 20.74 93.7603 21.14 93.7603 21.652C93.7603 22.164 93.8923 22.564 94.1563 22.852C94.4283 23.14 94.7843 23.284 95.2243 23.284C95.6563 23.284 96.0083 23.136 96.2803 22.84C96.5603 22.544 96.7003 22.148 96.7003 21.652C96.7003 21.148 96.5603 20.752 96.2803 20.464C96.0083 20.168 95.6563 20.02 95.2243 20.02ZM101.965 19.564C102.221 19.156 102.549 18.832 102.949 18.592C103.357 18.352 103.797 18.232 104.269 18.232V20.428H103.681C103.137 20.428 102.713 20.544 102.409 20.776C102.113 21.008 101.965 21.4 101.965 21.952V25H99.9131V18.304H101.965V19.564ZM111.248 21.472C111.248 21.64 111.228 21.824 111.188 22.024H106.544C106.568 22.528 106.696 22.892 106.928 23.116C107.16 23.332 107.456 23.44 107.816 23.44C108.12 23.44 108.372 23.364 108.572 23.212C108.772 23.06 108.904 22.864 108.968 22.624H111.14C111.052 23.096 110.86 23.52 110.564 23.896C110.268 24.264 109.892 24.556 109.436 24.772C108.98 24.98 108.472 25.084 107.912 25.084C107.256 25.084 106.672 24.948 106.16 24.676C105.656 24.396 105.26 23.996 104.972 23.476C104.684 22.956 104.54 22.348 104.54 21.652C104.54 20.948 104.68 20.34 104.96 19.828C105.248 19.308 105.648 18.912 106.16 18.64C106.672 18.36 107.256 18.22 107.912 18.22C108.576 18.22 109.16 18.356 109.664 18.628C110.168 18.9 110.556 19.284 110.828 19.78C111.108 20.268 111.248 20.832 111.248 21.472ZM109.172 21.16C109.18 20.72 109.06 20.392 108.812 20.176C108.572 19.952 108.272 19.84 107.912 19.84C107.536 19.84 107.224 19.952 106.976 20.176C106.728 20.4 106.588 20.728 106.556 21.16H109.172ZM114.514 18.22C115.362 18.22 116.038 18.432 116.542 18.856C117.054 19.28 117.374 19.84 117.502 20.536H115.582C115.526 20.264 115.398 20.052 115.198 19.9C115.006 19.74 114.762 19.66 114.466 19.66C114.234 19.66 114.058 19.712 113.938 19.816C113.818 19.912 113.758 20.052 113.758 20.236C113.758 20.444 113.866 20.6 114.082 20.704C114.306 20.808 114.654 20.912 115.126 21.016C115.638 21.136 116.058 21.26 116.386 21.388C116.714 21.508 116.998 21.708 117.238 21.988C117.478 22.268 117.598 22.644 117.598 23.116C117.598 23.5 117.494 23.84 117.286 24.136C117.078 24.432 116.778 24.664 116.386 24.832C115.994 25 115.53 25.084 114.994 25.084C114.09 25.084 113.366 24.884 112.822 24.484C112.278 24.084 111.946 23.512 111.826 22.768H113.806C113.838 23.056 113.958 23.276 114.166 23.428C114.382 23.58 114.658 23.656 114.994 23.656C115.226 23.656 115.402 23.604 115.522 23.5C115.642 23.388 115.702 23.244 115.702 23.068C115.702 22.836 115.59 22.672 115.366 22.576C115.15 22.472 114.794 22.364 114.298 22.252C113.802 22.148 113.394 22.036 113.074 21.916C112.754 21.796 112.478 21.604 112.246 21.34C112.014 21.068 111.898 20.7 111.898 20.236C111.898 19.636 112.126 19.152 112.582 18.784C113.038 18.408 113.682 18.22 114.514 18.22ZM120.93 18.22C121.778 18.22 122.454 18.432 122.958 18.856C123.47 19.28 123.79 19.84 123.918 20.536H121.998C121.942 20.264 121.814 20.052 121.614 19.9C121.422 19.74 121.178 19.66 120.882 19.66C120.65 19.66 120.474 19.712 120.354 19.816C120.234 19.912 120.174 20.052 120.174 20.236C120.174 20.444 120.282 20.6 120.498 20.704C120.722 20.808 121.07 20.912 121.542 21.016C122.054 21.136 122.474 21.26 122.802 21.388C123.13 21.508 123.414 21.708 123.654 21.988C123.894 22.268 124.014 22.644 124.014 23.116C124.014 23.5 123.91 23.84 123.702 24.136C123.494 24.432 123.194 24.664 122.802 24.832C122.41 25 121.946 25.084 121.41 25.084C120.506 25.084 119.782 24.884 119.238 24.484C118.694 24.084 118.362 23.512 118.242 22.768H120.222C120.254 23.056 120.374 23.276 120.582 23.428C120.798 23.58 121.074 23.656 121.41 23.656C121.642 23.656 121.818 23.604 121.938 23.5C122.058 23.388 122.118 23.244 122.118 23.068C122.118 22.836 122.006 22.672 121.782 22.576C121.566 22.472 121.21 22.364 120.714 22.252C120.218 22.148 119.81 22.036 119.49 21.916C119.17 21.796 118.894 21.604 118.662 21.34C118.43 21.068 118.314 20.7 118.314 20.236C118.314 19.636 118.542 19.152 118.998 18.784C119.454 18.408 120.098 18.22 120.93 18.22ZM134.704 20.74C134.704 21.572 134.524 22.312 134.164 22.96C133.812 23.6 133.3 24.1 132.628 24.46C131.964 24.82 131.18 25 130.276 25H127.072V16.516H130.276C131.188 16.516 131.976 16.692 132.64 17.044C133.304 17.396 133.812 17.892 134.164 18.532C134.524 19.172 134.704 19.908 134.704 20.74ZM130.096 23.164C130.896 23.164 131.516 22.952 131.956 22.528C132.404 22.104 132.628 21.508 132.628 20.74C132.628 19.972 132.404 19.376 131.956 18.952C131.516 18.528 130.896 18.316 130.096 18.316H129.124V23.164H130.096ZM141.993 21.472C141.993 21.64 141.973 21.824 141.933 22.024H137.289C137.313 22.528 137.441 22.892 137.673 23.116C137.905 23.332 138.201 23.44 138.561 23.44C138.865 23.44 139.117 23.364 139.317 23.212C139.517 23.06 139.649 22.864 139.713 22.624H141.885C141.797 23.096 141.605 23.52 141.309 23.896C141.013 24.264 140.637 24.556 140.181 24.772C139.725 24.98 139.217 25.084 138.657 25.084C138.001 25.084 137.417 24.948 136.905 24.676C136.401 24.396 136.005 23.996 135.717 23.476C135.429 22.956 135.285 22.348 135.285 21.652C135.285 20.948 135.425 20.34 135.705 19.828C135.993 19.308 136.393 18.912 136.905 18.64C137.417 18.36 138.001 18.22 138.657 18.22C139.321 18.22 139.905 18.356 140.409 18.628C140.913 18.9 141.301 19.284 141.573 19.78C141.853 20.268 141.993 20.832 141.993 21.472ZM139.917 21.16C139.925 20.72 139.805 20.392 139.557 20.176C139.317 19.952 139.017 19.84 138.657 19.84C138.281 19.84 137.969 19.952 137.721 20.176C137.473 20.4 137.333 20.728 137.301 21.16H139.917ZM146.615 23.236V25H145.691C144.907 25 144.295 24.808 143.855 24.424C143.423 24.032 143.207 23.388 143.207 22.492V20.032H142.307V18.304H143.207V16.66H145.259V18.304H146.603V20.032H145.259V22.528C145.259 22.792 145.311 22.976 145.415 23.08C145.527 23.184 145.711 23.236 145.967 23.236H146.615ZM153.888 21.472C153.888 21.64 153.868 21.824 153.828 22.024H149.184C149.208 22.528 149.336 22.892 149.568 23.116C149.8 23.332 150.096 23.44 150.456 23.44C150.76 23.44 151.012 23.364 151.212 23.212C151.412 23.06 151.544 22.864 151.608 22.624H153.78C153.692 23.096 153.5 23.52 153.204 23.896C152.908 24.264 152.532 24.556 152.076 24.772C151.62 24.98 151.112 25.084 150.552 25.084C149.896 25.084 149.312 24.948 148.8 24.676C148.296 24.396 147.9 23.996 147.612 23.476C147.324 22.956 147.18 22.348 147.18 21.652C147.18 20.948 147.32 20.34 147.6 19.828C147.888 19.308 148.288 18.912 148.8 18.64C149.312 18.36 149.896 18.22 150.552 18.22C151.216 18.22 151.8 18.356 152.304 18.628C152.808 18.9 153.196 19.284 153.468 19.78C153.748 20.268 153.888 20.832 153.888 21.472ZM151.812 21.16C151.82 20.72 151.7 20.392 151.452 20.176C151.212 19.952 150.912 19.84 150.552 19.84C150.176 19.84 149.864 19.952 149.616 20.176C149.368 20.4 149.228 20.728 149.196 21.16H151.812ZM157.742 18.22C158.606 18.22 159.33 18.46 159.914 18.94C160.498 19.412 160.866 20.064 161.018 20.896H158.846C158.782 20.608 158.65 20.384 158.45 20.224C158.25 20.064 157.998 19.984 157.694 19.984C157.334 19.984 157.038 20.128 156.806 20.416C156.574 20.696 156.458 21.108 156.458 21.652C156.458 22.196 156.574 22.612 156.806 22.9C157.038 23.18 157.334 23.32 157.694 23.32C157.998 23.32 158.25 23.24 158.45 23.08C158.65 22.92 158.782 22.696 158.846 22.408H161.018C160.866 23.24 160.498 23.896 159.914 24.376C159.33 24.848 158.606 25.084 157.742 25.084C157.086 25.084 156.502 24.948 155.99 24.676C155.486 24.396 155.09 23.996 154.802 23.476C154.514 22.956 154.37 22.348 154.37 21.652C154.37 20.948 154.51 20.34 154.79 19.828C155.078 19.308 155.478 18.912 155.99 18.64C156.502 18.36 157.086 18.22 157.742 18.22ZM165.641 23.236V25H164.717C163.933 25 163.321 24.808 162.881 24.424C162.449 24.032 162.233 23.388 162.233 22.492V20.032H161.333V18.304H162.233V16.66H164.285V18.304H165.629V20.032H164.285V22.528C164.285 22.792 164.337 22.976 164.441 23.08C164.553 23.184 164.737 23.236 164.993 23.236H165.641ZM166.362 16.42C166.362 16.108 166.474 15.852 166.698 15.652C166.922 15.444 167.218 15.34 167.586 15.34C167.954 15.34 168.25 15.444 168.474 15.652C168.698 15.852 168.81 16.108 168.81 16.42C168.81 16.724 168.698 16.98 168.474 17.188C168.25 17.388 167.954 17.488 167.586 17.488C167.218 17.488 166.922 17.388 166.698 17.188C166.474 16.98 166.362 16.724 166.362 16.42ZM168.606 18.304V25H166.554V18.304H168.606ZM172.915 18.22C173.579 18.22 174.171 18.36 174.691 18.64C175.219 18.912 175.631 19.308 175.927 19.828C176.231 20.348 176.383 20.956 176.383 21.652C176.383 22.348 176.231 22.956 175.927 23.476C175.631 23.996 175.219 24.396 174.691 24.676C174.171 24.948 173.579 25.084 172.915 25.084C172.251 25.084 171.655 24.948 171.127 24.676C170.599 24.396 170.183 23.996 169.879 23.476C169.583 22.956 169.435 22.348 169.435 21.652C169.435 20.956 169.583 20.348 169.879 19.828C170.183 19.308 170.599 18.912 171.127 18.64C171.655 18.36 172.251 18.22 172.915 18.22ZM172.915 19.996C172.523 19.996 172.191 20.14 171.919 20.428C171.655 20.708 171.523 21.116 171.523 21.652C171.523 22.188 171.655 22.596 171.919 22.876C172.191 23.156 172.523 23.296 172.915 23.296C173.307 23.296 173.635 23.156 173.899 22.876C174.163 22.596 174.295 22.188 174.295 21.652C174.295 21.116 174.163 20.708 173.899 20.428C173.635 20.14 173.307 19.996 172.915 19.996ZM181.455 18.232C182.223 18.232 182.831 18.488 183.279 19C183.735 19.512 183.963 20.216 183.963 21.112V25H181.911V21.352C181.911 20.904 181.791 20.556 181.551 20.308C181.319 20.052 181.007 19.924 180.615 19.924C180.199 19.924 179.867 20.056 179.619 20.32C179.379 20.584 179.259 20.96 179.259 21.448V25H177.207V18.304H179.259V19.528C179.451 19.128 179.735 18.812 180.111 18.58C180.495 18.348 180.943 18.232 181.455 18.232Z" fill="#13172D"/>
<line x1="199.5" y1="19.5" x2="278.5" y2="19.5" stroke="#E31B1B" stroke-linecap="round"/>
<g filter="url(#filter0_d)">
<circle cx="195" cy="20" r="5" fill="white"/>
</g>
<circle cx="195" cy="20" r="4" fill="#E31B1B"/>
<g filter="url(#filter1_d)">
<circle cx="283" cy="20" r="5" fill="white"/>
</g>
<circle cx="283" cy="20" r="4" fill="#E31B1B"/>
<defs>
<filter id="filter0_d" x="182" y="5" width="30" height="30" filterUnits="userSpaceOnUse" color-interpolation-filters="sRGB">
<feFlood flood-opacity="0" result="BackgroundImageFix"/>
<feColorMatrix in="SourceAlpha" type="matrix" values="0 0 0 0 0 0 0 0 0 0 0 0 0 0 0 0 0 0 127 0" result="hardAlpha"/>
<feOffset dx="2"/>
<feGaussianBlur stdDeviation="5"/>
<feColorMatrix type="matrix" values="0 0 0 0 0 0 0 0 0 0.0156863 0 0 0 0 0.156863 0 0 0 0.25 0"/>
<feBlend mode="normal" in2="BackgroundImageFix" result="effect1_dropShadow"/>
<feBlend mode="normal" in="SourceGraphic" in2="effect1_dropShadow" result="shape"/>
</filter>
<filter id="filter1_d" x="270" y="5" width="30" height="30" filterUnits="userSpaceOnUse" color-interpolation-filters="sRGB">
<feFlood flood-opacity="0" result="BackgroundImageFix"/>
<feColorMatrix in="SourceAlpha" type="matrix" values="0 0 0 0 0 0 0 0 0 0 0 0 0 0 0 0 0 0 127 0" result="hardAlpha"/>
<feOffset dx="2"/>
<feGaussianBlur stdDeviation="5"/>
<feColorMatrix type="matrix" values="0 0 0 0 0 0 0 0 0 0.0156863 0 0 0 0 0.156863 0 0 0 0.25 0"/>
<feBlend mode="normal" in2="BackgroundImageFix" result="effect1_dropShadow"/>
<feBlend mode="normal" in="SourceGraphic" in2="effect1_dropShadow" result="shape"/>
</filter>
</defs>
</svg>
