<svg width="40" height="40" viewBox="0 0 40 40" fill="none" xmlns="http://www.w3.org/2000/svg">
<path fill-rule="evenodd" clip-rule="evenodd" d="M33.399 7.72863L33.4009 7.7289C34.0931 7.82119 34.6099 8.40262 34.6099 9.10402V16.4964C34.6099 24.4795 30.3922 32.0288 23.5997 36.2188L21.034 37.797C20.8033 37.9354 20.5541 38 20.3049 38C20.0558 38 19.8066 37.9354 19.5759 37.797L17.0102 36.2188C10.2177 32.0288 6 24.4703 6 16.4964V9.10402C6 8.40262 6.51682 7.81196 7.209 7.7289L7.21088 7.72863C7.34925 7.70917 13.4483 6.85151 19.4743 2.28379C19.9635 1.9054 20.6464 1.9054 21.1448 2.28379C27.1617 6.85152 33.2607 7.70918 33.399 7.72863ZM22.1415 33.8562C28.1219 30.1738 31.8412 23.5197 31.8412 16.4964V10.2576C29.7093 9.80542 25.0856 8.4949 20.3049 5.10786C15.5243 8.4949 10.9006 9.80542 8.7687 10.2576V16.4964C8.7687 23.5197 12.488 30.1738 18.4684 33.8562L20.3049 34.9913L22.1415 33.8562ZM17.3055 17.1979V16.8103C17.3055 15.1583 18.6622 13.8109 20.3142 13.8109C21.9662 13.8109 23.3136 15.1583 23.3136 16.8103V17.1979C23.3136 17.1979 23.3044 17.2072 23.3044 17.2164C24.2088 17.3364 24.9194 18.1024 24.9194 19.0437V23.6582C24.9194 24.6734 24.0888 25.504 23.0736 25.504H17.5362C16.5211 25.504 15.6904 24.6734 15.6904 23.6582V19.0437C15.6904 18.0932 16.4011 17.3272 17.3147 17.2164C17.3055 17.2164 17.3055 17.2072 17.3055 17.1979ZM20.711 22.9568V21.7663C20.9417 21.6279 21.1079 21.3787 21.1263 21.0834C21.1263 20.6311 20.7572 20.2712 20.3142 20.2712C19.8619 20.2712 19.502 20.6404 19.502 21.0834C19.502 21.3787 19.6681 21.6279 19.9081 21.7663V22.9568C19.9081 23.1322 20.0558 23.2799 20.2311 23.2799H20.388C20.5634 23.2799 20.711 23.1322 20.711 22.9568ZM21.92 17.1979V16.8103C21.92 15.9243 21.1909 15.1953 20.3049 15.1953C19.419 15.1953 18.6899 15.9243 18.6899 16.8103V17.1979H21.92Z" fill="url(#paint0_linear)"/>
<defs>
<linearGradient id="paint0_linear" x1="4.41057" y1="3.13488e-06" x2="36.3277" y2="0.102752" gradientUnits="userSpaceOnUse">
<stop stop-color="#F1991A"/>
<stop offset="1" stop-color="#F5B353"/>
</linearGradient>
</defs>
</svg>
